<?xml version="1.0" encoding="UTF-8"?>
<svg id="Layer_1" xmlns="http://www.w3.org/2000/svg" version="1.1" xmlns:i="http://ns.adobe.com/AdobeIllustrator/10.0/" viewBox="0 0 170.79 117.4">
  <defs>
    <style>
      .st0 {
        fill: none;
        stroke: #424248;
        stroke-miterlimit: 10;
        stroke-width: 6.71px;
      }

      .st1 {
        fill: #aeb4ff;
      }

      .st2 {
        fill: #290f87;
      }
    </style>
  </defs>
  <path class="st1" d="M20.03,4.13l-8.72-.38s-5.68,3.79-3.41,28.8l.38,57.22,26.91-55.33s-.38-5.68,10.99-4.93c0,0,73.14,7.96,85.26,7.96l11.37-.76-5.31-9.47-10.99-2.27h-20.08l-18.19-14.4s-6.06-3.41-10.61-3.03l-57.6-3.41Z" />
  <path class="st0" d="M-553.7,71.36" />
  <g>
    <path class="st2" d="M132.27,117.4H11.63c-6.41,0-11.63-5.44-11.63-12.12V12.12C0,5.44,5.22,0,11.63,0h69.8c8.66,0,13.33,4.67,17.03,9.04,2.87,3.39,8.92,10.44,11.2,13.1h22.61c6.41,0,11.63,5.43,11.63,12.11,0,1.66-1.34,3-3,3s-3-1.34-3-3c0-3.37-2.53-6.11-5.63-6.11h-23.98c-.87,0-1.71-.38-2.27-1.04-.09-.1-8.55-9.95-12.13-14.18-3.79-4.49-6.9-6.92-12.45-6.92H11.63c-3.11,0-5.63,2.74-5.63,6.12v93.17c0,3.37,2.53,6.12,5.63,6.12h120.64c1.66,0,3,1.34,3,3s-1.34,3-3,3Z" />
    <path class="st2" d="M132.37,117.4s-.12,0-.14,0H11.63c-6.41,0-11.63-4.8-11.63-10.7,0-.42.09-.83.26-1.21.99-2.24,24.22-54.87,27.04-59.65.31-.53.6-1.04.88-1.52,2.25-3.93,4.38-7.65,10.34-7.65l120.62-.65c6.43,0,11.65,4.8,11.65,10.7,0,.4-.08.79-.23,1.15-2.15,5.17-21.08,50.65-24.11,55.56-.56.9-1.12,1.95-1.71,3.05-2.61,4.87-5.87,10.92-12.37,10.92ZM6.04,107.25c.33,2.33,2.71,4.15,5.59,4.15h120.73c2.71,0,4.64-3.22,7.09-7.76.61-1.13,1.24-2.3,1.89-3.36,2.08-3.37,15.04-33.94,23.41-54.08-.31-2.35-2.7-4.18-5.6-4.18l-120.62.65c-2.31,0-2.89.7-5.15,4.63-.29.51-.59,1.04-.92,1.59-2.16,3.66-19.53,42.73-26.43,58.36Z" />
  </g>
  <metadata></metadata>
</svg>