<?xml version="1.0" encoding="UTF-8"?>
<svg id="Layer_1" xmlns="http://www.w3.org/2000/svg" version="1.1" xmlns:i="http://ns.adobe.com/AdobeIllustrator/10.0/" viewBox="0 0 200.48 118.95">
  <defs>
    <style>
      .st0 {
        fill: #e1bbc8;
      }

      .st1 {
        fill: none;
        stroke: #424248;
        stroke-miterlimit: 10;
        stroke-width: 6.71px;
      }

      .st2 {
        fill: #290f87;
      }
    </style>
  </defs>
  <path class="st0" d="M9.6,45.23l4.04,2.78,5.31-7.07s40.67,5.56,47.49,13.39c0,0,46.99-11.12,55.33-5.81,8.34,5.31,1.52,16.17,1.52,16.17l6.16.22s7.23-31.55,38.55-25.23l18.95,6.82,1.52-6.32s-7.07-7.83-21.98-8.59c0,0-20.72-1.77-27.54,6.57l7.33-5.81s-26.53-17.68-40.93-5.81c0,0-23.75,19.2-33.09,18.44l-52.55-11.37-10.11,11.62Z" />
  <path class="st1" d="M-480.88,79.74" />
  <path class="st2" d="M34.29,77.89c-3.52,0-6.38,2.88-6.38,6.42s2.86,6.49,6.38,6.49,6.38-2.91,6.38-6.49-2.86-6.42-6.38-6.42ZM34.29,87.43c-1.65,0-3-1.4-3-3.11s1.32-3.04,3-3.04,3,1.34,3,3.04-1.34,3.11-3,3.11Z" />
  <path class="st2" d="M34.29,66.26c-9.87,0-17.89,8.1-17.89,18.05s8.03,18.12,17.89,18.12,17.89-8.13,17.89-18.12-8.03-18.05-17.89-18.05ZM34.29,99.05c-8,0-14.51-6.61-14.51-14.74s6.51-14.67,14.51-14.67,14.51,6.58,14.51,14.67-6.51,14.74-14.51,14.74Z" />
  <path class="st2" d="M168.46,66.34h0c-4.72-.6-9.39.66-13.15,3.57-3.83,2.96-6.27,7.25-6.88,12.09-1.26,9.88,5.67,18.95,15.45,20.21.77.1,1.54.15,2.31.15,3.91,0,7.69-1.29,10.84-3.72,3.82-2.96,6.27-7.25,6.88-12.09,1.26-9.87-5.67-18.94-15.45-20.21ZM180.56,86.13c-.5,3.94-2.49,7.44-5.6,9.84-3.05,2.36-6.84,3.39-10.65,2.89-7.93-1.02-13.56-8.4-12.53-16.44.5-3.94,2.49-7.44,5.6-9.84,2.55-1.97,5.61-3.01,8.78-3.01.62,0,1.24.04,1.87.12,7.94,1.03,13.56,8.4,12.53,16.43Z" />
  <path class="st2" d="M166.99,77.91s0,0,0,0c-1.69-.22-3.38.23-4.73,1.27-1.36,1.05-2.23,2.58-2.45,4.31-.22,1.69.23,3.37,1.27,4.72,1.04,1.36,2.56,2.23,4.27,2.45.28.04.56.05.83.05,3.17,0,5.93-2.35,6.35-5.57.45-3.52-2.03-6.77-5.54-7.23ZM169.18,84.71c-.21,1.65-1.76,2.82-3.39,2.6-.81-.1-1.53-.52-2.02-1.16-.49-.64-.7-1.42-.6-2.23.11-.83.52-1.57,1.16-2.06.53-.41,1.16-.62,1.83-.62.13,0,.27,0,.4.03,1.66.22,2.84,1.77,2.63,3.45Z" />
  <path class="st2" d="M197.71,82.42c-.11-1.61-.33-3.21-.65-4.77,1.56-.82,2.3-2.72,1.66-4.54l-1.85-4.33c-.32-.85-1-1.55-1.86-1.91-.78-.33-1.66-.36-2.46-.09-.89-1.38-1.87-2.68-2.93-3.89.45-.67.64-1.49.54-2.3-.11-.93-.61-1.79-1.34-2.35l-3.76-2.92c-.76-.58-1.69-.82-2.64-.68-.01,0-.03.01-.04.01v-8.83c1.57.73,3.17,1.52,4.8,2.4.66.36,1.48.24,2-.3l4.15-4.19c.64-.65.65-1.68.03-2.35-8.55-9.13-19.03-12.1-28.11-12.57-2.07-4.4-3.85-7.25-6.07-10.77-.56-.89-1.14-1.81-1.76-2.82-.33-.52-.85-.82-1.52-.8-11.3.57-12.22-.38-18.16-6.56-1.37-1.43-2.98-3.11-5.01-5.07-.31-.3-.72-.47-1.14-.48l-5.5-.11c-.11-.23-.24-.45-.41-.64-.5-.56-1.21-.88-1.88-.88h0L106.99,0s-.04,0-.07,0c-1.46,0-2.7,1.24-2.69,2.63l-.27,5.89c0,1.53,1.21,2.77,2.62,2.77h0l16.8.68c1.01,0,1.84-.53,2.32-1.29l3.02.15,7.59,13.72c-4.14-2.48-8.26-4.93-12.42-7.43-5.57-3.2-12.95,2.67-22.31,10.08-1.57,1.24-3.17,2.51-4.81,3.77-6.24,2.36-14.68,4.53-18.56,3.74l-49.58-10.34c-3.77-.84-5.72,4.64-6.92,8.48-1.52-.21-2.91-.38-4.11-.47-.61-.04-1.2.24-1.54.75-1.34,2.03-2.68,4.04-4.01,6.05-1.34,2.01-2.68,4.03-4.02,6.06-.51.77-.3,1.81.47,2.33l6.62,4.46c.76.51,1.79.32,2.32-.43,1.47-2.08,2.89-4.15,4.3-6.23,1.36.22,2.99.44,4.81.67l.29,7.3c-1,.25-2.01.53-3.02.88-1.03-1.48-3.01-1.97-4.65-1.08l-4.13,2.39c-1.55.96-2.12,2.87-1.35,4.57-1.23,1.07-2.37,2.23-3.41,3.44-.73-.36-1.55-.44-2.36-.24-.91.23-1.7.82-2.17,1.63l-2.28,4.09c-.5.76-.66,1.72-.43,2.63.21.86.75,1.61,1.43,2.05-.53,1.49-.94,3.04-1.23,4.7-1.82.13-3.25,1.65-3.25,3.51v4.8c0,1.83,1.47,3.38,3.26,3.51.29,1.62.7,3.16,1.22,4.66-1.53,1.09-1.99,3.1-1.05,4.64l2.32,4.08c.45.84,1.24,1.47,2.16,1.71.81.21,1.67.13,2.41-.23,1.03,1.23,2.17,2.38,3.39,3.42-.38.76-.46,1.66-.22,2.5.25.9.84,1.64,1.59,2.05l4.14,2.47c1.59.86,3.57.38,4.61-1.1,1.55.55,3.1.97,4.63,1.26.15,1.8,1.66,3.23,3.49,3.23h4.69c1.83,0,3.34-1.42,3.48-3.23,1.52-.29,3.07-.71,4.62-1.25.44.66,1.09,1.15,1.87,1.38.91.27,1.91.17,2.8-.32l4.03-2.4c.81-.44,1.39-1.18,1.65-2.09.24-.84.15-1.75-.22-2.49,1.22-1.04,2.36-2.19,3.39-3.42.71.35,1.51.44,2.27.26.92-.22,1.73-.82,2.27-1.7l2.32-4.08c.95-1.56.52-3.53-1.03-4.67.53-1.5.93-3.04,1.23-4.67,1.79-.13,3.26-1.68,3.26-3.51v-4.8c0-.95-.38-1.8-.98-2.43h5.94c.7,2,2.57,3.45,4.8,3.45h33.81c2.22,0,4.1-1.45,4.8-3.45h15.3l-.35,2.74c-.13.91.12,1.85.68,2.59.51.67,1.22,1.13,2.05,1.31.11,1.63.33,3.25.66,4.83-1.56.76-2.32,2.65-1.68,4.47l1.81,4.41c.37.87,1.05,1.54,1.91,1.88.79.32,1.66.33,2.41.08.85,1.31,1.84,2.6,2.96,3.87-.44.67-.64,1.49-.54,2.3.11.93.61,1.79,1.34,2.35l3.76,2.92c.76.58,1.7.82,2.63.68.81-.12,1.53-.5,2.09-1.12,1.43.73,2.91,1.34,4.44,1.81-.12,1.84,1.16,3.43,3.02,3.68l4.67.61c.16.02.31.03.46.03,1.62,0,3.06-1.16,3.41-2.83,1.59-.08,3.19-.29,4.75-.62.39.76,1.02,1.35,1.79,1.66.85.34,1.8.32,2.65-.04l4.36-1.83c1.66-.72,2.5-2.51,1.97-4.34,1.37-.92,2.62-1.9,3.77-2.95,1.49.97,3.54.64,4.72-.82l2.81-3.78c1.12-1.5.88-3.61-.44-4.74.71-1.45,1.32-2.96,1.83-4.51,1.85.06,3.36-1.22,3.62-3.04l.6-4.73c.24-1.85-.96-3.56-2.74-3.95ZM122.86,6.77l-.07,1.79-15.42-.62.21-4.53,15.38.62-.09,2.75ZM131.23,8.38c-.28-.51-.81-.84-1.39-.87l-3.62-.19v-.22s.07-1.52.07-1.52l4.57.09c1.77,1.73,3.21,3.23,4.45,4.52,6.35,6.61,8.25,8.13,19.77,7.64.44.7.85,1.36,1.25,2,1.89,3,3.45,5.48,5.15,8.89-5.5.11-10.24,1.02-13.72,1.95-.14.04-.26.07-.39.1-.15.04-.3.08-.44.12-1.6-.95-3.22-1.93-4.83-2.89l-10.86-19.63ZM27.92,27.69l49.62,10.35c2.81.57,6.76,0,10.45-.85-1.98,1.25-4.01,2.4-6.06,3.36-.01,0-.03.01-.04.02-.99.46-1.99.88-2.99,1.25-.08.03-.15.05-.23.08-.97.35-1.94.65-2.91.88,0,0-.02,0-.03,0-.13.03-.3.05-.51.06-1.91.05-7.16-.86-13.25-2.06-4.13-.82-8.65-1.77-12.78-2.64-8.54-1.8-17.27-3.63-24.07-4.75,1.52-4.62,2.43-5.57,2.81-5.7ZM21.27,41.88c-.65-.12-1.33.16-1.7.71-1.29,1.91-2.59,3.81-3.92,5.72l-3.86-2.6c1.03-1.55,2.06-3.1,3.09-4.65,1.15-1.73,2.31-3.47,3.46-5.21,1.25.13,2.69.31,4.26.55.02,0,.04.02.06.02,6.95,1.06,16.52,3.07,25.78,5.01,7.05,1.48,12.79,2.67,17.24,3.49.12.02.23.04.35.06.47.09.93.17,1.37.25.19.03.38.06.56.1.35.06.69.12,1.02.17.2.03.39.06.59.09.3.05.59.09.87.13.18.03.36.05.53.08.28.04.56.08.82.11.14.02.29.04.43.05.29.03.56.06.82.09.1,0,.2.02.3.03.68.06,1.28.1,1.79.1.02,0,.03,0,.05,0,.12,0,.22,0,.32-.01.15,0,.3,0,.43-.02.12-.01.22-.03.33-.05.08-.01.18-.02.25-.04,0,0,.02,0,.03,0,.87-.21,1.74-.47,2.61-.76.16-.06.33-.11.49-.17.89-.31,1.78-.66,2.67-1.05.01,0,.03-.01.04-.02,7.53-3.29,14.78-9.02,21.32-14.2,7.7-6.1,14.97-11.84,18.5-9.82,5.93,3.55,11.84,7.08,17.74,10.61.03.02.05.06.08.08l3.21,1.9c-3.57,2.17-9.84,7.07-15.4,16.98-.46.81-.17,1.84.65,2.3.26.15.55.22.83.22.59,0,1.17-.31,1.48-.86,7.3-13.01,15.9-16.7,16.47-16.94,1.19-.35,2.41-.65,3.65-.93.28-.06.55-.12.84-.18,1.09-.22,2.19-.41,3.3-.56.36-.05.74-.1,1.12-.15,1.14-.14,2.28-.25,3.42-.32.41-.02.84-.03,1.26-.04.75-.03,1.5-.03,2.24-.03,8.45.08,18.48,2.32,26.73,10.39l-2.1,2.12c-2.11-1.1-4.18-2.07-6.21-2.92-.04-.02-.07-.05-.12-.07-.22-.09-.43-.16-.65-.25-1.11-.45-2.2-.88-3.28-1.26-.52-.18-1.04-.34-1.56-.51-.68-.22-1.35-.42-2.02-.6-.83-.23-1.66-.44-2.48-.63-.59-.13-1.18-.26-1.76-.37-.68-.13-1.36-.24-2.03-.34-.75-.11-1.49-.19-2.23-.25-.54-.05-1.07-.08-1.6-.1-.85-.04-1.69-.05-2.52-.02-.46.01-.92.05-1.37.08-.74.05-1.46.13-2.18.23-.47.07-.94.15-1.41.24-.73.14-1.44.3-2.15.49-.3.08-.6.15-.89.24-.64.2-1.28.41-1.91.65-.25.1-.49.21-.74.31-.15.06-.31.1-.46.17-.1.04-.18.1-.28.14-.89.4-1.76.85-2.62,1.35-.2.11-.39.23-.59.35-.88.54-1.73,1.12-2.57,1.76-.15.11-.3.23-.45.35-.86.68-1.7,1.41-2.51,2.2-.11.1-.21.21-.32.31-.84.83-1.65,1.72-2.43,2.67-.07.08-.14.17-.21.26-.8.99-1.58,2.03-2.33,3.14-.04.06-.08.13-.13.19-.77,1.15-1.5,2.35-2.21,3.62-.02.04-.04.08-.06.12-.72,1.3-1.41,2.67-2.07,4.1,0,.02-.02.04-.02.06-.67,1.46-1.3,2.98-1.91,4.57h-4.72c.53-6.87-.85-11.63-4.2-14.54-6.82-5.9-19.85-2.38-33.66,1.34-4.66,1.26-9.41,2.54-13.87,3.41-.14.03-.29.06-.43.09-.26.05-.51.09-.77.13-2.47.45-4.84.77-7.04.87-1.66-5.65-9.92-8.71-19.31-10.67-.46-.1-.93-.19-1.39-.28-.36-.07-.71-.14-1.07-.21-4.06-.77-8.21-1.35-12-1.84-.56-.07-1.12-.15-1.67-.22l-.88-.12s-.04,0-.06,0c-2.87-.37-5.35-.69-7.09-1.01ZM65.09,86.88h-1.2c-.84,0-1.56.62-1.67,1.46-.33,2.4-.91,4.59-1.77,6.69-.33.8,0,1.72.76,2.13l1.01.72-2.48,4.19-1.01-.61c-.74-.45-1.7-.26-2.23.43-1.38,1.84-3.01,3.48-4.83,4.88-.66.51-.86,1.43-.45,2.16l.54,1.24-4.24,2.35-.6-1.01c-.42-.72-1.3-1.01-2.08-.71-2.27.9-4.44,1.49-6.63,1.79-.84.11-1.46.83-1.46,1.67l-.12,1.28-4.8-.14v-1.15c0-.85-.62-1.56-1.46-1.67-2.19-.3-4.36-.89-6.63-1.79-.21-.08-.42-.12-.62-.12-.58,0-1.14.3-1.45.83l-.76,1.1-4.14-2.59.6-1.08c.41-.73.22-1.65-.45-2.16-1.82-1.4-3.45-3.04-4.83-4.88-.52-.7-1.48-.88-2.23-.43l-1.13.54-2.34-4.3,1.01-.54c.76-.41,1.09-1.33.77-2.13-.86-2.1-1.44-4.29-1.77-6.69-.12-.84-.83-1.46-1.67-1.46l-1.32-.13.12-4.94h1.21c.85,0,1.56-.63,1.67-1.47.33-2.45.9-4.64,1.76-6.67.33-.77.03-1.67-.68-2.1l-1.07-.77,2.54-4.14,1,.54c.72.39,1.63.2,2.14-.45,1.4-1.79,3.04-3.45,4.88-4.93.66-.53.83-1.46.4-2.18l-.56-.95s-.08-.18.03-.24l4.04-2.34c.09-.05.17-.03.22.05l.6,1.01c.42.72,1.3,1.01,2.08.71,2.15-.85,4.2-1.41,6.27-1.73.12-.02.23-.04.34-.06,0,0,0,0,0,0,0,0,.01,0,.02,0,.08-.01.15-.05.23-.07.12-.03.24-.06.35-.11.07-.04.12-.1.18-.14.1-.07.2-.14.28-.23.07-.08.1-.17.16-.26.05-.08.12-.16.15-.25.07-.19.11-.39.11-.6l.12-1.28,4.8.07v1.22c0,.85.62,1.56,1.46,1.67,2.19.3,4.36.88,6.63,1.79.77.3,1.65,0,2.08-.71l.78-1.09,4.04,2.34c.14.09.1.21.11.21,0,0,0,0,0,0l-.6,1.01c-.43.73-.26,1.66.4,2.18,1.84,1.48,3.48,3.13,4.88,4.92.51.66,1.41.85,2.14.45l1.2-.6,2.27,4.36-1,.61c-.18.11-.33.24-.45.4-.04.05-.05.1-.08.15-.07.12-.15.23-.19.36-.02.06-.02.13-.03.2-.03.12-.06.25-.05.38,0,.07.03.15.04.22.02.11.02.23.07.34.02.05.04.12.06.18.33.79.59,1.62.83,2.46.12.4.23.82.33,1.24.22.91.42,1.84.56,2.84.11.84.83,1.47,1.67,1.47l1.32.13-.12,4.94ZM113.87,77.82c0,.95-.79,1.76-1.72,1.76h-33.81c-.93,0-1.72-.8-1.72-1.76v-8.79c0-.95.79-1.76,1.72-1.76h33.81c.93,0,1.72.8,1.72,1.76v8.79ZM134.63,74.73c-.23.1-.44.22-.65.37-.1.07-.2.13-.29.21-.1.09-.19.19-.28.29-.1.11-.19.22-.27.34-.05.07-.11.12-.15.19h-15.74v-7.1c0-2.83-2.29-5.14-5.1-5.14h-33.81c-2.81,0-5.1,2.3-5.1,5.14v7.1h-8.41c-.21-.82-.45-1.62-.73-2.4,0,0,0,0,0,0,.35-.24.65-.53.89-.87,0,0,0-.01.01-.02.24-.34.42-.73.52-1.14.23-.91.07-1.87-.37-2.53l-2.41-4.3c-1.02-1.54-2.97-2.06-4.47-1.29-1.04-1.21-2.17-2.36-3.4-3.44.78-1.65.22-3.59-1.4-4.59l-4.13-2.39c-.83-.46-1.84-.56-2.74-.29-.8.24-1.47.74-1.88,1.38-1.55-.54-3.09-.96-4.61-1.25-.12-1.8-1.64-3.23-3.49-3.23h-4.69c-.3,0-.59.05-.86.12-.07.02-.14.04-.22.06-.24.08-.47.17-.68.3-.02.01-.05.02-.07.03l-.15-3.77c.25.03.51.07.76.1,10.84,1.46,28.05,4.07,30.61,10.15,0,.01,0,.02.01.03.17.41.27.83.3,1.27.06.89.8,1.58,1.69,1.58,7.16,0,15.92-2.37,24.4-4.66,12.35-3.33,25.11-6.78,30.56-2.05,2.74,2.37,3.68,6.78,2.87,13.47-.06.48.09.96.42,1.32.32.36.78.57,1.26.57h7.77c.18,0,.35-.03.51-.08.08-.03.15-.07.23-.11.08-.04.16-.07.23-.11.02-.01.03-.03.05-.04.25-.19.46-.45.57-.76.57-1.56,1.16-3.06,1.79-4.48,0,0,0-.02.01-.03.62-1.4,1.26-2.74,1.93-4.01.02-.04.04-.08.06-.11.66-1.24,1.35-2.4,2.06-3.51.04-.07.08-.13.12-.2.69-1.07,1.42-2.08,2.16-3.03.07-.09.14-.18.21-.27.72-.91,1.47-1.75,2.24-2.55.11-.11.21-.22.32-.32.75-.75,1.52-1.45,2.31-2.09.14-.12.29-.23.43-.35.77-.6,1.56-1.16,2.37-1.66.19-.12.37-.23.56-.34.79-.47,1.6-.89,2.42-1.26.24-.11.48-.2.72-.3.69-.29,1.4-.55,2.12-.77.31-.1.62-.18.94-.26.61-.16,1.23-.3,1.86-.43.34-.07.68-.14,1.03-.19.76-.11,1.53-.19,2.31-.25.41-.03.84-.04,1.26-.05.57-.02,1.15-.01,1.73,0,.64.02,1.3.06,1.95.11.5.04,1.01.09,1.53.16.5.06,1.01.13,1.52.21.79.13,1.59.29,2.4.48.53.12,1.06.25,1.6.4.61.16,1.22.34,1.84.52.67.2,1.35.42,2.04.66.72.25,1.44.51,2.18.79.26.1.52.2.78.3v10.78s-.04-.02-.07-.03c-1.01-.45-2.02-.86-3.04-1.18.01-.21-.05-.41-.07-.61-.02-.2-.01-.41-.07-.61-.12-.4-.31-.77-.56-1.11-.57-.75-1.39-1.23-2.32-1.35l-4.68-.61c-.9-.12-1.81.12-2.53.67-.67.51-1.14,1.27-1.33,2.12-1.59.08-3.2.29-4.76.63-.41-.77-1.1-1.37-1.93-1.68-.86-.32-1.77-.28-2.52.06l-4.37,1.83c-.89.38-1.59,1.12-1.94,2.01-.3.78-.31,1.61-.04,2.34-1.37.92-2.61,1.9-3.76,2.94-1.49-.97-3.54-.64-4.72.81l-2.84,3.8c-1.14,1.4-.94,3.49.45,4.76-.71,1.44-1.31,2.94-1.81,4.48-.27-.01-.52.02-.78.07-.13.02-.26.06-.39.1-.11.04-.22.08-.32.13ZM196.36,90.75l-1.14-.14c-.81-.1-1.6.42-1.82,1.22-.63,2.24-1.51,4.4-2.6,6.42-.38.7-.22,1.57.39,2.09l.87.74s.05.26.08.28l-2.95,3.81-.94-.74c-.68-.53-1.64-.48-2.25.13-1.57,1.58-3.35,2.98-5.45,4.28-.71.44-.99,1.34-.66,2.11l.43.97c.07.19-.04.23-.07.24l-4.49,1.77-.47-1.08c-.33-.77-1.18-1.18-1.99-.96-2.18.58-4.52.89-6.79.89-.86,0-1.59.65-1.68,1.51l-.24,1.28-4.76-.77.13-1.22c.09-.84-.45-1.62-1.27-1.82-2.22-.56-4.34-1.43-6.32-2.59-.27-.16-.56-.23-.85-.23-.53,0-1.05.25-1.38.71l-.8.93-3.74-3.1.67-.95c.47-.66.4-1.56-.15-2.14-1.71-1.79-3.11-3.64-4.18-5.49-.42-.72-1.29-1.03-2.06-.74l-1.07.41s0,0-.02,0c-.06,0-.21-.02-.23-.01l-1.68-4.57,1.07-.47c.75-.33,1.16-1.16.95-1.96-.57-2.23-.89-4.57-.95-6.93-.02-.84-.66-1.53-1.49-1.63l-1.2-.27.6-4.73c.01-.11.09-.17.03-.18l1.14.2c.87.16,1.69-.37,1.93-1.22.62-2.25,1.49-4.43,2.6-6.47.39-.72.21-1.62-.43-2.13l-.97-.91,3.02-3.88.94.74c.67.54,1.64.48,2.25-.13,1.57-1.58,3.35-2.98,5.45-4.28.71-.44.99-1.34.66-2.11l-.36-1.22,4.49-1.77.47,1.08c.33.77,1.17,1.18,1.99.96,2.18-.58,4.53-.89,6.79-.89.86,0,1.58-.64,1.68-1.49l.25-1.29,4.76.78-.13,1.22c-.04.38.06.73.24,1.04.02.03.03.07.05.11.05.08.13.13.19.19.07.08.14.16.23.23.05.04.12.05.18.08.12.06.23.14.37.17,2.07.54,4.11,1.37,6.23,2.55,0,0,0,0,.01,0,.04.02.07.04.1.06.75.43,1.71.22,2.21-.49l.8-.93,3.74,3.1-.67.95c-.47.66-.4,1.56.16,2.14,1.58,1.65,2.98,3.53,4.19,5.57.44.74,1.36,1.04,2.14.69l1.18-.41,1.84,4.29c.04.12.02.28-.01.29l-1.07.41c-.8.31-1.25,1.16-1.04,2,.57,2.23.89,4.57.95,6.93.02.84.66,1.53,1.49,1.63l1.2.34-.74,4.82Z" />
  <metadata></metadata>
</svg>