<?xml version="1.0" encoding="UTF-8"?>
<svg id="Layer_1" xmlns="http://www.w3.org/2000/svg" version="1.1" xmlns:i="http://ns.adobe.com/AdobeIllustrator/10.0/" viewBox="0 0 168.13 166.3">
  <defs>
    <style>
      .st0 {
        fill: #f8a83a;
      }

      .st1 {
        fill: #290f87;
      }
    </style>
  </defs>
  <path class="st0" d="M52.55,61.39s61.08.41,65.21-3.59c0,0,.47,21.02,2.3,23.29l-36.82-4.55-37.96,3.79,7.26-18.95Z" />
  <path class="st1" d="M109.31,57.8h-50.5c-1,0-1.95-.47-2.55-1.26-.61-.8-.81-1.83-.54-2.8l4.45-16.26c.38-1.4,1.65-2.36,3.1-2.36h41.6c1.45,0,2.72.97,3.1,2.36l4.45,16.26c.26.97.06,2-.54,2.8-.61.8-1.55,1.26-2.55,1.26ZM63.02,51.38h42.08l-2.69-9.84h-36.7l-2.69,9.84Z" />
  <path class="st1" d="M84.06,41.54c-1.77,0-3.21-1.44-3.21-3.21v-18.78c0-1.77,1.44-3.21,3.21-3.21s3.21,1.44,3.21,3.21v18.78c0,1.77-1.44,3.21-3.21,3.21Z" />
  <path class="st1" d="M76.22,29.58c-4.18,0-8.21-1.5-11.96-2.89-6.71-2.49-11.06-3.85-15.66-.43-.98.72-2.28.84-3.36.29-1.08-.55-1.77-1.66-1.77-2.87V5.9c0-1.02.48-1.97,1.3-2.58,7.63-5.66,15.12-2.88,21.72-.43,6.71,2.49,11.06,3.84,15.66.43.97-.73,2.27-.84,3.36-.29,1.08.55,1.77,1.66,1.77,2.87v17.79c0,1.02-.48,1.97-1.3,2.58-3.3,2.45-6.57,3.32-9.76,3.32ZM54.53,17.79c4.18,0,8.21,1.5,11.96,2.89,6.08,2.26,10.22,3.58,14.36,1.27v-10.83c-5.83,1.79-11.48-.31-16.59-2.21-6.08-2.26-10.22-3.58-14.36-1.27v10.83c1.56-.48,3.11-.68,4.63-.68Z" />
  <path class="st1" d="M125.91,90.75c-.25,0-.51-.03-.76-.09l-41.09-9.98-41.09,9.98c-1.05.25-2.15-.03-2.94-.77-.79-.73-1.16-1.81-.98-2.88l5.42-32.95c.26-1.55,1.6-2.69,3.17-2.69h72.85c1.57,0,2.91,1.14,3.17,2.69l5.42,32.95c.18,1.06-.19,2.14-.98,2.88-.6.56-1.38.86-2.18.86ZM84.06,74.17c.25,0,.51.03.76.09l37.13,9.02-4.19-25.47H50.36l-4.19,25.47,37.13-9.02c.25-.06.5-.09.76-.09Z" />
  <path class="st1" d="M28.68,94.04c-1.77,0-3.21-1.44-3.21-3.21v-6.07c0-1.77,1.44-3.21,3.21-3.21s3.21,1.44,3.21,3.21v6.07c0,1.77-1.44,3.21-3.21,3.21Z" />
  <path class="st1" d="M139.44,94.04c-1.77,0-3.21-1.44-3.21-3.21v-6.07c0-1.77,1.44-3.21,3.21-3.21s3.21,1.44,3.21,3.21v6.07c0,1.77-1.44,3.21-3.21,3.21Z" />
  <path class="st1" d="M51.57,166.3c-3.75,0-7.26-2.48-9.78-4.26-4.85-3.42-6.18-3.77-7.92-2.05-.76.74-1.84,1.07-2.88.86-1.04-.21-1.91-.92-2.33-1.9-7.27-17.22-11.3-39.39-11.98-65.9-.04-1.51.98-2.85,2.45-3.2l64.18-15.59c.5-.12,1.02-.12,1.52,0l64.18,15.59c1.47.36,2.49,1.69,2.45,3.2-.76,29.25-5.57,53.15-14.3,71.02-.34.71-.94,1.26-1.67,1.56-4.89,2.01-9.3-1.11-12.85-3.61-5.53-3.9-6.71-4-9-.76-6.35,8.97-13.61,3.84-17.95.77-5.53-3.91-6.71-4.01-9-.77-6.34,8.97-13.61,3.84-17.95.77-5.53-3.91-6.71-4.01-9-.77-2.66,3.76-5.47,5.04-8.17,5.04ZM35.75,152.53c3.69,0,7.14,2.43,9.73,4.26,5.53,3.9,6.71,4,9,.76,6.35-8.97,13.61-3.84,17.95-.77,5.53,3.9,6.71,4.01,9,.77,6.34-8.97,13.61-3.84,17.95-.77,5.53,3.9,6.71,4.01,9,.77,6.35-8.97,13.61-3.84,17.95-.78,2.45,1.73,4.3,2.96,5.72,3.06,7.65-16.36,11.98-37.99,12.9-64.36l-60.89-14.79-60.89,14.79c.79,22.79,4.15,42.09,10,57.48.87-.29,1.73-.42,2.58-.42Z" />
  <path class="st1" d="M78.52,166.3c-3.75,0-7.26-2.48-9.79-4.27-5.53-3.91-6.71-4.01-9-.77-6.35,8.97-13.61,3.84-17.95.77-5.53-3.91-6.71-4.01-9-.77-6.35,8.97-13.61,3.84-17.95.77-5.53-3.91-6.71-4.01-9-.77-1.03,1.45-3.03,1.79-4.48.77-1.45-1.02-1.79-3.03-.77-4.48,6.35-8.97,13.61-3.84,17.95-.77,5.53,3.9,6.71,4.01,9,.77,6.34-8.97,13.61-3.84,17.95-.77,5.53,3.9,6.71,4.01,9,.77,6.35-8.97,13.61-3.84,17.95-.77,5.53,3.9,6.71,4.01,9,.77,6.34-8.97,13.61-3.83,17.95-.77,5.53,3.9,6.71,4.01,9,.77,6.34-8.97,13.61-3.84,17.95-.77,5.53,3.9,6.7,4.01,9,.77,6.35-8.97,13.61-3.84,17.95-.77,5.53,3.9,6.7,4.01,9,.77,1.02-1.45,3.03-1.79,4.48-.77,1.45,1.02,1.79,3.03.77,4.48-6.34,8.97-13.61,3.84-17.95.77-5.53-3.91-6.71-4.01-9-.77-6.35,8.97-13.61,3.84-17.95.77-5.53-3.91-6.71-4.01-9-.77-6.35,8.97-13.61,3.84-17.95.77-5.53-3.91-6.71-4.01-9-.77-2.65,3.75-5.47,5.04-8.16,5.04Z" />
  <path class="st1" d="M84.06,160.81c-1.77,0-3.21-1.44-3.21-3.21v-80.22c0-1.77,1.44-3.21,3.21-3.21s3.21,1.44,3.21,3.21v80.22c0,1.77-1.44,3.21-3.21,3.21Z" />
  <path class="st1" d="M38.1,109.51c-1.37,0-2.63-.88-3.06-2.25-.53-1.69.41-3.49,2.1-4.02l18.4-5.77c1.69-.53,3.49.41,4.03,2.1.53,1.69-.41,3.49-2.1,4.02l-18.4,5.77c-.32.1-.64.15-.96.15Z" />
  <path class="st1" d="M130.02,109.51c-.32,0-.64-.05-.96-.15l-18.41-5.77c-1.69-.53-2.63-2.33-2.1-4.02.53-1.69,2.33-2.64,4.03-2.1l18.41,5.77c1.69.53,2.63,2.33,2.1,4.02-.43,1.37-1.7,2.25-3.06,2.25Z" />
  <metadata></metadata>
</svg>