<?xml version="1.0" encoding="UTF-8"?>
<svg id="Layer_1" xmlns="http://www.w3.org/2000/svg" version="1.1" xmlns:i="http://ns.adobe.com/AdobeIllustrator/10.0/" viewBox="0 0 128.67 113.69">
  <defs>
    <style>
      .st0 {
        stroke: #424248;
        stroke-miterlimit: 10;
        stroke-width: 6.71px;
      }

      .st0, .st1 {
        fill: none;
      }

      .st1 {
        stroke: #290f87;
        stroke-linecap: round;
        stroke-linejoin: round;
        stroke-width: 5px;
      }

      .st2 {
        fill: #00f5ff;
      }

      .st3 {
        fill: #290f87;
      }
    </style>
  </defs>
  <path class="st2" d="M3.13,43.77l120,4.29,2.02-17.94s-3.28-8.59-36.63-6.82l-59.37-.76s-22.48.76-22.23,6.32l-3.79,14.91Z" />
  <path class="st0" d="M-987.81,80.3" />
  <path class="st3" d="M120.56,18.57h-32.69v-8.67c0-5.46-4.44-9.9-9.9-9.9h-27.28c-5.46,0-9.9,4.44-9.9,9.9v8.67H8.11c-4.47,0-8.11,3.64-8.11,8.11v78.9c0,4.47,3.64,8.11,8.11,8.11h112.46c4.47,0,8.11-3.64,8.11-8.11V26.68c0-4.47-3.64-8.11-8.11-8.11ZM46.8,9.9c0-2.15,1.75-3.9,3.9-3.9h27.28c2.15,0,3.9,1.75,3.9,3.9v8.67h-35.07v-8.67ZM122.67,105.58c0,1.16-.94,2.11-2.11,2.11H8.11c-1.16,0-2.11-.94-2.11-2.11v-52.97h46.61v7.14h6v-7.14h11.45v7.14h6v-7.14h46.61v52.97ZM122.67,46.61h-46.61v-6.57h-6v6.57h-11.45v-6.57h-6v6.57H6v-19.93c0-1.16.94-2.11,2.11-2.11h112.46c1.16,0,2.11.94,2.11,2.11v19.93Z" />
  <path class="st1" d="M56.91,93.42c1.35,1.76,3.72,2.93,6.42,2.93,4.19,0,7.59-2.82,7.59-6.29,0-3.29-3.06-5.89-6.93-6.27h0c-3.53-.25-6.29-2.71-6.29-5.69,0-3.16,3.09-5.71,6.89-5.71,2.42,0,4.54,1.03,5.77,2.59" />
  <line class="st1" x1="63.92" y1="96.61" x2="63.92" y2="101.06" />
  <line class="st1" x1="63.92" y1="67.34" x2="63.92" y2="71.98" />
  <metadata></metadata>
</svg>