<?xml version="1.0" encoding="UTF-8"?>
<svg id="Layer_1" xmlns="http://www.w3.org/2000/svg" version="1.1" xmlns:i="http://ns.adobe.com/AdobeIllustrator/10.0/" viewBox="0 0 129.12 129.12">
  <defs>
    <style>
      .st0 {
        fill: #deccb8;
      }

      .st1 {
        fill: none;
        stroke: #290f87;
        stroke-linecap: round;
        stroke-linejoin: round;
        stroke-width: 6px;
      }
    </style>
  </defs>
  <rect class="st0" x="14.18" y="6.92" width="108.93" height="108.93" rx="10.47" ry="10.47" transform="translate(4.24 -4.43) rotate(3.81)" />
  <g>
    <path class="st1" d="M16.19,3h96.74c7.28,0,13.19,5.91,13.19,13.19v96.74c0,7.28-5.91,13.19-13.19,13.19H16.19c-7.28,0-13.19-5.91-13.19-13.19V16.19c0-7.28,5.91-13.19,13.19-13.19Z" />
    <line class="st1" x1="64.56" y1="3" x2="64.56" y2="126.12" />
    <line class="st1" x1="126.12" y1="64.56" x2="3" y2="64.56" />
    <line class="st1" x1="33.78" y1="22.79" x2="33.78" y2="44.77" />
    <line class="st1" x1="44.77" y1="33.78" x2="22.79" y2="33.78" />
    <line class="st1" x1="106.33" y1="33.78" x2="84.35" y2="33.78" />
    <g>
      <line class="st1" x1="106.33" y1="88.57" x2="84.35" y2="88.57" />
      <line class="st1" x1="106.33" y1="102.12" x2="84.35" y2="102.12" />
    </g>
    <line class="st1" x1="41.55" y1="87.57" x2="26.01" y2="103.11" />
    <line class="st1" x1="41.55" y1="103.11" x2="26.01" y2="87.57" />
  </g>
  <metadata></metadata>
</svg>