<?xml version="1.0" encoding="UTF-8"?>
<svg id="Layer_1" xmlns="http://www.w3.org/2000/svg" version="1.1" xmlns:i="http://ns.adobe.com/AdobeIllustrator/10.0/" viewBox="0 0 187.93 148">
  <defs>
    <style>
      .st0 {
        fill: #f8a83a;
      }

      .st1 {
        fill: #290f87;
      }
    </style>
  </defs>
  <path class="st0" d="M65.4,18.41s2.02,54.06,1.26,59.87c0,0-.51,8.59,11.37,6.32,0,0,52.8-1.77,58.86,3.03,0,0,17.94,21.22,16.93,20.72s2.27-15.41,8.08-18.19,15.66-3.03,15.66-3.03c0,0,.51-57.85,6.57-66.19,0,0,9.6-18.44-13.14-17.68,0,0-36.63,7.58-77.56,6.32,0,0-27.28-3.28-28.04,8.84Z" />
  <g>
    <path class="st1" d="M127.55,105.33v17.32c0,.14,0,.28,0,.41,0,.14-.04,1.02-.01.5.02-.5-.02.03-.04.13-.03.11-.05.22-.09.33-.03.11-.07.22-.1.33-.16.56.26-.45.06-.13-.16.26-.28.55-.45.81-.05.07-.17.2-.19.27.15-.47.33-.37.08-.13-.18.18-.36.35-.53.53-.33.32.12-.12.19-.13-.11.03-.25.17-.34.24-.21.13-.65.27-.81.44.04-.04.66-.24.21-.1-.11.03-.22.07-.33.1-.17.05-.34.08-.5.12-.21.05-.46-.01.24-.02-.24,0-.48.04-.72.04-.18,0-.36,0-.55,0H52.29c-2.02,0-4.03.28-5.76,1.44-1.96,1.32-3.31,3.43-4.75,5.26-1.85,2.35-3.7,4.7-5.54,7.05-.44.56-.86,1.12-1.31,1.67-.09.11-.46.39-.48.51.06-.27.5-.32.19-.16-.11.06-.25.12-.35.19-.27.2.69-.19.17-.09-.05.01-.1.03-.15.04-.3.06-.2.06.3-.02-.16-.01-.47-.03-.62.01.44-.14.61.14.22.02-.09-.03-.29-.12-.37-.11.36-.03.53.27.25.1-.1-.06-.23-.16-.34-.2-.3-.12.48.5.14.09-.15-.17-.38-.57,0,.07-.31-.51-.71-.99-1.06-1.48-.8-1.12-1.6-2.25-2.41-3.37-1.56-2.19-3.12-4.37-4.68-6.56-.97-1.36-2.04-2.62-3.56-3.4-1.63-.84-3.33-1.08-5.13-1.08-2.61,0-5.22,0-7.83,0-.11,0-.22,0-.33,0-.15,0-.3-.02-.44-.03-.4-.02.73.17.15.01-.28-.07-.55-.15-.83-.23-.56-.16.45.26.13.06-.12-.07-.25-.12-.38-.19-.2-.11-.38-.24-.57-.35-.48-.3.35.37.12.09-.09-.1-.21-.19-.31-.28-.08-.08-.16-.16-.23-.24-.06-.06-.11-.12-.17-.19-.14-.17-.08-.08.19.25-.08-.23-.33-.49-.45-.71-.05-.1-.1-.2-.15-.3-.23-.42.1.16.09.22.03-.15-.21-.65-.25-.82-.02-.11-.03-.24-.07-.34.21.63.04.38.02.06,0-.15,0-.29-.01-.44,0-.71,0-1.43,0-2.14V45.79c0-.54-.01-1.08,0-1.63,0-.14.07-.4.04-.53.02.06-.13.71-.02.24.06-.25.12-.5.2-.75.12-.35.25-.21-.07.13.05-.06.12-.24.15-.3.13-.25.28-.48.43-.72.3-.48-.37.35-.09.12.1-.09.19-.21.28-.31.08-.08.16-.16.24-.23.07-.06.5-.37.09-.1-.41.27.29-.18.4-.25.1-.06.2-.11.29-.16.1-.05.2-.1.3-.15-.12.05-.25.11-.37.16.15.03.65-.21.82-.25.11-.02.24-.03.34-.07-.63.21-.44.05-.15.03.16-.01.32-.01.48-.02.13,0,.25,0,.38,0h33.84c1.49,0,2.93-1.31,2.86-2.86-.07-1.55-1.26-2.86-2.86-2.86H13.97c-1.56,0-3.12,0-4.68,0-4.77.01-8.65,3.44-9.21,8.17-.09.74-.06,1.48-.06,2.22v70.84c0,2.17-.02,4.34,0,6.5.05,5,4.08,9.02,9.07,9.08,2.54.03,5.08,0,7.62,0,.38,0,.76,0,1.14,0,.02,0,.04,0,.06,0,.13,0,.26,0,.39.01.64.01-.5-.11-.09-.02.28.06.56.11.83.2-.02,0,.36.11.36.13-.39-.17-.45-.19-.17-.06.08.04.17.09.25.13.14.08.27.17.4.24.19.1.27.31-.12-.11.21.23.48.41.69.65.07.08.17.23.25.29-8.47-5.93-.24-.34-.21-.27,0,.02.02.03.03.05.15.24.33.46.49.68,1.64,2.3,3.28,4.6,4.92,6.9l2.31,3.23c.57.79,1.11,1.69,1.86,2.32,2.52,2.1,6.51,2.11,8.75-.46.4-.45.75-.95,1.12-1.42,1.83-2.33,3.67-4.66,5.5-6.99,1.28-1.63,2.49-3.44,4-4.87.29-.27-.58.35-.04.04.11-.06.21-.14.32-.2.14-.08.29-.15.42-.23.35-.2-.67.21-.06.03.25-.07.49-.16.74-.21.06-.01.13-.03.19-.04.25-.04.25-.04,0,0-.25.03-.25.04,0,.01.13,0,.26-.01.39-.01.04,0,.07,0,.11,0,.27,0,.54,0,.82,0h71.56c3.39,0,6.7-1.69,8.28-4.78,1.25-2.43,1.07-4.99,1.07-7.61v-14.4c0-1.49-1.31-2.93-2.86-2.86-1.55.07-2.86,1.26-2.86,2.86h0Z" />
    <path class="st1" d="M63.72,96.82h67.38c1.75,0,3.49,0,5.24,0,.05,0,.1,0,.14,0,0,0,.02,0,.02,0,.13,0,.26,0,.39.01.09,0,.42.06,0-.01-.47-.08.09.02.19.05.22.05.44.11.65.18.67.23-.32-.2.11.05.23.12.44.25.66.39.07.04.32.25.02,0-.35-.28.09.08.16.15.27.25.51.53.74.82,1.01,1.27,2,2.54,3,3.82,1.49,1.9,2.99,3.8,4.48,5.7.52.66,1.04,1.32,1.56,1.99.32.41.63.84,1.03,1.18,2.02,1.72,4.69,2.05,7.08.91,1.13-.54,1.91-1.48,2.62-2.48,1.1-1.55,2.2-3.09,3.31-4.64,1.33-1.86,2.65-3.72,3.98-5.58.31-.43.64-.85.92-1.29.1-.15.09.05-.18.22.16-.1.31-.36.45-.5.11-.11.66-.61.36-.33-.32.29.23-.13.34-.19.12-.07.73-.35.33-.19-.42.18.26-.08.37-.11.12-.03.24-.07.37-.09.1-.02.66-.13.18-.04-.44.08.24,0,.39,0,0,0,.02,0,.03,0,.08,0,.16,0,.25,0h4.65c2.09,0,4.46.25,6.48-.37,3.83-1.17,6.44-4.71,6.48-8.7,0-.39,0-.78,0-1.18V14.21c0-1.66,0-3.32,0-4.98,0-2.56-1-5.15-2.96-6.86-1.77-1.54-3.92-2.36-6.27-2.37-1.25,0-2.5,0-3.75,0h-108.08c-1.04,0-2.08,0-3.11,0-3.3.03-6.56,1.85-8.06,4.85-.73,1.47-1.04,3.02-1.04,4.65v77.55c0,.67.02,1.31.11,1.98.6,4.45,4.49,7.72,8.94,7.79,1.49.02,2.93-1.33,2.86-2.86-.07-1.57-1.26-2.83-2.86-2.86-.21,0-.41-.02-.62-.03-.38-.02.61.12.24.03-.08-.02-.17-.03-.25-.05-.2-.04-.39-.1-.58-.16-.11-.04-.47-.19-.06,0,.46.2-.06-.04-.12-.07-.17-.09-.34-.19-.51-.29-.07-.05-.14-.09-.21-.14-.4-.25.16.09.18.14-.04-.11-.35-.31-.43-.39-.11-.11-.55-.64-.27-.27.29.4-.1-.16-.16-.26-.1-.17-.19-.34-.29-.51-.33-.59.13.44,0-.02-.07-.22-.14-.43-.19-.66,0-.03-.04-.3-.07-.34.03.04.06.74.04.24,0-.18-.02-.36-.02-.53,0,0,0-.01,0-.02,0-.39,0-.77,0-1.16V9.37c0-.1,0-.2,0-.3,0-.15,0-.3.02-.45.05-.65-.13.47,0-.02.06-.22.1-.45.17-.67,0-.02.12-.28.11-.32,0,.01-.27.54-.12.29.1-.17.17-.35.27-.52.09-.15.33-.4.37-.56,0,.03-.39.42-.19.25.1-.08.19-.22.28-.31.13-.14.3-.26.43-.4.18-.21-.23.18-.25.19.07-.02.21-.15.27-.19.16-.11.33-.21.51-.3.07-.04.15-.07.23-.11.5-.27-.45.15-.14.06.19-.05.38-.13.57-.18.11-.03.8-.14.3-.08-.51.06.2,0,.32-.01.11,0,.12,0,.18,0,.07,0,.13,0,.2,0,1.25,0,2.5,0,3.74,0h107.6c1.16,0,2.32,0,3.48,0,.25,0,.5.02.75.03.38.02-.61-.12-.24-.03.08.02.17.03.25.05.22.05.44.12.66.19.46.14-.58-.31.02,0,.2.11.39.21.58.33.07.05.14.09.21.14.4.25-.16-.09-.18-.14.04.13.33.29.43.39.11.11.27.39.39.43-.05-.02-.4-.58-.14-.18.06.09.13.18.18.28.1.17.19.34.29.51.32.59-.13-.44,0,.02.07.22.14.43.19.66.02.08.03.17.05.25.09.33-.05-.75-.02-.15.01.19.02.38.02.57,0,.14,0,.28,0,.41v77.31c0,.32,0,.63,0,.95,0,.15,0,.3-.02.45-.05.7.12-.46,0,.02-.05.19-.09.39-.15.58-.03.11-.08.21-.11.32-.09.32.33-.64.06-.14-.16.29-.53.7-.61,1,0-.02.39-.44.19-.25-.08.07-.15.17-.22.25-.15.16-.34.3-.48.46-.18.21.23-.18.25-.19-.07.02-.21.15-.27.19-.16.11-.33.21-.51.3-.1.05-.21.09-.3.15-.25.15.28-.13.29-.12-.15-.03-.49.17-.65.21-.28.07-.9.06-.09.06-.18,0-.35.03-.53.04-.1,0-.2,0-.29,0-2.01,0-4.03,0-6.04,0-2.61,0-5.22-.11-7.52,1.41-1.78,1.17-2.89,2.92-4.1,4.62-1.36,1.91-2.72,3.81-4.08,5.72-.96,1.35-1.95,2.68-2.89,4.05-.02.03-.05.06-.07.1-.02.04.23-.3.23-.3,0,0-.2.21-.23.24-.31.36.41-.22.14-.09-.12.06-.4.18-.48.27.03-.03.56-.17.32-.15-.1,0-.21.06-.3.08-.58.16.54.02.07-.02-.08,0-.16,0-.23,0-.52,0,.1-.06.22.04-.05-.04-.75-.27-.26-.04.47.22-.12-.09-.22-.14-.32-.17.13-.12.19.16,0-.04-.15-.13-.18-.17-.09-.11-.19-.21-.29-.32-.07-.09-.14-.18-.22-.27-2.57-3.26-5.13-6.52-7.7-9.78-1.06-1.35-2.01-2.68-3.4-3.72-1.61-1.2-3.6-1.67-5.58-1.67H63.72c-1.49,0-2.93,1.31-2.86,2.86.07,1.55,1.26,2.86,2.86,2.86Z" />
    <circle class="st1" cx="93.89" cy="48.41" r="4.45" />
    <circle class="st1" cx="121.22" cy="48.41" r="4.45" />
    <circle class="st1" cx="148.55" cy="48.41" r="4.45" />
  </g>
  <metadata></metadata>
</svg>