<?xml version="1.0" encoding="UTF-8"?>
<svg id="Layer_1" xmlns="http://www.w3.org/2000/svg" version="1.1" xmlns:i="http://ns.adobe.com/AdobeIllustrator/10.0/" viewBox="0 0 188.81 117.86">
  <defs>
    <style>
      .st0 {
        fill: #290f87;
        stroke: #290f87;
        stroke-width: 3px;
      }

      .st0, .st1 {
        stroke-miterlimit: 10;
      }

      .st1 {
        fill: none;
        stroke: #424248;
        stroke-width: 6.71px;
      }

      .st2 {
        fill: #aeb4ff;
      }
    </style>
  </defs>
  <path class="st2" d="M154.53,32.99l-17.94-3.54-11.87-.51-7.83-3.79-8.59,5.31s-16.93,17.43-19.96,17.43l14.15,1.01,6.06,2.53,6.54-11.51,14.17,2.41,25.26-9.35Z" />
  <path class="st1" d="M-451.15,77.61" />
  <path class="st0" d="M128.61,87.01c0,16.18,13.16,29.35,29.35,29.35s29.35-13.16,29.35-29.35-13.16-29.35-29.35-29.35c-4.41,0-8.59.98-12.34,2.73l-8.7-16.83c-.24-.47-.74-.72-1.23-.68,7.09-4.19,15.17-5.68,20.85-6.19l2.98-.16c.11,0,.21-.04.31-.07v.02c3.1-.1,6.2.86,8.74,2.77l7.86,5.9c.23.17.49.25.76.25.38,0,.76-.17,1.01-.51.42-.56.31-1.35-.25-1.77l-7.86-5.9c-2.97-2.23-6.6-3.38-10.34-3.27-9.19-5.8-26.17-5.87-26.9-5.87h-2.17l-8.52-17.04c-.06-.12-.14-.23-.24-.33l-8.87-8.87c-.49-.49-1.29-.49-1.79,0-.49.49-.49,1.29,0,1.79l6.71,6.71h-11.73c-.7,0-1.27.57-1.27,1.26s.57,1.27,1.27,1.27h11.82c.67,0,1.2-.52,1.25-1.18l.67.67,7.86,15.72h-6.44l-8.55-5.7c-.38-.25-.86-.28-1.27-.08-.03.01-2.84,1.41-6.89,3.2,0,0,0,0,0,0-7.17,3.17-20.33,8.48-28.01,8.48-7.1,0-18.5-1.07-26.8-1.97-.47-.05-.91.11-1.26.39l-1.48-.64c-.11-.05-.23-.08-.36-.1-3.27-.37-5.41-.64-5.42-.64-.14-.02-.27-.01-.4.01l-14.66,2.93H5.72c-.7,0-1.27.57-1.27,1.27s.57,1.26,1.27,1.26h19.43v4.65c0,.47.26.89.67,1.11.1.05,9.98,5.37,20.36,10.55,7.74,3.86,13.79,6.67,17.99,8.36,1.62.65,2.9,1.92,3.59,3.56,0,0,0,0,0,0,.5,1.21.64,2.5.39,3.73l-.42,2.1-10.66,3.24c-4.83-9.59-14.77-16.18-26.22-16.18-16.18,0-29.35,13.17-29.35,29.35s13.16,29.35,29.35,29.35,29.35-13.16,29.35-29.35c0-.15,0-.29-.01-.44l11.48-3.08c.28-.09.55-.22.81-.35l3.29,3.29c.24.24.56.37.89.37h8.99c1.31,1.79,3.41,2.96,5.79,2.96,2.96,0,5.51-1.8,6.6-4.37,3.65-1.03,6.57-2.54,8.69-4.5h1.24l2.73,2.05c1.22,1.18,2.79,1.77,4.37,1.77s3.23-.62,4.47-1.85c1.78-1.78,2.33-4.43,1.4-6.76l-4.07-11.26,5.02-5.02c.14-.14.24-.31.31-.49,2.48-7.44,7.17-12.47,12.54-15.87-.24.37-.3.85-.08,1.27l8.71,16.83c-8.81,5.07-14.76,14.58-14.76,25.45ZM112.44,81.09s-.09-.08-.13-.12l-2.73-2.05c-.03-.2-.07-.39-.11-.59-.05-.26-.09-.51-.14-.76-.05-.28-.11-.55-.17-.82-.05-.24-.1-.48-.16-.71-.06-.26-.13-.52-.19-.77-.06-.23-.11-.45-.17-.67-.07-.25-.14-.49-.21-.73-.06-.21-.12-.42-.19-.63-.07-.24-.15-.46-.23-.69-.07-.2-.13-.4-.2-.59-.08-.22-.16-.42-.25-.63-.07-.19-.15-.38-.22-.56-.09-.2-.18-.39-.27-.59-.08-.17-.16-.35-.24-.52-.09-.19-.19-.36-.28-.54-.08-.16-.17-.32-.26-.47-.1-.17-.2-.33-.3-.49-.09-.15-.18-.3-.27-.44-.1-.16-.21-.3-.32-.45-.1-.13-.19-.27-.29-.4-.11-.14-.23-.27-.34-.4-.1-.12-.2-.24-.3-.35-.12-.13-.25-.25-.37-.37-.1-.1-.2-.21-.31-.3-.13-.12-.27-.22-.4-.33-.1-.08-.21-.18-.31-.26-.14-.11-.29-.2-.44-.29-.1-.07-.2-.14-.3-.2-.17-.1-.35-.19-.53-.28-.09-.04-.17-.09-.25-.13-.27-.12-.54-.23-.82-.32-.87-.29-1.77-.56-2.68-.81-.29-.08-.59-.15-.89-.23-.64-.16-1.28-.32-1.93-.47-.36-.08-.72-.15-1.09-.22-.62-.12-1.24-.24-1.87-.35-.39-.07-.78-.13-1.17-.19-.29-.04-.57-.1-.86-.14l2.4-4.8,1.08-2.17h11.91l8.69,10.86,4.28,11.83s0,.03.01.04c.56,1.4.23,2.99-.85,4.07-1.47,1.47-3.85,1.47-5.32,0ZM106.23,78.36c-.34,0-.66.13-.89.37-1.6,1.6-3.86,2.88-6.71,3.83,0-3.66-2.77-6.67-6.31-7.1l-2.44-3.11c-.22-.36-.41-.72-.58-1.1-.02-.03-.03-.07-.04-.1-.16-.35-.29-.71-.4-1.08,0,0,0,0,0-.01-.36-1.18-.49-2.41-.39-3.63,0-.03,0-.06,0-.09.03-.35.08-.69.15-1.04.02-.09.03-.17.05-.26.06-.27.14-.53.22-.8.05-.15.09-.29.14-.44.02-.05.04-.1.06-.15.42.05.84.11,1.26.17.42.06.84.12,1.25.19.61.1,1.2.22,1.79.33.37.07.75.14,1.11.22.65.14,1.27.3,1.9.46.29.07.59.14.88.22.9.25,1.78.51,2.64.79.26.09.52.2.76.32.08.04.16.09.24.14.16.09.32.18.47.29.09.06.18.14.27.2.13.1.27.21.4.32.09.08.18.17.26.25.12.12.24.24.35.36.09.1.17.2.25.3.11.13.22.26.32.4.08.11.16.22.24.33.1.14.2.29.29.44.07.12.15.24.22.36.09.16.18.32.27.48.07.12.14.25.2.38.09.17.17.35.25.53.06.13.12.25.18.38.08.19.16.39.24.59.05.12.1.24.15.36.09.24.18.48.26.73.03.09.06.17.09.26.11.33.22.67.32,1.01.03.09.05.17.07.26.07.26.15.51.22.77.03.12.06.25.09.37.06.22.11.44.17.67.03.13.06.26.09.4.05.22.1.43.14.65.03.13.05.26.08.39.03.13.05.26.07.38h-.67ZM89.47,86.77c-.62-.29-1.15-.72-1.58-1.23-.32-.38-.58-.8-.76-1.27-.21-.53-.33-1.09-.33-1.69,0-2.43,1.89-4.41,4.27-4.61,0,0,.02,0,.03,0,.12,0,.23-.04.35-.04.49,0,.95.1,1.39.24,1.79.56,3.1,2.17,3.23,4.11,0,.1.03.2.03.3,0,.51-.1,1-.26,1.46-.08.23-.17.45-.28.67-.31.6-.74,1.12-1.27,1.53-.79.61-1.76.99-2.84.99-.71,0-1.37-.17-1.97-.46ZM77.19,84.27l-2.65-2.65c.42-.46.81-.97,1.11-1.56.88-1.73,1.04-3.77.42-5.58-.57-1.68-1.72-3.01-3.24-3.75-.77-.37-1.6-.57-2.43-.6l.23-1.13c.27-1.35.22-2.74-.15-4.08l3.81-1.9c.27-.13.48-.36.6-.63l6.22-14.5c.1-.04.22-.09.34-.14l6.17,6.17c.24.24.56.37.89.37h2.39l-3.69,7.38c-.24.49-.45.99-.63,1.5-1.2,3.49-.78,7.42,1.2,10.59.02.04.05.08.08.11l1.48,1.86s0,0-.01,0c-2.92.91-5.04,3.64-5.04,6.85,0,.58.08,1.15.21,1.69h-7.29ZM70.52,81.18l-10.48,2.81-2.48.67-18.45,4.95c.26-.82.4-1.69.4-2.6,0-1.75-.53-3.38-1.43-4.75l17.61-5.36,2.43-.74,9.05-2.75,1.37-.42.45-.14c.3-.11.6-.16.9-.18.1,0,.21-.03.31-.03.52,0,1.04.12,1.52.35.91.44,1.6,1.25,1.95,2.29.4,1.17.29,2.49-.28,3.62-.18.34-.4.65-.64.92-.28.33-.61.61-.96.83-.27.16-.54.3-.83.4l-.44.12ZM35.08,91.42c-.37.35-.78.64-1.23.9-.89.51-1.91.82-3.01.82-3.38,0-6.12-2.75-6.12-6.12s2.75-6.13,6.12-6.13c.85,0,1.67.18,2.41.49.45.19.85.45,1.24.73.37.27.7.59.99.94.92,1.07,1.49,2.44,1.49,3.96,0,1.2-.36,2.32-.96,3.26-.26.42-.57.8-.93,1.14ZM46.3,34.2l16.46,7.06-4.3,1.72c-.16.06-.3.16-.42.28l-2.81,2.81-8.43,4.22-.06.03c-8.59-4.3-16.73-8.63-19.06-9.87v-4.12l13.56-2.71c.59.07,2.45.3,5.06.59ZM76.67,36.55c6.81,0,17.18-3.67,25.69-7.26-.03.05-.06.09-.09.14-.31.47-.64.92-.98,1.37-.06.08-.12.16-.18.24-.4.51-.83,1.01-1.28,1.5-.03.03-.05.06-.08.08-6.77,7.41-17.69,12.12-20.09,13.1h0s0,0-.01,0l-8.36-3.58-16.44-7.04c7.48.74,16.03,1.44,21.82,1.44ZM106.16,27.64c2.74-1.22,4.87-2.24,5.89-2.73l8.26,5.51c.21.14.45.21.7.21h11.82c.15,0,13.07.05,22.03,3.69-5.95.66-13.84,2.37-20.82,6.58-.13-.56-.61-.98-1.21-.98h-17.74c-.4,0-.77.19-1.01.51l-8.49,11.32h-16.58l-5.11-5.11h0c5.13-2.42,13.77-7.18,19.13-13.94.04-.05.08-.1.12-.15.34-.43.66-.88.97-1.33.06-.09.12-.17.18-.26.33-.49.64-.99.93-1.5.05-.09.1-.18.15-.27.23-.42.45-.85.65-1.29.04-.08.09-.16.13-.25ZM56.54,48.24c.12-.06.23-.14.33-.24l2.77-2.77,6.41-2.56h0s.32.14.32.14l11.94,5.12-5.59,13.04-3.26,1.63c-1.01-1.69-2.53-2.98-4.37-3.72-3.72-1.49-8.93-3.9-15.53-7.15l6.97-3.48ZM115.53,62.62h0s-7.7-9.63-7.7-9.63l7.9-10.53h15.95c-5.01,3.58-9.32,8.63-11.78,15.78l-4.38,4.38ZM30.85,113.83c-14.79,0-26.82-12.03-26.82-26.82s12.03-26.82,26.82-26.82c10.31,0,19.27,5.85,23.76,14.4l-18.44,5.61c-1.47-1.15-3.31-1.84-5.32-1.84-4.77,0-8.66,3.88-8.66,8.66s3.88,8.66,8.66,8.66c2.6,0,4.94-1.16,6.53-2.99.14-.03.28-.05.42-.1l19.86-5.33c-.13,14.68-12.1,26.58-26.81,26.58ZM144.53,63.81l8.37,16.19c-2.18,1.57-3.6,4.13-3.6,7.01,0,4.77,3.88,8.66,8.66,8.66s8.66-3.88,8.66-8.66-3.88-8.66-8.66-8.66c-.98,0-1.92.17-2.81.48l-8.37-16.19c3.41-1.57,7.19-2.45,11.18-2.45,14.79,0,26.82,12.03,26.82,26.82s-12.03,26.82-26.82,26.82-26.82-12.03-26.82-26.82c0-9.9,5.39-18.55,13.39-23.2ZM154.1,82.3c.65-.54,1.41-.94,2.25-1.17.52-.14,1.05-.24,1.62-.24,3.38,0,6.13,2.75,6.13,6.13s-2.75,6.12-6.13,6.12-6.12-2.75-6.12-6.12c0-1.91.89-3.59,2.26-4.71Z" />
  <metadata></metadata>
</svg>