<?xml version="1.0" encoding="UTF-8"?>
<svg id="Layer_1" xmlns="http://www.w3.org/2000/svg" version="1.1" xmlns:i="http://ns.adobe.com/AdobeIllustrator/10.0/" viewBox="0 0 132.25 119.36">
  <defs>
    <style>
      .st0 {
        stroke: #290f87;
        stroke-linecap: round;
        stroke-linejoin: round;
        stroke-width: 4.41px;
      }

      .st0, .st1 {
        fill: none;
      }

      .st1 {
        stroke: #424248;
        stroke-miterlimit: 10;
        stroke-width: 6.71px;
      }

      .st2 {
        fill: #f8a83a;
      }
    </style>
  </defs>
  <path class="st1" d="M-557.46,78.9" />
  <g>
    <path class="st2" d="M15.76,10.54s-9.09.76-10.11,4.55l-2.78,5.81.25,9.35,62.4,1.01,62.15-1.52s3.54-15.16-9.09-15.92l-11.87,1.26-5.48,4-4.78-4.78s.91-2-.35-2.76c-1.26-.76-24.76,5.05-24.76,5.05l-3.03,3.54-5.31-1.77-.76-3.03-25.26-3.79-1.77,7.07-5.05.76-3.79-8.34-10.61-.51Z" />
    <path class="st0" d="M27,11.15h-13.43c-6.27,0-11.36,5.1-11.36,11.36v83.27c0,6.27,5.1,11.36,11.36,11.36h105.11c6.27,0,11.36-5.1,11.36-11.36V22.51c0-6.27-5.1-11.36-11.36-11.36h-12.66" />
    <path class="st0" d="M32.53,2.2h0c2.64,0,4.78,2.14,4.78,4.78v7.33c0,2.64-2.14,4.78-4.78,4.78h0c-2.64,0-4.78-2.14-4.78-4.78v-7.33c0-2.64,2.14-4.78,4.78-4.78Z" />
    <path class="st0" d="M101.23,2.2h0c2.64,0,4.78,2.14,4.78,4.78v7.33c0,2.64-2.14,4.78-4.78,4.78h0c-2.64,0-4.78-2.14-4.78-4.78v-7.33c0-2.64,2.14-4.78,4.78-4.78Z" />
    <path class="st0" d="M66.88,2.2h0c2.64,0,4.78,2.14,4.78,4.78v7.33c0,2.64-2.14,4.78-4.78,4.78h0c-2.64,0-4.78-2.14-4.78-4.78v-7.33c0-2.64,2.14-4.78,4.78-4.78Z" />
    <line class="st0" x1="129.8" y1="34.62" x2="2.86" y2="34.62" />
    <rect class="st0" x="21.36" y="55.72" width="14.27" height="14.07" />
    <rect class="st0" x="46.95" y="55.72" width="14.27" height="14.07" />
    <rect class="st0" x="72.54" y="55.72" width="14.27" height="14.07" />
    <rect class="st0" x="98.12" y="55.72" width="14.27" height="14.07" />
    <rect class="st0" x="21.36" y="80.3" width="14.27" height="14.07" />
    <rect class="st0" x="46.95" y="80.3" width="14.27" height="14.07" />
    <rect class="st0" x="72.54" y="80.3" width="14.27" height="14.07" />
    <rect class="st0" x="98.12" y="80.3" width="14.27" height="14.07" />
    <line class="st0" x1="37.31" y1="10.65" x2="61.03" y2="10.65" />
    <line class="st0" x1="72.66" y1="10.65" x2="96.45" y2="10.65" />
  </g>
  <metadata></metadata>
</svg>