<?xml version="1.0" encoding="UTF-8"?>
<svg id="Layer_1" xmlns="http://www.w3.org/2000/svg" version="1.1" xmlns:i="http://ns.adobe.com/AdobeIllustrator/10.0/" viewBox="0 0 162.34 162.34">
  <defs>
    <style>
      .st0 {
        stroke: #fff;
      }

      .st0, .st1 {
        fill: none;
        stroke-linecap: round;
        stroke-linejoin: round;
        stroke-width: 4.69px;
      }

      .st2 {
        fill: #290f87;
      }

      .st1 {
        stroke: #290f87;
      }
    </style>
  </defs>
  <circle class="st1" cx="81.17" cy="81.17" r="78.82" />
  <circle class="st1" cx="81.17" cy="81.17" r="60.7" />
  <ellipse class="st2" cx="83.42" cy="79.32" rx="49.65" ry="60.32" transform="translate(-20.7 30.23) rotate(-18.31)" />
  <g>
    <path class="st0" d="M73.18,95.46c.7-3.79,2.08-11.36,2.79-15.15.91-4.85-.75-7.43-3.8-7.91-.16-.02-.31-.04-.47-.05-2.81-.18-4.03-3.62-1.83-5.38,2.73-2.17,6.26-3.77,10.53-3.22,8.24,1.06,11.71,6.96,9.91,17.04-.66,3.67-2.03,11-2.7,14.67-.7,3.79-2.08,11.36-2.79,15.15-.91,4.85.75,7.43,3.8,7.91.16.02.31.04.47.05,2.81.18,4.03,3.62,1.83,5.38-2.73,2.17-6.26,3.77-10.53,3.22-8.24-1.06-11.71-6.96-9.91-17.04.66-3.67,2.03-11,2.7-14.67Z" />
    <circle class="st0" cx="83.52" cy="45.07" r="8.45" transform="translate(-10.89 35.39) rotate(-22.5)" />
  </g>
  <metadata></metadata>
</svg>