<?xml version="1.0" encoding="UTF-8"?>
<svg id="Layer_1" xmlns="http://www.w3.org/2000/svg" version="1.1" xmlns:i="http://ns.adobe.com/AdobeIllustrator/10.0/" viewBox="0 0 120.46 94.34">
  <defs>
    <style>
      .st0 {
        fill: #deccb8;
      }

      .st1 {
        fill: #f8a83a;
      }

      .st2 {
        fill: #290f87;
      }
    </style>
  </defs>
  <path class="st0" d="M82.11,30.98c2.76-2.29,6.14-4,9.42-5.42,1.3-.56,2.62-1.07,3.95-1.56,3.63-.26,7.25-.66,10.86-1.18,1.28.39,2.64.51,3.97.32,4.2-.59,7.17-3.9,7.19-8.17.01-1.79-.59-3.29-1.56-4.44.53-.95.84-2.06.84-3.33,0-3.49-3.29-7.64-7.15-7.15-18.27,2.31-36.62,3.62-55.03,4.03-8.56.19-17.15.44-25.58,2.07-7.59,1.46-18.94,4.09-21.11,12.7-.97,3.84-.66,8.33-.83,12.27-.22,4.9-.43,9.81-.63,14.72-.37,9.09-.97,18.23-1,27.34-.03,8.61,5.36,16.95,15.07,14.01,4.03-1.22,7.66-2.6,11.92-2.94,4.46-.36,8.95-.33,13.42-.39,21.34-.29,42.67-.58,64.01-.88,4.14-.06,6.77-3.25,7.15-7.15.56-5.75-4.9-9.19-9.91-9.76-5.36-.61-10.8-.75-16.18-1.11-2.65-.17-5.36-.2-7.99-.53-.48-.06-2.03-.72-2.11-.31-.41-1.33.14-3.67.11-4.82-.08-2.6-.51-5.22-1.1-7.75-.97-4.17-3.16-8.76-2.55-13.13.43-3.07,2.52-5.51,4.83-7.43Z" />
  <g>
    <path class="st2" d="M111.3,1.55H11.3C5.07,1.55,0,6.62,0,12.85v70.19c0,6.23,5.07,11.3,11.3,11.3h100c5.05,0,9.16-4.11,9.16-9.16V10.71c0-5.05-4.11-9.16-9.16-9.16ZM114.03,61.46h-18.63c-7.45,0-13.51-6.06-13.51-13.51s6.06-13.51,13.51-13.51h18.63v27.02ZM111.3,87.91H11.3c-2.68,0-4.87-2.18-4.87-4.87V12.85c0-2.68,2.18-4.87,4.87-4.87h100c1.5,0,2.72,1.22,2.72,2.72v17.3h-18.63c-11,0-19.94,8.95-19.94,19.94s8.95,19.94,19.94,19.94h18.63v17.3c0,1.5-1.22,2.72-2.72,2.72Z" />
    <path class="st2" d="M92.23,47.95c0,3.16,2.57,5.73,5.73,5.73s5.73-2.57,5.73-5.73-2.57-5.73-5.73-5.73-5.73,2.57-5.73,5.73ZM97.96,47.25c.39,0,.7.31.7.7s-.31.7-.7.7-.7-.31-.7-.7.31-.7.7-.7Z" />
  </g>
  <path class="st1" d="M22.26,23.14c-.14.08-.28.15-.42.21,0,.07,0,.13,0,.21.29-.08.5-.21.42-.42Z" />
  <metadata></metadata>
</svg>