<?xml version="1.0" encoding="UTF-8"?>
<svg id="Layer_1" xmlns="http://www.w3.org/2000/svg" version="1.1" xmlns:i="http://ns.adobe.com/AdobeIllustrator/10.0/" viewBox="0 0 149.29 140.13">
  <defs>
    <style>
      .st0 {
        fill: #aeb4ff;
      }

      .st1 {
        fill: #290f87;
        stroke: #290f87;
        stroke-miterlimit: 10;
        stroke-width: 1.88px;
      }
    </style>
  </defs>
  <path class="st0" d="M54.02,32.35l39.63,33.15s4.79,40.17,5.22,41.13,11.84-6.53,11.84-6.53l-.36-43.14-45.99-33.87-10.34,9.27Z" />
  <path class="st1" d="M148.35,46.88c-.03-.74-.45-1.4-1.1-1.75l-9.72-5.24,9.88-6.55c.61-.41.97-1.11.94-1.84-.03-.74-.45-1.4-1.1-1.75L94.32,1.19c-.67-.36-1.48-.33-2.13.08L1.9,59.27c-.62.4-.98,1.09-.96,1.83.02.74.43,1.41,1.07,1.76l9.76,5.44-9.87,6.34c-.62.4-.98,1.09-.96,1.83.02.74.43,1.41,1.07,1.76l9.76,5.44-9.87,6.33c-.62.4-.98,1.09-.96,1.83.02.74.43,1.41,1.07,1.76l9.76,5.44-9.87,6.34c-.62.4-.98,1.09-.96,1.83.02.74.43,1.41,1.07,1.76l53.66,29.94c.32.18.67.27,1.02.27.4,0,.81-.12,1.16-.35l89.56-59.38c.61-.41.97-1.11.94-1.84-.03-.74-.45-1.4-1.1-1.75l-9.71-5.24,9.87-6.55c.61-.41.97-1.11.93-1.84-.03-.74-.45-1.4-1.1-1.75l-9.71-5.24,9.87-6.55c.61-.41.97-1.11.93-1.84ZM93.42,5.47l48.76,26.31-9.8,6.5c-.05.03-.11.07-.16.1l-19.96,13.24-6.4-4.15,4.66-3.16s.08-.05.12-.08l6.14-4.17c.5-.34.82-.87.9-1.46l1.34-10.31s0-.02,0-.03c0-.05,0-.09.01-.14,0-.03,0-.05,0-.08,0-.04,0-.08,0-.12,0-.03,0-.06,0-.1,0-.03,0-.06-.01-.09,0-.04,0-.08-.02-.11,0-.03-.01-.05-.02-.07,0-.04-.02-.08-.03-.12,0-.02-.02-.05-.02-.07-.01-.04-.03-.08-.04-.12-.01-.03-.02-.05-.03-.08-.02-.03-.03-.07-.05-.1-.02-.03-.03-.06-.05-.09-.02-.03-.03-.05-.05-.08-.02-.03-.05-.07-.07-.1-.02-.02-.03-.04-.05-.06-.03-.03-.05-.06-.08-.09-.02-.02-.03-.04-.05-.06-.03-.03-.05-.05-.08-.08-.02-.02-.05-.04-.07-.06-.02-.02-.05-.04-.07-.06-.03-.02-.06-.05-.1-.07-.02-.01-.04-.03-.06-.04-.04-.03-.08-.05-.12-.07,0,0-.01,0-.02-.01l-19.95-10.77s-.02,0-.03-.02c-.03-.01-.06-.03-.08-.04-.04-.02-.07-.03-.11-.05-.03-.01-.05-.02-.08-.03-.04-.01-.08-.03-.12-.04-.03,0-.05-.01-.08-.02-.04-.01-.08-.02-.12-.03-.03,0-.05,0-.08-.01-.04,0-.08-.01-.12-.02-.03,0-.06,0-.09,0-.04,0-.08,0-.12,0-.03,0-.06,0-.09,0-.04,0-.08,0-.11,0-.03,0-.06,0-.09.01-.04,0-.07.01-.11.02-.01,0-.02,0-.03,0l-10.86,2.46c-.24.05-.46.15-.67.28l-12.42,7.99-5.5-3.56,26.31-16.9ZM98.87,106.62l-4.29-39.6s-.01-.08-.02-.12c0-.02,0-.04,0-.06-.02-.12-.06-.23-.1-.34,0-.01,0-.02-.01-.03,0,0,0-.02-.01-.02-.04-.11-.1-.2-.15-.3,0-.02-.02-.03-.03-.05,0,0,0,0,0-.01,0,0,0,0,0-.01-.06-.09-.13-.17-.2-.25-.01-.02-.03-.03-.04-.05,0,0-.02-.02-.03-.03-.08-.08-.16-.15-.25-.21,0,0-.02-.02-.03-.02l-.02-.02s0,0,0,0l-45.34-31.05,14.93-9.59,37.7,24.42,9.38,6.07,4.54,40.68-15.99,10.6ZM54.63,71.73s-.05,0-.08.01c0,0-.01,0-.02,0l-2.82.57-16.02-8.83.98-9.47,16.92-10.88,25.47,17.44-13.01,8.83-11.41,2.32ZM96.71,19.45l17.99,9.72-1.04,7.95-5.25,3.56s-.07.04-.1.06c0,0-.01,0-.02.01,0,0,0,0,0,0l-6.25,4.23-25.59-16.57,10.52-6.76,9.73-2.21ZM44.48,36.9l5.36,3.67-16.28,10.47c-.54.34-.89.91-.95,1.55l-1.22,11.85c-.09.84.34,1.64,1.07,2.05l17.91,9.87c.31.17.66.26,1.01.26.14,0,.28-.01.42-.04l3.51-.71s.05,0,.08-.01c0,0,.01,0,.02,0l11.89-2.42c.27-.06.53-.16.76-.32l14.72-9.99,5.97,4.09-32.14,21.31L7.11,60.91l37.37-24ZM15.92,70.62l39.76,22.18c.32.18.67.27,1.02.27.4,0,.81-.12,1.16-.35l32.92-21.83,1.05,9.66-35.22,23.35L7.11,76.29l8.81-5.67ZM15.92,86l11.71,6.53,28.05,15.65c.32.18.67.27,1.02.27.4,0,.81-.12,1.16-.35l34.48-22.86,1.05,9.65-36.78,24.39L7.11,91.66l8.81-5.66ZM56.61,134.65L7.11,107.03l8.81-5.66,39.76,22.18c.32.18.67.27,1.02.27.4,0,.81-.12,1.16-.35l36.04-23.89,1.05,9.65-38.33,25.42ZM142.19,77.9l-23.41,15.52-1.07-9.63,15.88-10.53,8.6,4.64ZM142.19,62.53l-9.84,6.53s-.03.02-.05.03l-15.12,10.03-1.08-9.7c.14-.05.28-.12.42-.21l17.07-11.32,8.6,4.64ZM115.59,64.8l-1.08-9.64,19.07-12.65,8.61,4.65-26.6,17.64Z" />
  <metadata></metadata>
</svg>