<?xml version="1.0" encoding="UTF-8"?>
<svg id="Layer_1" xmlns="http://www.w3.org/2000/svg" version="1.1" xmlns:i="http://ns.adobe.com/AdobeIllustrator/10.0/" viewBox="0 0 134.48 148.5">
  <defs>
    <style>
      .st0 {
        fill: none;
        stroke: #290f87;
        stroke-linecap: round;
        stroke-linejoin: round;
        stroke-width: 6px;
      }

      .st1 {
        fill: #aeb4ff;
      }
    </style>
  </defs>
  <path class="st1" d="M12.6,69.44s-9.85-2.27-8.08,12.13c0,0,4.29,39.66,3.79,48.25,0,0-4.29,10.11,5.81,10.11l14.15,2.27s7.78,1.83,8.31-6.05c.03-.4.04-.83.02-1.28-.25-9.35-1.01-57.85-1.01-57.85,0,0,1.26-3.28-22.99-7.58Z" />
  <g>
    <path class="st0" d="M35.78,72.79l.97,64.99c.03,1.67-.94,3.22-2.49,3.86-.79.33-1.66.5-2.57.5H9.78c-3.75,0-6.78-3.04-6.78-6.78v-59.86c0-3.74,3.04-6.78,6.78-6.78h21.92s.03,0,.05,0c2.22.01,4,1.85,4.04,4.07Z" />
    <path class="st0" d="M35.68,71.94c5.06,0,30.16-27.83,28.76-49.11-.78-11.89.85-16.24,5.51-18.81,3.27-1.81,7.42-1.19,11.38,1.69,5.39,3.92,10.37,12.44,8.54,21.87-1.06,5.51-2.17,10.38-3.15,14.67-2.12,9.31-3.79,16.67-2.05,18.86.19.24.77.97,3.25.97.08,0,.17-.01.25-.02l25.72-2.36c.47-.02.83-.04,1.18-.04,9.04,0,16.4,7.36,16.4,16.4,0,4.36-1.69,8.43-4.69,11.47,1.31,2.39,2,5.07,2,7.84,0,6.1-3.41,11.65-8.68,14.47.55,1.66.84,3.41.84,5.16,0,6.08-3.33,11.59-8.61,14.43-.17,8.89-7.46,16.07-16.4,16.07-.74,0-1.47-.05-2.19-.14l-57-7.66" />
  </g>
  <metadata></metadata>
</svg>