<?xml version="1.0" encoding="UTF-8"?>
<svg id="Layer_1" xmlns="http://www.w3.org/2000/svg" version="1.1" xmlns:i="http://ns.adobe.com/AdobeIllustrator/10.0/" viewBox="0 0 155.7 143.17">
  <defs>
    <style>
      .st0 {
        fill: #deccb8;
      }

      .st1 {
        fill: #290f87;
        stroke: #290f87;
        stroke-miterlimit: 10;
        stroke-width: 2px;
      }
    </style>
  </defs>
  <ellipse class="st0" cx="97.85" cy="84.18" rx="54.5" ry="43.21" transform="translate(-23.98 126.83) rotate(-60)" />
  <path class="st1" d="M29.99,101.56H7.73c-1.09,0-1.97.88-1.97,1.97s.88,1.97,1.97,1.97h22.26c1.09,0,1.97-.88,1.97-1.97s-.88-1.97-1.97-1.97Z" />
  <path class="st1" d="M30.87,56.46H13.78c-1.09,0-1.97.88-1.97,1.97s.88,1.97,1.97,1.97h17.1c1.09,0,1.97-.88,1.97-1.97s-.88-1.97-1.97-1.97Z" />
  <path class="st1" d="M2.97,37.84h39.37c1.09,0,1.97-.88,1.97-1.97s-.88-1.97-1.97-1.97H2.97c-1.09,0-1.97.88-1.97,1.97s.88,1.97,1.97,1.97Z" />
  <path class="st1" d="M95.59,23.96c-32.59,0-59.1,26.51-59.1,59.1,0,6.34,1,12.55,2.96,18.5h-2.95c-1.09,0-1.97.88-1.97,1.97s.88,1.97,1.97,1.97h5.65s.03,0,.04,0h22.31c1.09,0,1.97-.88,1.97-1.97s-.88-1.97-1.97-1.97h-20.89c-2.11-5.93-3.19-12.14-3.19-18.5,0-30.42,24.75-55.17,55.17-55.17s55.17,24.75,55.17,55.17-24.75,55.17-55.17,55.17c-20.18,0-38.74-11.01-48.44-28.73-.52-.95-1.72-1.3-2.67-.78-.95.52-1.3,1.72-.78,2.67,10.39,18.98,30.27,30.78,51.89,30.78,32.59,0,59.1-26.51,59.1-59.1s-26.51-59.1-59.1-59.1Z" />
  <path class="st1" d="M87.3,17.16v2.48c0,1.09.88,1.97,1.97,1.97s1.97-.88,1.97-1.97v-4.33c0-1.09-.88-1.97-1.97-1.97h-.5V4.93h14.16v8.42h-.5c-1.09,0-1.97.88-1.97,1.97v4.41c0,1.09.88,1.97,1.97,1.97s1.97-.88,1.97-1.97v-2.57c1.42-.39,2.46-1.7,2.46-3.24V4.36c0-1.85-1.51-3.36-3.36-3.36h-15.29c-1.86,0-3.37,1.51-3.37,3.36v9.56c0,1.54,1.04,2.85,2.46,3.24Z" />
  <path class="st1" d="M131.04,31.93c.85.67,2.09.52,2.76-.33l1.49-1.9c.65-.82.53-2.01-.25-2.69l2.43-2.95,7.88,6.36-2.42,2.95c-.41-.32-.92-.46-1.43-.4-.52.06-1,.33-1.32.74l-1.5,1.91c-.67.85-.52,2.09.33,2.76.36.28.79.42,1.21.42.58,0,1.16-.26,1.55-.75l.48-.61c1.21.28,2.53-.12,3.36-1.13l3.14-3.83c.58-.7.85-1.58.75-2.48-.09-.9-.53-1.71-1.23-2.27l-8.76-7.07c-1.43-1.16-3.54-.94-4.71.48l-3.14,3.83c-.58.7-.85,1.58-.75,2.48.04.39.15.77.31,1.11l-.5.63c-.67.85-.52,2.09.33,2.76Z" />
  <path class="st1" d="M98.66,77.14c-1.58-.93-3.43-1.18-5.21-.72-1.77.46-3.26,1.59-4.19,3.18-.93,1.58-1.18,3.43-.72,5.21.46,1.77,1.59,3.26,3.18,4.19,1.07.62,2.25.94,3.46.94.58,0,1.17-.08,1.75-.23,1.31-.34,2.45-1.05,3.34-2.02l17.4,9.95c.31.18.64.26.97.26.68,0,1.34-.36,1.71-.99.54-.94.21-2.14-.73-2.68l-17.66-10.1c.42-2.71-.81-5.52-3.31-6.99ZM93.71,85.59c-1.4-.82-1.87-2.62-1.05-4.02.55-.93,1.53-1.45,2.54-1.45.5,0,1.01.13,1.48.4,1.4.82,1.87,2.62,1.05,4.02-.82,1.4-2.62,1.87-4.02,1.05Z" />
  <path class="st1" d="M74.97,121.9c-.47.98-.06,2.15.92,2.62,6.25,3.02,12.97,4.55,19.97,4.55,25.37,0,46.01-20.64,46.01-46.01s-20.64-46.01-46.01-46.01-46.01,20.64-46.01,46.01c0,1.09.88,1.97,1.97,1.97s1.97-.88,1.97-1.97c0-23.2,18.88-42.08,42.08-42.08s42.08,18.88,42.08,42.08-18.88,42.08-42.08,42.08c-6.4,0-12.54-1.4-18.26-4.16-.98-.47-2.15-.06-2.62.92Z" />
  <metadata></metadata>
</svg>