<?xml version="1.0" encoding="UTF-8"?>
<svg id="Layer_1" xmlns="http://www.w3.org/2000/svg" version="1.1" xmlns:i="http://ns.adobe.com/AdobeIllustrator/10.0/" viewBox="0 0 127.93 127.93">
  <defs>
    <style>
      .st0 {
        fill: #e1bbc8;
      }

      .st1 {
        fill: none;
        stroke: #290f87;
        stroke-linecap: round;
        stroke-linejoin: round;
        stroke-width: 6px;
      }
    </style>
  </defs>
  <path class="st0" d="M32.45,51.08c.03,17.04,8.08,29.33,25.16,31.23s31.62-8.38,35.38-25l8.93-47.15-66.44-2.27-3.03,43.2Z" />
  <path class="st1" d="M99.36,54.13c-1.97,17.7-15.73,31.47-35.4,31.47s-33.43-13.77-35.4-31.47L24.63,3h78.67l-3.93,51.13Z" />
  <path class="st1" d="M54.13,95.43v3.38c0,6.15-4.07,11.55-9.98,13.24l-10.42,2.98c-4.22,1.21-7.13,5.06-7.13,9.45v.45h74.73v-.45c0-4.39-2.91-8.25-7.13-9.45l-10.42-2.98c-5.91-1.69-9.98-7.09-9.98-13.24v-14.47" />
  <path class="st1" d="M115.1,16.77h9.83s0,41.3-26.18,41.3" />
  <path class="st1" d="M12.83,16.77H3s0,41.3,26.18,41.3" />
  <polyline class="st1" points="73.8 48.23 73.8 71.83 63.97 63.97 54.13 71.83 54.13 60.03" />
  <path class="st1" d="M50.2,27.13v-2.5c0-2.17,1.76-3.93,3.93-3.93h2.5c1.04,0,2.04-.41,2.78-1.15l1.77-1.77c1.54-1.54,4.03-1.54,5.56,0l1.77,1.77c.74.74,1.74,1.15,2.78,1.15h2.5c2.17,0,3.93,1.76,3.93,3.93v2.5c0,1.04.41,2.04,1.15,2.78l1.77,1.77c1.54,1.54,1.54,4.03,0,5.56l-1.77,1.77c-.74.74-1.15,1.74-1.15,2.78v2.5c0,2.17-1.76,3.93-3.93,3.93h-2.5c-1.04,0-2.04.41-2.78,1.15l-1.77,1.77c-1.54,1.54-4.03,1.54-5.56,0l-1.77-1.77c-.74-.74-1.74-1.15-2.78-1.15h-2.5c-2.17,0-3.93-1.76-3.93-3.93v-2.5c0-1.04-.41-2.04-1.15-2.78l-1.77-1.77c-1.54-1.54-1.54-4.03,0-5.56l1.77-1.77c.74-.74,1.15-1.74,1.15-2.78Z" />
  <metadata></metadata>
</svg>