<?xml version="1.0" encoding="UTF-8"?>
<svg id="Layer_1" xmlns="http://www.w3.org/2000/svg" version="1.1" xmlns:i="http://ns.adobe.com/AdobeIllustrator/10.0/" viewBox="0 0 154.01 164.28">
  <defs>
    <style>
      .st0 {
        fill: #e1bbc8;
      }

      .st1 {
        fill: none;
        stroke: #290f87;
        stroke-linecap: round;
        stroke-linejoin: round;
        stroke-width: 5.13px;
      }
    </style>
  </defs>
  <path class="st0" d="M145.82,66.54c1.42-1.53,1.93-3.66,1.37-5.71-.55-2.02-2.04-3.52-3.97-4.02l-12.28-3.14c-5.2-1.33-8.5-6.53-7.68-12.1l1.98-13.45c.31-2.13-.46-4.19-2.08-5.5-1.58-1.28-3.63-1.56-5.48-.74l-11.38,5.05c-4.96,2.2-10.74-.02-13.15-5.07l-5.61-11.73c-.91-1.91-2.67-3.1-4.7-3.18s-3.87.97-4.93,2.81l-6.49,11.27c-2.79,4.84-8.72,6.62-13.5,4.04l-10.96-5.91c-1.78-.96-3.84-.84-5.52.32-1.71,1.18-2.65,3.17-2.5,5.32l.95,13.56c.39,5.61-3.3,10.54-8.59,11.47l-12.48,2.19c-1.97.35-3.56,1.73-4.27,3.7-.72,2-.37,4.17.93,5.8l8.34,10.48c3.38,4.26,3.15,10.47-.56,14.45l-9.11,9.81c-1.42,1.53-1.93,3.66-1.37,5.71.55,2.02,2.04,3.52,3.97,4.02l12.28,3.14c5.2,1.33,8.5,6.53,7.68,12.1l-1.98,13.45c-.31,2.13.46,4.19,2.08,5.5,1.58,1.28,3.63,1.56,5.48.74l11.38-5.05c1.42-.63,2.9-.9,4.35-.84,3.63.14,7.07,2.3,8.8,5.91l5.61,11.73c.91,1.91,2.67,3.1,4.7,3.18s3.87-.97,4.93-2.81l6.49-11.27c2.79-4.84,8.72-6.62,13.5-4.04l10.96,5.91c1.78.96,3.84.84,5.52-.32,1.71-1.18,2.65-3.17,2.5-5.32l-.95-13.56c-.39-5.61,3.3-10.54,8.59-11.47l12.48-2.19c1.97-.35,3.56-1.73,4.27-3.7.72-2,.37-4.17-.93-5.8l-8.34-10.48c-3.38-4.26-3.15-10.47.56-14.45l9.11-9.81Z" />
  <path class="st1" d="M84.45,6.99l6.53,11.9c2.16,3.94,6.99,5.53,11.04,3.62l12.05-5.67c6.03-2.83,12.8,2.09,12.05,8.76l-1.58,13.97c-.5,4.42,2.43,8.49,6.75,9.38l13.36,2.76c6.45,1.33,9.02,9.24,4.6,14.17l-9.42,10.5c-2.93,3.27-2.93,8.25,0,11.52l9.42,10.5c4.42,4.93,1.85,12.84-4.6,14.17l-13.36,2.76c-4.32.89-7.25,4.96-6.75,9.38l1.58,13.97c.75,6.67-6.02,11.59-12.05,8.76l-12.05-5.67c-4.05-1.9-8.87-.32-11.04,3.62l-6.53,11.9c-3.24,5.9-11.65,5.9-14.89,0l-6.53-11.9c-2.16-3.95-6.99-5.53-11.04-3.62l-12.05,5.67c-6.03,2.83-12.8-2.09-12.05-8.76l1.58-13.97c.5-4.42-2.43-8.49-6.75-9.38l-13.36-2.76c-6.45-1.33-9.02-9.24-4.6-14.17l9.42-10.5c2.93-3.27,2.93-8.25,0-11.52l-9.42-10.5c-4.42-4.93-1.85-12.84,4.6-14.17l13.36-2.76c4.32-.89,7.25-4.96,6.75-9.38l-1.58-13.97c-.75-6.67,6.02-11.59,12.05-8.76l12.05,5.67c4.05,1.9,8.87.32,11.04-3.62l6.53-11.9c3.24-5.9,11.65-5.9,14.89,0Z" />
  <line class="st1" x1="97.54" y1="53.9" x2="56.47" y2="110.37" />
  <circle class="st1" cx="56.47" cy="64.17" r="12.83" />
  <circle class="st1" cx="97.54" cy="100.11" r="12.83" />
  <metadata></metadata>
</svg>