<?xml version="1.0" encoding="UTF-8"?>
<svg id="Layer_1" xmlns="http://www.w3.org/2000/svg" version="1.1" xmlns:i="http://ns.adobe.com/AdobeIllustrator/10.0/" viewBox="0 0 138.76 150.32">
  <defs>
    <style>
      .st0 {
        fill: #e1bbc8;
      }

      .st1 {
        fill: #290f87;
      }
    </style>
  </defs>
  <path class="st0" d="M10.11,62.15c-1,.29,8.34-37.39,54.06-46.23,0,0,31.83-6.06,54.82,20.72,0,0,14.91,17.94,16.67,31.58,0,0,3.54,6.57-27.03-3.54,0,0-8.08,0-15.66,6.57,0,0-12.88-17.18-32.34-12.63,0,0-13.39,2.53-21.98,9.6,0,0-9.35-11.62-28.55-6.06Z" />
  <g>
    <path class="st1" d="M83.83,150.32c-9.56,0-17.34-7.78-17.34-17.34v-66.49c0-1.6,1.29-2.89,2.89-2.89s2.89,1.29,2.89,2.89v66.49c0,6.38,5.19,11.56,11.56,11.56s11.56-5.19,11.56-11.56c0-1.6,1.29-2.89,2.89-2.89s2.89,1.29,2.89,2.89c0,9.56-7.78,17.34-17.34,17.34Z" />
    <path class="st1" d="M69.38,17.34c-1.6,0-2.89-1.29-2.89-2.89V2.89c0-1.6,1.29-2.89,2.89-2.89s2.89,1.29,2.89,2.89v11.56c0,1.6-1.29,2.89-2.89,2.89Z" />
    <path class="st1" d="M135.86,75.16c-1.47,0-2.72-1.11-2.87-2.6-3.14-31.48-30.49-55.21-63.61-55.21S8.91,41.08,5.77,72.56c-.16,1.59-1.58,2.75-3.16,2.59-1.59-.16-2.75-1.57-2.59-3.16,1.65-16.59,9.66-31.9,22.54-43.1,12.85-11.17,29.48-17.32,46.83-17.32s33.98,6.15,46.83,17.32c12.88,11.2,20.88,26.5,22.54,43.1.16,1.59-1,3-2.59,3.16-.1,0-.19.01-.29.01Z" />
    <path class="st1" d="M95.39,75.16c-1.54,0-2.83-1.22-2.89-2.78-1.32-33.99-13.04-55.04-23.13-55.04s-21.81,21.04-23.13,55.04c-.06,1.59-1.42,2.82-3,2.78-1.6-.06-2.84-1.41-2.78-3,1.37-35.11,13.52-60.59,28.91-60.59s27.54,25.48,28.91,60.59c.06,1.6-1.18,2.94-2.78,3-.04,0-.08,0-.11,0Z" />
    <path class="st1" d="M95.39,75.16c-.41,0-.83-.09-1.23-.28-15.75-7.4-33.82-7.4-49.58,0-1.44.68-3.17.06-3.84-1.39-.68-1.44-.06-3.17,1.39-3.84,17.32-8.13,37.18-8.13,54.49,0,1.45.68,2.07,2.4,1.39,3.84-.49,1.05-1.53,1.66-2.62,1.66Z" />
    <path class="st1" d="M135.86,75.16c-.51,0-1.02-.13-1.49-.42-11.91-7.2-25.57-7.2-37.48,0-1.37.83-3.14.39-3.97-.98-.83-1.37-.39-3.14.98-3.97,13.61-8.22,29.85-8.22,43.46,0,1.37.83,1.81,2.6.98,3.97-.54.9-1.5,1.4-2.48,1.4Z" />
    <path class="st1" d="M43.36,75.16c-.51,0-1.02-.13-1.49-.42-11.91-7.2-25.57-7.2-37.48,0-1.37.83-3.14.39-3.97-.98-.83-1.37-.39-3.14.98-3.97,13.61-8.22,29.85-8.22,43.46,0,1.37.83,1.81,2.6.98,3.97-.54.9-1.5,1.4-2.48,1.4Z" />
  </g>
  <metadata></metadata>
</svg>