<?xml version="1.0" encoding="UTF-8"?>
<svg id="Layer_1" xmlns="http://www.w3.org/2000/svg" version="1.1" xmlns:i="http://ns.adobe.com/AdobeIllustrator/10.0/" viewBox="0 0 179.98 119.96">
  <defs>
    <style>
      .st0 {
        fill: none;
        stroke: #424248;
        stroke-miterlimit: 10;
        stroke-width: 6.71px;
      }

      .st1 {
        fill: #00f5ff;
      }

      .st2 {
        fill: #290f87;
      }
    </style>
  </defs>
  <circle class="st1" cx="156.61" cy="102.32" r="16.17" />
  <ellipse class="st1" cx="28.4" cy="97.01" rx="18.32" ry="17.94" />
  <path class="st0" d="M-702.21,81.25" />
  <g>
    <path class="st2" d="M27.11,88.31c-5.26,0-9.54,4.32-9.54,9.62s4.28,9.56,9.54,9.56,9.48-4.29,9.48-9.56-4.25-9.62-9.48-9.62ZM27.11,104.27c-3.48,0-6.31-2.84-6.31-6.33s2.83-6.4,6.31-6.4,6.25,2.87,6.25,6.4-2.8,6.33-6.25,6.33Z" />
    <path class="st2" d="M179.98,95.87c0-1.37-.6-2.6-1.58-3.41.46-1.21.38-2.6-.3-3.79l-2.04-3.55c-.49-.86-1.24-1.49-2.09-1.86,2.85-3.13,5.82-7.03,5.48-11.35,0-.05.03-.09.03-.13,0-.45-.1-.85-.17-1.15-.42-1.73-.89-4.66-1.44-8.06-.52-3.2-1.05-6.35-1.61-9.36,0-.06.02-.13,0-.19-.89-4.84-1.87-9.03-2.92-12.46-.02-.05-.05-.09-.07-.14-2.11-6.93-4.8-11.67-8.66-12.22l-66.19-9.56s0,0,0,0l-6.27-.91c-1.66-.24-4.05,1.12-6.46,3.07l-6.56-7.12,6.3-5.97s.02-.02.04-.04c1.7-1.71,1.77-4.51.16-6.24-.09-.09-.19-.18-.3-.25-.77-.72-1.78-1.15-2.84-1.18-1.23-.03-2.33.43-3.12,1.22l-19.28,18.25c-.87.79-1.38,1.87-1.43,3.05-.05,1.21.37,2.36,1.21,3.25.85.91,2.02,1.38,3.2,1.38,1.08,0,2.18-.39,3.06-1.18l6.28-5.94,6.74,7.25c-.48.57-.92,1.12-1.29,1.62-2.72,3.63-3.66,6.24-2.87,7.98l11.29,25.57h-39.18c-1.23-1.38-2.45-2.76-3.68-4.13h2.03c2.55,0,4.62-2.09,4.62-4.65,0-4.24-3.42-7.69-7.63-7.69h-19.69l-4.96-21.77c-1.09-4.42-5.35-7.88-9.69-7.88-1.33,0-2.5.54-3.3,1.51-.82,1.01-1.13,2.39-.83,3.82l7.67,33.42h-4.63c-4.31,0-6.96,5.77-6.96,9.91,0,1.4.28,2.57.84,3.48.73,1.19,1.91,1.85,3.31,1.85h6.76v13.1c-.68.38-1.29.93-1.7,1.66l-2.05,3.56c-.68,1.19-.75,2.58-.3,3.78-.98.81-1.58,2.04-1.58,3.42v4.07c0,1.35.61,2.58,1.59,3.4-.46,1.21-.39,2.61.29,3.8l2.04,3.55c.68,1.19,1.82,1.96,3.07,2.18.22,1.25.96,2.39,2.12,3.06l3.52,2.07c1.15.67,2.52.76,3.72.34.81,1,2.04,1.63,3.42,1.63h4.09c1.34,0,2.56-.62,3.38-1.63,1.18.44,2.54.35,3.71-.34l3.52-2.07c1.17-.68,1.92-1.82,2.14-3.06,1.28-.21,2.42-.99,3.04-2.18l2.05-3.56c.67-1.16.75-2.55.32-3.75,1-.81,1.62-2.05,1.62-3.45v-4.07c0-1.39-.62-2.64-1.62-3.45.3-.83.33-1.75.11-2.62h4.37c.11.16.26.37.36.5,1.53,2.22,2.14,2.47,4.74,2.47.13,0,.26,0,.39,0h35.43s.06,0,.1,0c5.26,0,9.87-1.45,13.61-3.62h31.57c-.45,1.07-.49,2.25-.09,3.3-.98.81-1.58,2.04-1.58,3.42v4.07c0,1.35.61,2.58,1.59,3.4-.46,1.21-.39,2.61.29,3.8l2.04,3.55c.68,1.18,1.83,1.95,3.09,2.17.2,1.25.95,2.4,2.11,3.08l3.54,2.04c1.14.7,2.51.8,3.7.37.81,1,2.04,1.62,3.42,1.62h4.09c1.36,0,2.6-.63,3.41-1.63,1.21.44,2.57.35,3.66-.33l3.62-2.09c1.12-.69,1.84-1.83,2.05-3.05,1.26-.22,2.42-.98,3.1-2.17l2.05-3.55c.68-1.19.75-2.58.3-3.78.98-.81,1.58-2.04,1.58-3.41v-4.07ZM172.66,51.69h-12.65c-2.54,0-5.06-2.2-5.5-4.76-.18-1.21.1-2.31.79-3.11.65-.76,1.62-1.17,2.73-1.17h12.51c.8,2.86,1.51,5.98,2.12,9.04ZM169.55,39.41h-11.53c-2.06,0-3.9.82-5.18,2.3-1.31,1.52-1.86,3.55-1.53,5.73.7,4.12,4.6,7.48,8.69,7.48h13.26c.56,3.03,1.02,5.88,1.39,8.16.14.86.27,1.69.4,2.48,0,.01,0,.02,0,.04.11.7.23,1.36.34,1.99.03.15.05.29.08.44.08.47.17.92.25,1.34.04.2.07.4.11.58.01.07.03.15.04.22h-35.07c-2.04,0-2.62-2.34-3.37-7.29-.8-5.23-1.78-11.75-8.2-12.46-5.61-.68-11.25-1.33-16.89-1.99-5.15-.6-10.32-1.2-15.48-1.82-3.21-.38-4.88-5.04-6.36-9.15-.48-1.35-.94-2.62-1.44-3.73-1.02-2.28,6.38-8.96,9.58-11.78l65.46,9.45c2.12.3,3.92,3.57,5.43,8.03ZM63.89,23.61c-.49.44-1.28.43-1.71-.03-.24-.25-.35-.57-.34-.91.01-.31.15-.59.4-.82L81.59,3.54c.26-.26.56-.31.74-.31,0,0,.02,0,.03,0,.3,0,.58.14.78.37.07.07.14.14.22.2.28.47.2,1.16-.2,1.58l-7.32,6.93s-.09.05-.13.08l-4.41,4.13c-.08.08-.13.18-.19.26l-7.2,6.82ZM81.26,24.88l-6.56-7.05,2.04-1.93,6.47,7.01c-.28.27-.55.56-.83.84-.26.25-.51.51-.76.77-.12.12-.24.24-.36.36ZM87.65,65.7l1.38,3.11.14.31h-36.19l-3.03-3.42h37.7ZM7.07,21c-.09-.45-.03-.84.18-1.1.22-.27.56-.32.8-.32,2.82,0,5.83,2.48,6.55,5.4l5.24,23c.17.73.82,1.26,1.58,1.26h20.98c2.43,0,4.4,2,4.4,4.46,0,.78-.62,1.42-1.39,1.42H14.9L7.07,21ZM45.7,99.94c0,.6-.41,1.1-.98,1.18-.63.09-1.15.55-1.32,1.17-.17.62.04,1.28.53,1.68.39.32.59.99.27,1.56l-2.08,3.61c-.25.48-.83.69-1.36.48-.61-.24-1.29-.1-1.75.36-.46.46-.59,1.16-.34,1.76.21.49-.03,1.11-.54,1.41l-3.52,2.07c-.5.29-1.09.18-1.44-.26-.39-.49-1.04-.71-1.65-.56-.61.15-1.08.65-1.19,1.27-.12.61-.61,1.07-1.16,1.07h-4.09c-.58,0-1.07-.42-1.15-1-.09-.64-.55-1.16-1.17-1.33-.14-.04-.29-.06-.43-.06-.48,0-.95.22-1.26.6-.35.44-1.01.55-1.51.27l-3.52-2.07c-.56-.33-.69-1.01-.51-1.48.22-.6.06-1.28-.41-1.73-.46-.44-1.15-.57-1.74-.31-.47.2-1.06-.04-1.36-.55l-2.04-3.55c-.3-.52-.17-1.18.29-1.54.51-.4.74-1.06.58-1.69-.17-.63-.69-1.09-1.33-1.19-.57-.08-.98-.58-.98-1.18v-4.07c0-.6.41-1.1.98-1.18.64-.09,1.17-.56,1.33-1.19.17-.63-.06-1.29-.58-1.69-.46-.36-.59-1.02-.29-1.53l2.05-3.56c.2-.34.54-.55.88-.59,0,0,.02,0,.03,0,.13-.03.27-.01.41.04.01,0,.03,0,.04,0,.16.07.33.04.5.06.14.01.28.07.42.05.19-.03.34-.16.51-.25.1-.06.23-.07.32-.16,0,0,0,0,0,0h0s.05-.12.1-.17c.16-.19.31-.4.36-.63.07-.3.06-.62-.05-.92-.17-.47-.05-1.15.52-1.48l3.51-2.06c.49-.29,1.16-.17,1.51.26.41.5,1.06.71,1.69.54.62-.17,1.08-.69,1.17-1.33.08-.58.57-1,1.15-1h4.09c.55,0,1.05.46,1.16,1.07.12.62.58,1.11,1.19,1.27.61.15,1.26-.06,1.65-.56.36-.44.95-.55,1.44-.26l3.52,2.07c.51.3.74.92.54,1.41-.25.6-.12,1.29.34,1.76.46.46,1.15.61,1.75.36.13-.05.27-.08.4-.08.39,0,.78.21,1,.63l2.04,3.54c.33.57.13,1.25-.26,1.56-.49.41-.7,1.07-.53,1.68.17.62.69,1.07,1.32,1.17.57.08.98.58.98,1.18v4.07ZM45.81,86.57l-.83-1.39c-.64-1.23-1.8-2.02-3.08-2.24-.22-1.24-.98-2.38-2.14-3.06l-3.52-2.07c-1.17-.69-2.53-.78-3.71-.34-.82-1-2.04-1.63-3.38-1.63h-4.09c-1.38,0-2.62.62-3.42,1.63-1.19-.42-2.57-.34-3.73.34l-3.51,2.06c-.09.05-.17.11-.26.16v-9.68h23.35c2.2,2.98,4.41,5.97,6.61,8.97,1.79,2.43,3.57,4.85,5.34,7.25h-3.63ZM92.81,89.54h-35.55c-.74.01-1.52.02-1.67-.04-.13-.09-.46-.57-.78-1.03-.27-.39-.59-.86-1.02-1.44-2.36-3.2-4.73-6.41-7.09-9.62-2.37-3.21-4.73-6.43-7.1-9.63-.3-.41-.79-.65-1.3-.65H4.15c-.28,0-.41-.08-.56-.31-.23-.38-.36-1.03-.36-1.79,0-2.92,1.81-6.68,3.73-6.68h32.09c1.96,2.19,3.91,4.4,5.87,6.6,2.04,2.3,4.08,4.6,6.12,6.88.11.13.26.21.4.29.05.03.09.08.14.11.21.09.43.14.66.14h57.87s.05,0,.08,0c.32,0,.6.03.86.06.16.02.28.06.42.09.11.03.23.05.32.08.12.04.21.09.31.13.09.04.19.09.27.14.07.04.13.09.19.13.1.08.19.16.27.24.02.03.05.05.07.08.21.25.34.54.41.83.08.3.1.64.1.98,0,.25-.03.51-.07.77-.02.11-.03.23-.06.35-.05.27-.12.56-.21.84-.05.17-.13.35-.19.53-.11.3-.23.59-.38.9-.2.41-.43.83-.69,1.25-.05.09-.11.17-.17.26-1.4,2.14-3.58,4.34-6.42,6.09-3.3,2.01-7.48,3.41-12.41,3.41ZM110.98,85.76c.45-.43.88-.86,1.29-1.3.04-.04.08-.08.12-.13.44-.5.86-1,1.24-1.51.02-.02.03-.04.05-.06.37-.51.72-1.01,1.02-1.53.03-.04.06-.09.08-.13.28-.47.52-.94.74-1.4.04-.09.09-.18.13-.26.19-.42.33-.83.47-1.25.14-.42.25-.84.33-1.25.04-.17.09-.34.11-.51.05-.31.06-.6.08-.9,0-.14.04-.28.04-.42,0-.04,0-.08-.01-.12,0-.27-.03-.53-.07-.79-.03-.21-.05-.43-.1-.63-.02-.1-.02-.2-.05-.3-.02-.08-.07-.13-.1-.2-.17-.55-.4-1.07-.72-1.51-.03-.04-.06-.07-.09-.1-.32-.43-.72-.79-1.17-1.11-.07-.05-.14-.11-.22-.16-.48-.3-1.03-.54-1.63-.72-.11-.03-.22-.06-.34-.08-.64-.15-1.31-.26-2.06-.26h-17.43l-14.79-33.5c-.08-.4.46-2.47,3.93-6.56.21-.25.42-.47.63-.7.01-.01.03-.02.04-.03.55-.64,1.13-1.25,1.71-1.84.19-.19.38-.39.57-.58.31-.31.63-.59.94-.88,2.77-2.56,5.16-4.09,5.95-4.1l2.83.41c-5.68,5.16-10.02,10.01-8.36,13.71.45.99.88,2.2,1.34,3.49,1.7,4.75,3.82,10.65,9.02,11.27,5.16.62,10.33,1.22,15.49,1.82,5.64.66,11.26,1.31,16.89,1.99,3.69.41,4.53,4.12,5.38,9.74.72,4.71,1.52,10.04,6.57,10.04h35.4c-.34,2.39-2.11,4.84-4.33,7.35-.03-.03-.07-.05-.1-.09-.27-.29-.57-.56-.93-.78l-3.54-2.04c-1.12-.69-2.51-.78-3.7-.35-.81-1-2.05-1.63-3.41-1.63h-4.09c-1.38,0-2.61.62-3.42,1.62-1.19-.43-2.54-.34-3.66.34l-3.59,2.07c-.29.17-.55.37-.79.59-.71.67-1.16,1.55-1.32,2.48-1.26.22-2.41.99-3.08,2.16v.02s-.01,0-.01,0v.02s-.45.76-.45.76h-28.96c.05-.05.1-.11.15-.16ZM176.75,99.94c0,.6-.41,1.1-.98,1.18-.64.09-1.17.56-1.33,1.19-.17.63.06,1.29.58,1.69.46.36.59,1.02.29,1.53l-2.05,3.55c-.3.53-.91.75-1.45.53-.61-.24-1.3-.1-1.75.36-.46.46-.59,1.16-.34,1.76.2.49-.02,1.13-.47,1.4l-3.62,2.09c-.43.26-1.07.13-1.41-.28-.4-.5-1.07-.72-1.69-.55-.62.17-1.08.69-1.17,1.33-.08.58-.57,1-1.15,1h-4.09c-.58,0-1.07-.42-1.15-1-.09-.64-.55-1.16-1.17-1.33-.14-.04-.29-.06-.43-.06-.48,0-.95.22-1.26.6-.34.42-.97.55-1.45.26l-3.57-2.06c-.49-.28-.69-.89-.48-1.41.25-.6.11-1.29-.34-1.76-.46-.46-1.16-.61-1.75-.36-.54.22-1.15,0-1.45-.54l-2.04-3.55c-.3-.52-.17-1.18.29-1.54.51-.4.74-1.06.58-1.69-.17-.63-.69-1.09-1.33-1.19-.57-.08-.98-.58-.98-1.18v-4.07c0-.6.41-1.1.98-1.18.64-.09,1.17-.56,1.33-1.19.17-.63-.06-1.29-.58-1.69-.46-.36-.59-1.02-.29-1.53l1.08-1.87s.06-.05.08-.09l.89-1.6c.3-.53.91-.75,1.45-.53.6.24,1.3.1,1.75-.36.46-.46.59-1.16.34-1.76-.22-.52-.01-1.12.47-1.4l3.62-2.09c.44-.27,1.07-.14,1.41.28.41.5,1.06.71,1.69.54.62-.17,1.08-.69,1.17-1.33.08-.58.57-1,1.15-1h4.09c.58,0,1.07.42,1.15,1,.09.64.55,1.16,1.17,1.33.62.18,1.28-.04,1.69-.55.34-.42.98-.55,1.45-.26l3.54,2.04c.16.1.28.24.38.39.03.04.05.08.07.12.08.16.14.33.14.51,0,0,0,.01,0,.02,0,.14-.02.27-.07.39-.25.6-.11,1.29.34,1.76.46.46,1.15.61,1.75.36.54-.22,1.15,0,1.45.54l2.04,3.55c.3.52.17,1.18-.29,1.53-.51.4-.74,1.06-.58,1.69.17.63.69,1.1,1.33,1.19.57.08.98.58.98,1.18v4.07Z" />
    <path class="st2" d="M158.15,88.31c-5.23,0-9.48,4.32-9.48,9.62s4.25,9.56,9.48,9.56,9.48-4.29,9.48-9.56-4.25-9.62-9.48-9.62ZM158.15,104.27c-3.45,0-6.25-2.84-6.25-6.33s2.8-6.4,6.25-6.4,6.25,2.87,6.25,6.4-2.8,6.33-6.25,6.33Z" />
  </g>
  <metadata></metadata>
</svg>