<?xml version="1.0" encoding="UTF-8"?>
<svg id="Layer_1" xmlns="http://www.w3.org/2000/svg" version="1.1" xmlns:i="http://ns.adobe.com/AdobeIllustrator/10.0/" viewBox="0 0 193.21 153.01">
  <defs>
    <style>
      .st0 {
        fill: #00f5ff;
      }

      .st1 {
        fill: #290f87;
      }
    </style>
  </defs>
  <path class="st0" d="M33.05,94.28s2.65,32.21,2.65,37.14l-2.65,9.47s-2.65,5.68,9.47,4.55l116.34-1.14,17.81.38s7.96,1.52,6.44-7.58v-33.73l1.52-11.75-151.58,2.65Z" />
  <polygon class="st0" points="46.31 46.53 31.15 48.8 27.81 64.63 110.73 61.69 184.62 62.44 190.31 60.93 187.66 49.94 46.31 46.53" />
  <path class="st1" d="M8.23,38.23L149.54.37c2.91-.78,5.95-.31,8.38,1.13,2.47,1.43,4.38,3.78,5.21,6.73l9.99,37.29c.43,1.65-.52,3.3-2.17,3.78-.26.04-.52.09-.78.09H35.84c-1.35,0-2.61.57-3.52,1.43v.04h0c-.91.91-1.43,2.13-1.43,3.51v84.53c0,1.69-1.39,3.08-3.08,3.08-1,0-1.87-.48-2.43-1.17-.48-.61-.96-1.26-1.35-2-.43-.78-.78-1.56-1-2.43L.37,51.82c-.78-2.95-.3-5.95,1.13-8.42l.13-.18c1.43-2.39,3.73-4.21,6.6-4.99h0ZM151.1,6.28L9.84,44.13c-1.3.35-2.34,1.17-2.95,2.21l-.09.13c-.65,1.09-.87,2.43-.52,3.78l18.45,68.85V54.38c0-3.08,1.26-5.86,3.26-7.86h.04c2-2,4.77-3.25,7.81-3.25h130.33l-8.94-33.47c-.39-1.3-1.26-2.35-2.34-2.99-1.13-.65-2.48-.87-3.78-.52h0Z" />
  <path class="st1" d="M35.84,43.26h146.26c3.08,0,5.82,1.26,7.86,3.25h0c2,2,3.26,4.78,3.26,7.86v87.52c0,3.08-1.26,5.86-3.26,7.86l-.17.17c-2.04,1.91-4.73,3.08-7.68,3.08H35.84c-3.04,0-5.82-1.26-7.81-3.26h-.04c-2-2-3.26-4.77-3.26-7.86V54.38c0-3.08,1.26-5.86,3.26-7.86l.22-.17c2-1.91,4.69-3.08,7.64-3.08h0ZM182.1,49.38H35.84c-1.3,0-2.52.52-3.39,1.35l-.13.13c-.91.91-1.43,2.13-1.43,3.51v87.52c0,1.39.52,2.61,1.43,3.52h0v.04c.91.87,2.17,1.43,3.52,1.43h146.26c1.34,0,2.52-.52,3.39-1.34l.13-.13c.91-.91,1.48-2.13,1.48-3.52V54.38c0-1.39-.57-2.6-1.48-3.51h0v-.04c-.87-.87-2.13-1.43-3.51-1.43h0Z" />
  <path class="st1" d="M27.81,64.63h162.36c1.69,0,3.04,1.39,3.04,3.08v20.92c0,1.7-1.35,3.04-3.04,3.04H27.81c-1.69,0-3.08-1.34-3.08-3.04v-20.92c0-1.69,1.39-3.08,3.08-3.08h0ZM187.09,70.75H30.89v14.8h156.2v-14.8Z" />
  <path class="st1" d="M144.07,110.77h26.44c1.35,0,2.52.57,3.39,1.43.87.83,1.39,2.04,1.39,3.34v17.5c0,1.35-.52,2.52-1.39,3.39-.87.87-2.04,1.39-3.39,1.39h-26.44c-1.35,0-2.52-.52-3.39-1.39-.87-.87-1.39-2.04-1.39-3.39v-17.5c0-1.3.52-2.52,1.39-3.34.87-.87,2.04-1.43,3.39-1.43h0ZM169.16,116.89h-23.75v14.8h23.75v-14.8Z" />
  <path class="st1" d="M55.38,131.7c1.69,0,3.08,1.39,3.08,3.08s-1.39,3.04-3.08,3.04h-9.64c-1.69,0-3.08-1.35-3.08-3.04s1.39-3.08,3.08-3.08h9.64Z" />
  <path class="st1" d="M103.18,131.7c1.69,0,3.08,1.39,3.08,3.08s-1.39,3.04-3.08,3.04h-33.78c-1.69,0-3.08-1.35-3.08-3.04s1.39-3.08,3.08-3.08h33.78Z" />
  <metadata></metadata>
</svg>