<?xml version="1.0" encoding="UTF-8"?>
<svg id="Layer_1" xmlns="http://www.w3.org/2000/svg" version="1.1" xmlns:i="http://ns.adobe.com/AdobeIllustrator/10.0/" viewBox="0 0 141.73 141.73">
  <defs>
    <style>
      .st0 {
        fill: none;
        stroke: #424248;
        stroke-miterlimit: 10;
        stroke-width: 6.71px;
      }

      .st1 {
        fill: #aeb4ff;
      }

      .st2 {
        fill: #290f87;
      }
    </style>
  </defs>
  <path class="st1" d="M43.2,23.87l69.73,80.72,12.88-17.43-2.27-36.76s-21.98-34.11-80.34-26.53Z" />
  <path class="st1" d="M102.69,116.72L22.74,44.34S-.76,132.25,102.69,116.72Z" />
  <path class="st0" d="M-191.75,70.26" />
  <g>
    <path class="st2" d="M70.86,12.41c-13.29,0-25.82,4.35-36.23,12.59-.52.41-.84,1.02-.87,1.68-.04.66.21,1.3.67,1.77l78.85,78.85c.44.44,1.03.68,1.64.68.04,0,.09,0,.13,0,.66-.04,1.27-.36,1.68-.88,8.23-10.41,12.59-22.94,12.59-36.23,0-32.23-26.22-58.45-58.45-58.45ZM114.67,102.14L39.59,27.06c9.15-6.56,19.91-10.02,31.27-10.02,29.68,0,53.82,24.14,53.82,53.82,0,11.36-3.45,22.12-10.02,31.27Z" />
    <path class="st2" d="M28.45,34.43c-.47-.47-1.11-.72-1.77-.67-.66.04-1.27.36-1.68.87-8.23,10.41-12.59,22.94-12.59,36.23,0,32.23,26.22,58.45,58.45,58.45,13.29,0,25.82-4.35,36.23-12.59.52-.41.84-1.02.88-1.68.04-.66-.21-1.3-.67-1.77L28.45,34.43ZM70.86,124.68c-29.68,0-53.82-24.14-53.82-53.82,0-11.37,3.45-22.12,10.02-31.27l75.08,75.08c-9.15,6.56-19.91,10.02-31.27,10.02Z" />
    <path class="st2" d="M70.86,22.49c-1.28,0-2.32,1.04-2.32,2.32s1.04,2.32,2.32,2.32c16.27,0,31.1,8.95,38.71,23.36.42.79,1.22,1.24,2.05,1.24.36,0,.73-.09,1.08-.27,1.13-.6,1.56-2,.97-3.13-8.41-15.93-24.81-25.83-42.8-25.83Z" />
    <path class="st2" d="M70.86,0C31.79,0,0,31.79,0,70.86s31.79,70.86,70.86,70.86,70.86-31.79,70.86-70.86S109.94,0,70.86,0ZM70.86,137.09c-36.52,0-66.23-29.71-66.23-66.23S34.34,4.63,70.86,4.63s66.23,29.71,66.23,66.23-29.71,66.23-66.23,66.23Z" />
  </g>
  <metadata></metadata>
</svg>