<?xml version="1.0" encoding="UTF-8"?>
<svg id="Layer_1" xmlns="http://www.w3.org/2000/svg" version="1.1" xmlns:i="http://ns.adobe.com/AdobeIllustrator/10.0/" viewBox="0 0 142.48 118.79">
  <defs>
    <style>
      .st0 {
        fill: none;
        stroke: #424248;
        stroke-miterlimit: 10;
        stroke-width: 6.71px;
      }

      .st1 {
        fill: #f8a83a;
      }

      .st2 {
        fill: #290f87;
      }
    </style>
  </defs>
  <path class="st1" d="M41.31,16.87l-30.69-3.79s-2.27,15.54-2.27,16.67,7.96,66.69,7.96,66.69l18.57,1.89,20.84-4.55,5.68,8.34,21.98.76,3.41.38,10.61-10.99s28.8,3.41,28.8,4.55,5.68-82.99,5.68-82.99l-12.13-6.06-10.23,1.14-9.85,4.17s13.26,13.64,10.99,22.36c0,0,9.47,34.86-32.59,49.64,0,0-30.32,11.37-51.16-30.69,0,0,1.89-35.62,14.4-37.52Z" />
  <path class="st0" d="M-655.2,80.69" />
  <g>
    <path class="st2" d="M133.58,118.79H8.91c-4.91,0-8.91-4-8.91-8.91v-11.92c0-1.66,1.35-3.01,3.01-3.01h47.4c.8,0,1.57.32,2.13.88l5.15,5.15h27.07l5-5.12c.57-.58,1.35-.91,2.16-.91h47.54c1.66,0,3.01,1.35,3.01,3.01v11.92c0,4.91-3.99,8.91-8.9,8.91ZM6.03,100.97v8.9c0,1.56,1.32,2.88,2.88,2.88h124.67c1.56,0,2.87-1.32,2.87-2.88v-8.9h-43.26l-5,5.12c-.57.58-1.35.91-2.16.91h-29.59c-.8,0-1.57-.32-2.13-.88l-5.15-5.15H6.03Z" />
    <path class="st2" d="M8.91,100.97c-1.66,0-3.01-1.35-3.01-3.01V14.94c0-4.91,3.99-8.9,8.9-8.9h17.95c1.66,0,3.01,1.35,3.01,3.01s-1.35,3.01-3.01,3.01H14.8c-1.56,0-2.87,1.32-2.87,2.87v83.02c0,1.66-1.35,3.01-3.01,3.01Z" />
    <path class="st2" d="M133.58,100.97c-1.66,0-3.01-1.35-3.01-3.01V14.94c0-1.58-1.35-2.87-3.01-2.87h-17.95c-1.66,0-3.01-1.35-3.01-3.01s1.35-3.01,3.01-3.01h17.95c4.99,0,9.04,3.99,9.04,8.9v83.02c0,1.66-1.35,3.01-3.01,3.01Z" />
    <path class="st2" d="M71.17,62.41c-9.95,0-17.74-5.76-17.74-13.11,0-1.66,1.35-3.01,3.01-3.01s3.01,1.35,3.01,3.01c0,3.84,5.36,7.08,11.71,7.08s11.85-3.24,11.85-7.08c0-3.49-4.76-7.22-11.85-7.22-7.9,0-14.09-4.65-14.09-10.59s6.19-10.73,14.09-10.73c5.8,0,11.1,2.68,13.19,6.66.77,1.48.2,3.3-1.27,4.07-1.47.78-3.3.21-4.07-1.27-.89-1.71-3.87-3.43-7.85-3.43-4.75,0-8.06,2.48-8.06,4.7s3.31,4.56,8.06,4.56c10.03,0,17.88,5.82,17.88,13.25s-7.85,13.11-17.88,13.11Z" />
    <path class="st2" d="M71.17,68.44c-1.66,0-3.01-1.35-3.01-3.01v-6.03c0-1.66,1.35-3.01,3.01-3.01s3.01,1.35,3.01,3.01v6.03c0,1.66-1.35,3.01-3.01,3.01Z" />
    <path class="st2" d="M71.17,26.79c-1.66,0-3.01-1.35-3.01-3.01v-5.89c0-1.66,1.35-3.01,3.01-3.01s3.01,1.35,3.01,3.01v5.89c0,1.66-1.35,3.01-3.01,3.01Z" />
    <path class="st2" d="M71.17,83.16c-22.93,0-41.58-18.65-41.58-41.58S48.24,0,71.17,0s41.58,18.65,41.58,41.58-18.65,41.58-41.58,41.58ZM71.17,6.03c-19.6,0-35.55,15.95-35.55,35.55s15.95,35.55,35.55,35.55,35.55-15.95,35.55-35.55S90.78,6.03,71.17,6.03Z" />
  </g>
  <metadata></metadata>
</svg>