<?xml version="1.0" encoding="UTF-8"?>
<svg id="Layer_1" xmlns="http://www.w3.org/2000/svg" version="1.1" xmlns:i="http://ns.adobe.com/AdobeIllustrator/10.0/" viewBox="0 0 128.85 152.18">
  <defs>
    <style>
      .st0 {
        stroke: #290f87;
      }

      .st0, .st1 {
        fill: none;
        stroke-linecap: round;
        stroke-linejoin: round;
        stroke-width: 5.23px;
      }

      .st1 {
        stroke: #fff;
      }

      .st2 {
        fill: #290f87;
      }
    </style>
  </defs>
  <path class="st2" d="M109.98,28.3s7.07,67.71-55.58,108.63c0,0-33.35-37.89-39.41-55.58,0,0-7.58-43.45-2.53-47.49,0,0,24.67-3.52,30-6.87.38-.24.66-.47.83-.71,2.53-3.54,19.71-11.62,18.19-18.69,0,0,34.86,21.73,48.51,20.72Z" />
  <g>
    <g>
      <path class="st0" d="M126.23,31.49v11.14c0,43.88-23.68,84.86-61.79,106.94" />
      <path class="st0" d="M59.19,2.62C48.24,17.01,27.01,26.78,2.62,26.78v15.85c0,41.85,22.79,78.31,56.57,97.88,33.79-19.57,56.57-56.03,56.57-97.88v-15.85c-24.4,0-45.62-9.76-56.57-24.16Z" />
    </g>
    <polyline class="st1" points="98.95 42.2 56.57 102.74 29.16 67.87" />
  </g>
  <metadata></metadata>
</svg>