<?xml version="1.0" encoding="UTF-8"?>
<svg id="Layer_1" xmlns="http://www.w3.org/2000/svg" version="1.1" xmlns:i="http://ns.adobe.com/AdobeIllustrator/10.0/" viewBox="0 0 235.46 146.4">
  <defs>
    <style>
      .st0 {
        fill: #e1bbc8;
      }

      .st1 {
        fill: none;
        stroke: #290f87;
        stroke-linecap: round;
        stroke-linejoin: round;
        stroke-width: 5.23px;
      }
    </style>
  </defs>
  <path class="st0" d="M175.56,17.81l14.02,19.71s7.2,15.92,9.09,25.39l.76,9.47s30.18-9.09,35.28-14.35c.41-.42.66-.82.72-1.19.76-4.93-19.71-29.56-22.36-40.55,0,0-14.78-12.51-17.43-12.88l-20.08,14.4Z" />
  <path class="st1" d="M167.99,18.3l-13.07,7.84s-27.17-.86-36.14-.02c-5.41.5-17.59,5.94-23.68,8.8-2.33,1.09-4.15,2.99-5.17,5.35l-10.16,23.73s0,3.89,3.87,7.81c3.93,3.9,12.59,2.44,15.64,0,4.43-3.56,13.81-19.52,13.81-19.52h23.53" />
  <path class="st1" d="M194.13,57.51s-4.28-20.25-26.14-39.21l26.14-15.69" />
  <path class="st1" d="M181.06,88.88s2.8-5.81,4.12-10.6l8.95-5.09" />
  <path class="st1" d="M141.85,73.2l31.51,27.95c3.95,3.52,4.22,9.55.76,13.44h0c-3.5,3.9-9.54,4.22-13.43.72l-26.68-21.19" />
  <path class="st1" d="M164.67,128.1c-.37.74-.85,1.44-1.43,2.08h0c-3.51,3.91-9.54,4.23-13.44.72l-21.02-15.88" />
  <path class="st1" d="M141.88,138.56c-3.43,1.92-7.88,1.56-11.02-1.23l-4.7-3.99" />
  <path class="st1" d="M32.05,2.61l31.37,23.53s10.07-3.74,26.14-2.61" />
  <path class="st1" d="M58.19,39.21s-7.97,27.08-26.14,36.6c0,0,5.24,4.38,7.84,7.84" />
  <path class="st1" d="M68.09,92.13c.43.5.78,1.04,1.05,1.6,1.61,3.24.86,7.29-2.01,9.71l-9.43,7.05c-3.43,2.86-8.44,2.41-11.36-.96l-1.33-1.62c-2.85-3.44-2.41-8.5.96-11.36l9.42-7.05c3.44-2.86,8.44-2.4,11.3.97l1.39,1.67Z" />
  <path class="st1" d="M81.72,93.74c2.26.06,4.48,1.04,6.05,2.9l1.42,1.65c2.91,3.5,2.44,8.66-1,11.56l-15.25,12.11c-3.43,2.91-8.6,2.45-11.51-.99l-1.42-1.7c-2.31-2.73-2.44-7.1-.67-10.01" />
  <path class="st1" d="M102.63,104.44c.88.48,1.7,1.13,2.39,1.93l1.44,1.73c2.95,3.5,2.49,8.74-1,11.69l-17.07,13.99c-3.48,2.95-8.73,2.49-11.67-1.01l-1.44-1.73c-2.95-3.48-2.48-8.8,1-11.74" />
  <path class="st1" d="M114.22,125.68c2.8,3.31,2.35,8.29-.96,11.09l-6.59,5.18c-3.31,2.8-8.29,2.36-11.09-1l-1.37-1.6c-2.8-3.32-2.32-8.37,1.04-11.17" />
  <path class="st0" d="M25.5,6.45s27.66,21.98,30.69,20.84.38,1.52.38,1.52c0,0-4.17,11.37-12.13,21.6,0,0-15.92,19.71-20.46,24.63,0,0-21.98-28.42-23.87-27.28-1.89,1.14,21.22-25.77,25.39-41.31Z" />
  <metadata></metadata>
</svg>