<?xml version="1.0" encoding="UTF-8"?>
<svg id="Layer_1" xmlns="http://www.w3.org/2000/svg" version="1.1" xmlns:i="http://ns.adobe.com/AdobeIllustrator/10.0/" viewBox="0 0 132.34 152.16">
  <defs>
    <style>
      .st0 {
        fill: #e1bbc8;
      }

      .st1 {
        fill: none;
        stroke: #424248;
        stroke-miterlimit: 10;
        stroke-width: 6.71px;
      }

      .st2 {
        fill: #290f87;
      }
    </style>
  </defs>
  <path class="st1" d="M-44.63,76.49" />
  <g>
    <ellipse class="st0" cx="61.14" cy="78.38" rx="41.22" ry="36.92" transform="translate(-30.54 116.81) rotate(-74.78)" />
    <path class="st2" d="M57.14,128.48c-.74-.76-1.97-.78-2.73-.03-.76.74-.78,1.97-.03,2.73l7.04,7.2c-6.98-.52-13.75-2.2-20.17-5-7.38-3.23-13.99-7.8-19.65-13.59-5.66-5.79-10.07-12.51-13.12-19.96-3.16-7.72-4.71-15.9-4.61-24.31.16-13.38,4.48-26.08,12.51-36.73,3.86-5.13,8.48-9.62,13.71-13.34,5.29-3.77,11.11-6.67,17.28-8.62,1.02-.32,1.58-1.41,1.26-2.42-.32-1.02-1.41-1.58-2.42-1.26-6.55,2.07-12.73,5.15-18.35,9.15-5.55,3.95-10.45,8.72-14.55,14.16C4.77,47.78.17,61.27,0,75.48c-.1,8.93,1.54,17.62,4.9,25.82,3.24,7.92,7.93,15.05,13.93,21.2,6,6.15,13.02,11,20.86,14.43,6.87,3,14.13,4.79,21.61,5.33l-6.76,6.61c-.76.74-.78,1.97-.03,2.73.38.39.88.58,1.38.58s.97-.18,1.35-.55l10.13-9.89c.37-.36.58-.85.58-1.36,0-.51-.19-1-.55-1.37l-10.26-10.51h0Z" />
    <path class="st2" d="M127.44,50.87c-3.24-7.92-7.93-15.05-13.93-21.2-6-6.15-13.02-11-20.86-14.43-6.87-3-14.13-4.79-21.61-5.33l6.76-6.61c.76-.74.78-1.97.03-2.73-.74-.76-1.97-.78-2.73-.03l-10.13,9.89c-.37.36-.58.85-.58,1.36,0,.51.19,1.01.55,1.37l10.26,10.51c.38.39.88.58,1.38.58.49,0,.97-.18,1.35-.55.76-.74.78-1.97.03-2.73l-7.04-7.2c6.98.52,13.75,2.2,20.17,5.01,7.38,3.23,13.99,7.8,19.65,13.59,5.66,5.79,10.07,12.51,13.12,19.96,3.16,7.72,4.71,15.9,4.61,24.31-.16,13.38-4.48,26.08-12.51,36.73-3.86,5.13-8.48,9.61-13.71,13.34-5.29,3.77-11.11,6.67-17.28,8.62-1.02.32-1.58,1.41-1.26,2.42.26.82,1.02,1.35,1.84,1.35.19,0,.39-.03.58-.09,6.55-2.07,12.73-5.15,18.35-9.15,5.55-3.95,10.45-8.72,14.55-14.16,8.53-11.31,13.12-24.8,13.29-39.01.11-8.93-1.54-17.62-4.9-25.82h0Z" />
    <path class="st2" d="M66.16,31.56c.18,0,.36,0,.54,0,11.89.14,23.01,4.9,31.32,13.41,8.31,8.51,12.81,19.74,12.67,31.63-.14,11.89-4.9,23.01-13.41,31.32-8.51,8.31-19.74,12.81-31.63,12.67-11.89-.14-23.01-4.9-31.32-13.41-8.31-8.51-12.81-19.74-12.67-31.63.14-11.89,4.9-23.01,13.41-31.32,8.38-8.18,19.4-12.67,31.09-12.67h0ZM32.37,41.47c-4.49,4.39-8.04,9.52-10.55,15.25-2.59,5.94-3.95,12.26-4.02,18.79-.08,6.53,1.13,12.88,3.58,18.87,2.37,5.79,5.8,11,10.19,15.5,4.39,4.49,9.52,8.04,15.25,10.55,5.94,2.59,12.26,3.95,18.79,4.02.2,0,.39,0,.59,0,6.32,0,12.47-1.2,18.29-3.58,5.79-2.37,11-5.79,15.5-10.18,4.49-4.39,8.04-9.52,10.55-15.25,2.59-5.94,3.95-12.26,4.02-18.79.08-6.53-1.13-12.88-3.58-18.87-2.37-5.79-5.79-11-10.18-15.5-4.39-4.49-9.52-8.04-15.25-10.55-5.94-2.59-12.26-3.95-18.79-4.02-6.53-.08-12.88,1.13-18.87,3.58-5.79,2.37-11,5.8-15.5,10.19h0Z" />
    <path class="st2" d="M57.45,69.64c-1.28-1.53-1.97-3.41-1.98-5.45-.01-2,.66-4,1.88-5.63,1.89-2.51,4.43-3.97,7.55-4.36l-.2,16.96h0s-.02,1.94-.02,1.94c-3.17-.35-5.6-1.51-7.23-3.46h0ZM77.26,81.77c1.45,1.73,2.22,3.86,2.23,6.16.01,2.26-.74,4.52-2.12,6.35-2.26,3-5.33,4.67-9.14,4.97l.25-21.45c3.88.31,6.82,1.64,8.77,3.97h0ZM64.33,103.04l-.05,3.96c-.01,1.07.84,1.94,1.91,1.95h.02c1.05,0,1.92-.85,1.93-1.91l.05-3.93c6.32-.39,10.14-3.7,12.26-6.52,1.89-2.5,2.92-5.59,2.9-8.7-.02-3.17-1.13-6.23-3.14-8.62-2.69-3.21-6.62-5.01-11.69-5.35l.02-1.31h0s.22-18.43.22-18.43c3.47.31,6.04,1.38,7.64,3.18,1.66,1.86,1.98,4.17,1.96,5.78-.01,1.07.84,1.94,1.91,1.95,0,0,.02,0,.02,0,1.06,0,1.92-.85,1.93-1.91.03-2.29-.46-5.6-2.94-8.39-2.33-2.62-5.85-4.12-10.48-4.49l.06-5.16c.01-1.07-.84-1.94-1.91-1.95-1.06-.01-1.94.84-1.95,1.91l-.06,5.19c-5.46.51-8.79,3.42-10.68,5.92-1.73,2.3-2.68,5.13-2.66,7.97.02,2.91,1.04,5.71,2.88,7.91,2.37,2.83,5.78,4.46,10.15,4.86l-.26,22.19c-3.8-.37-6.62-1.57-8.4-3.57-1.88-2.11-2.25-4.72-2.22-6.53.01-1.07-.84-1.94-1.91-1.95-1.07-.02-1.94.84-1.95,1.91-.03,2.5.5,6.11,3.2,9.14,2.5,2.81,6.27,4.45,11.24,4.88h0Z" />
  </g>
  <metadata></metadata>
</svg>