<?xml version="1.0" encoding="UTF-8"?>
<svg id="Layer_1" xmlns="http://www.w3.org/2000/svg" version="1.1" xmlns:i="http://ns.adobe.com/AdobeIllustrator/10.0/" viewBox="0 0 156.88 169.93">
  <defs>
    <style>
      .st0 {
        fill: #aeb4ff;
      }

      .st1 {
        fill: #290f87;
      }
    </style>
  </defs>
  <g>
    <g>
      <path class="st1" d="M132.17,147.27h-18.47c-1.49,0-2.7-1.21-2.7-2.7s1.21-2.7,2.7-2.7h18.47c1.49,0,2.7,1.21,2.7,2.7s-1.21,2.7-2.7,2.7Z" />
      <g>
        <path class="st1" d="M154.18,169.93c-1.41,0-2.6-1.09-2.7-2.52l-2.94-41.69c0-.06,0-.13,0-.19,0-7.29-5.13-13.82-11.67-14.87l-32.3-5.64c-1.47-.26-2.46-1.66-2.2-3.13.26-1.47,1.66-2.46,3.13-2.2l32.26,5.63c9.18,1.47,16.14,10.11,16.19,20.11l2.93,41.59c.11,1.49-1.02,2.78-2.51,2.89-.06,0-.13,0-.19,0Z" />
        <path class="st1" d="M2.71,169.93c-.06,0-.13,0-.19,0-1.49-.1-2.61-1.4-2.51-2.89l2.93-41.59c.04-10.32,6.7-18.59,16.22-20.11l32.22-5.62c1.47-.26,2.87.73,3.13,2.2.26,1.47-.73,2.87-2.2,3.13l-32.26,5.63c-7.02,1.12-11.71,7.1-11.71,14.88,0,.06,0,.13,0,.19l-2.94,41.69c-.1,1.43-1.29,2.52-2.7,2.52Z" />
      </g>
    </g>
    <g>
      <path class="st1" d="M36.78,107.41c-1.49,0-2.7-1.21-2.7-2.7l-.03-58.99C34.05,20.51,53.96,0,78.44,0s44.39,20.51,44.39,45.71v58.99c0,1.49-1.21,2.7-2.7,2.7s-2.7-1.21-2.7-2.7v-58.99c0-22.22-17.49-40.3-38.98-40.3s-38.98,18.08-38.98,40.3l.03,58.99c0,1.49-1.21,2.71-2.7,2.71h0Z" />
      <g>
        <path class="st1" d="M106.92,100.43c-3.31-3.21-7.7-7.47-11.97-11.61-1.25,1.39-2.57,2.63-3.96,3.7l11.29,10.95c-.76,9.19-10.74,22.28-23.84,22.28s-23.08-13.1-23.84-22.28l11.29-10.95c-1.38-1.07-2.7-2.31-3.96-3.7-6.11,5.93-11.85,11.49-11.97,11.61-.53.51-.82,1.21-.82,1.94,0,12.96,13.52,28.79,29.3,28.79s29.3-15.83,29.3-28.79c0-.73-.3-1.43-.82-1.94Z" />
        <path class="st1" d="M78.44,99.79c-8.74,0-16.87-5.33-22.88-15-5.76-9.27-8.93-21.55-8.93-34.56,0-1.49,1.21-2.7,2.7-2.7s2.7,1.21,2.7,2.7c0,24.35,11.84,44.16,26.4,44.16s26.4-19.81,26.4-44.16c0-1.49,1.21-2.7,2.7-2.7s2.7,1.21,2.7,2.7c0,13.01-3.17,25.29-8.93,34.56-6.01,9.68-14.13,15-22.88,15Z" />
      </g>
      <path class="st1" d="M95.8,54.45c-17.02,0-32.55-9.04-38.65-22.49-.62-1.36-.01-2.96,1.35-3.58,1.36-.62,2.96-.01,3.58,1.35,5.24,11.55,18.79,19.31,33.72,19.31,3.78,0,7.5-.48,11.05-1.43,1.45-.39,2.93.47,3.31,1.92.38,1.44-.47,2.93-1.92,3.31-4.01,1.07-8.2,1.61-12.45,1.61Z" />
    </g>
  </g>
  <path class="st0" d="M8.53,168.44s71.13-11.65,93.39-.52c.52.26,36.26,4.7,41.74.52,0,0,6,1.83,6.78-3.39l-4.17-38.35s-1.57-12.26-12-13.57l-28.44-6s2.61,21.65-8.87,25.57c-11.48,3.91-29.74,4.17-40.44-8.87l-8.61-16.44s-35.48,3.91-35.48,14.35l-3.65,45.65-.26,1.04Z" />
  <metadata></metadata>
</svg>