<?xml version="1.0" encoding="utf-8"?>
<!-- Generator: Adobe Illustrator 24.2.1, SVG Export Plug-In . SVG Version: 6.00 Build 0)  -->
<svg version="1.1" id="Layer_1" xmlns="http://www.w3.org/2000/svg" xmlns:xlink="http://www.w3.org/1999/xlink" x="0px" y="0px" viewBox="0 0 140 150" style="enable-background:new 0 0 140 150;" xml:space="preserve">
  <style type="text/css">
	.st0{fill:#FFFFFF;}
	.st1{fill:#CE0E2D;}
	.st2{fill:#FFFFFF;stroke:#000000;stroke-width:0.1305;stroke-miterlimit:10;}
	.st3{display:none;}
	.st4{fill:#85090E;}
	.st5{fill:#FFFFFF;stroke:#000000;stroke-width:0.261;stroke-miterlimit:10;}
	.st6{fill:none;stroke:#000000;stroke-width:0.9134;stroke-miterlimit:10;}
</style>
  <g>
    <polygon class="st0" points="43.3,141.89 24.58,122.97 24.56,33.68 43.24,14.8 115.38,14.8 133.01,32.61 133.01,58.25 
		104.04,58.25 104.04,54.14 93.5,43.51 65.03,43.51 54.46,54.19 54.46,101.67 65.07,111.75 93.43,111.75 103.39,101.61 
		103.39,97.79 132.67,97.79 132.75,101.11 132.75,124.34 115.4,141.89 	" />
    <path d="M113.99,18.13l15.69,15.85v20.94h-22.31v-2.15L94.89,40.18H63.64L51.13,52.82v50.27l12.61,11.98h31.09l11.89-12.1v-1.86
		h22.63h0.08v0.32v21.54l-15.41,15.59H44.69L27.91,121.6l-0.02-86.55l16.75-16.92H113.99 M116.77,11.48h-2.78H44.63h-2.78
		l-1.95,1.97L23.16,30.37l-1.93,1.95l0,2.74l0.02,86.55l0,2.73l1.92,1.94l16.78,16.96l1.95,1.97h2.78h69.33h2.78l1.95-1.98
		l15.41-15.59l1.92-1.94v-2.73v-21.54v-0.32v-6.65h-6.65h-0.08h-22.63h-6.65v5.79l-8.02,8.17H66.4l-8.61-8.18V55.56l8.63-8.72h25.69
		l8.6,8.68v6.07h6.65h22.31h6.65v-6.65V33.98v-2.74l-1.92-1.94l-15.69-15.85L116.77,11.48L116.77,11.48z" />
    <path class="st1" d="M113.99,18.13l15.69,15.85v20.94h-22.31v-2.15L94.89,40.18H63.64L51.13,52.82v50.27l12.61,11.98h31.09
		l11.89-12.1v-1.86h22.63h0.08v0.32v21.54l-15.41,15.59H44.69L27.91,121.6l-0.02-86.55l16.75-16.92H113.99 M115.62,14.22h-1.63
		H44.63H43l-1.15,1.16L25.1,32.3l-1.13,1.14l0,1.61l0.02,86.55l0,1.61l1.13,1.14l16.78,16.96l1.15,1.16h1.63h69.33h1.63l1.15-1.16
		l15.41-15.59l1.13-1.14v-1.61v-21.54v-0.32V97.2h-3.91h-0.08h-22.63h-3.91v3.91v0.26l-9.61,9.79H65.3l-10.26-9.75V54.43L65.28,44.1
		h27.98l10.2,10.29v0.54v3.91h3.91h22.31h3.91v-3.91V33.98v-1.61l-1.13-1.14l-15.69-15.85L115.62,14.22L115.62,14.22z" />
  </g>
  <g>
    <path class="st0" d="M49.08,63.9l-0.48-0.3l-0.28,0.5c1.3,0.95,2.4,2.15,3.24,3.52c1.48-0.64,3.76-1.37,5.32-1.79
		C54.32,64.99,51.72,64.34,49.08,63.9" />
    <path class="st0" d="M41.56,59.44c1.83,0.6,3.57,1.5,5.13,2.66c1.18-0.72,3.09-1.35,4.36-1.91c-2.91-0.42-5.85-0.66-8.79-0.73" />
    <path d="M53.03,68.03c0.24-0.12,0.47-0.22,0.72-0.31c1.79-0.7,3.66-1.19,5.57-1.44l0,0c-3.3-2.07-10.95-3.07-10.98-3.07
		c0.78-0.58,1.63-1.04,2.54-1.37c1.38-0.56,2.72-0.93,2.88-0.99l0,0c-3.75-1.39-11.45-1.37-11.46-1.38
		c0.24-0.89,3.24-2.35,3.24-2.35c-6.16-0.87-9.85,1.2-9.85,1.21c-2.69-0.62-3.24-0.18-3.24,1.37c0,0-0.8,1.37-0.43,1.22
		c0.54-0.22,1.03-0.54,1.42-0.97c-0.13-0.3-0.13-0.65,0-0.95c0,0,16.62,0.4,20.51,14.99c0.51,0.51,1.27,0.66,1.94,0.38
		c4.22-1.65,6.48-0.86,6.48-0.86C61.26,71.93,53.03,68.03,53.03,68.03 M37.37,58.75c1.76-0.72,3.64-1.14,5.54-1.23
		c-0.68,0.64-1.22,1.4-1.6,2.24C40.03,59.32,38.71,58.99,37.37,58.75 M48.83,63.89c2.64,0.44,5.25,1.09,7.79,1.93
		c-1.55,0.42-3.08,0.95-4.55,1.59C51.22,66.04,50.12,64.84,48.83,63.89 M55.1,73.86c-0.58-1.85-1.38-3.62-2.4-5.27
		c0,0,3.09,1.4,7.37,3.9C58.36,72.69,56.67,73.15,55.1,73.86" />
    <path class="st0" d="M52.7,68.57c1.01,1.65,1.81,3.42,2.4,5.27c1.58-0.7,3.26-1.14,4.98-1.32c-4.32-2.49-7.37-3.9-7.37-3.9" />
    <path d="M50.57,65.55c0.56,0.58,1.06,1.23,1.47,1.93c1.35-0.62,2.73-1.12,4.16-1.53C54.33,65.7,52.45,65.57,50.57,65.55" />
    <path d="M39.25,59.21c0.96,0.25,2.16,0.62,2.16,0.62c0.37-0.78,0.84-1.51,1.4-2.16c-1.24,0.36-2.43,0.86-3.54,1.5" />
    <path d="M54.03,71.13c0.41,0.91,0.77,1.85,1.08,2.8c1.46-0.65,3.66-0.98,5.23-1.26c-1.85-0.6-4.4-1.22-6.31-1.56" />
    <path class="st2" d="M42.24,60c2.94,0.08,5.87,0.31,8.79,0.73c-1.26,0.56-2.48,1.2-3.66,1.92C45.81,61.51,44.08,60.61,42.24,60" />
    <path d="M45.01,61.29c0.82,0.44,1.6,0.95,2.33,1.52c1.05-0.65,2.13-1.24,3.24-1.77c-1.08,0-4.01,0.14-5.59,0.28" />
  </g>
  <path class="st0" d="M94.09,83.79c1.63-0.17,3.43-4.06,3.43-4.06c-1.23-0.5-2.39-1.13-3.45-1.92c-0.25,1.99-0.25,3.99,0,5.98" />
  <path d="M97.52,79.67c0,0-1.76,3.89-3.43,4.11c-0.25-1.99-0.25-3.99,0-5.98c1.07,0.79,2.22,1.42,3.45,1.92" />
  <path class="st0" d="M98.18,78.61c1.51-0.22,3.05-3.89,3.05-3.89c-1.14-0.41-2.23-0.97-3.24-1.66
	C97.83,74.9,97.89,76.77,98.18,78.61" />
  <path d="M101.14,74.63l-0.11-0.68l0,0c-0.95-0.38-1.87-0.86-2.72-1.44l-0.9-0.6l-0.19,1.08c-0.18,1.93-0.11,3.87,0.22,5.79v0.06
	l0.1,0.63l0.69-0.1c0.13-0.02,0.26-0.06,0.39-0.11c1.63-0.64,2.95-3.58,3.24-4.21l0.21-0.5h-0.22L101.14,74.63z M101.14,74.72
	c0,0-1.5,3.67-2.96,3.87c-0.3-1.82-0.38-3.69-0.22-5.54c1,0.69,2.09,1.25,3.24,1.66" />
  <path class="st0" d="M101.72,73.84c1.3-0.18,2.62-3.24,2.71-3.45l-0.44-0.16c-0.86-0.36-1.69-0.8-2.47-1.32
	C101.38,70.55,101.44,72.21,101.72,73.84" />
  <path d="M104.66,70.35h-0.27c-0.09,0.21-1.41,3.24-2.71,3.45c-0.28-1.63-0.35-3.28-0.21-4.93c0.78,0.52,1.61,0.96,2.47,1.32
	l-0.03-0.43c0,0,0-0.15,0-0.36c-0.68-0.31-1.33-0.67-1.94-1.08l-0.89-0.6l-0.21,1.08c-0.16,1.72-0.1,3.44,0.19,5.15l0,0l0.11,0.68
	l0.68-0.1l0.22-0.05c1.51-0.43,2.71-3.01,3.05-3.83l0.21-0.51c-0.18,0.11-0.39,0.17-0.59,0.21" />
  <path class="st0" d="M104.41,64.71c-0.13,1.65-0.04,3.31,0.25,4.94c1.35-0.19,2.72-3.46,2.72-3.46c-1.04-0.37-2.01-0.86-2.91-1.48" />
  <path d="M107.51,65.49c-0.21-0.05-0.41-0.13-0.6-0.22c-0.76-0.32-1.48-0.71-2.16-1.17l-0.89-0.59l-0.19,1.08
	c-0.17,1.61-0.12,3.23,0.14,4.82c0,0.21,0,0.33,0,0.36l0.08,0.46v0.23l0.41-0.06h0.27c0.21-0.03,0.41-0.1,0.59-0.21
	c1.33-0.7,2.36-2.94,2.68-3.69l0.31-0.74l0,0L107.51,65.49z M104.66,69.65c-0.27-1.63-0.33-3.29-0.19-4.94
	c0.91,0.62,1.88,1.11,2.91,1.48C107.38,66.18,106.01,69.42,104.66,69.65" />
  <path d="M95.65,82.1c0.74-0.71,1.38-1.53,1.88-2.43c-1.1-0.43-2.15-0.99-3.11-1.67C94.57,79.44,94.99,80.82,95.65,82.1" />
  <path d="M99.62,77.1c0.86-1.08,1.63-2.42,1.63-2.42c-1.08-0.37-2.1-0.87-3.07-1.5C98.26,74.6,98.76,75.96,99.62,77.1" />
  <path d="M103.07,72.44c0.5-0.66,0.95-1.35,1.36-2.06l-0.44-0.16c-0.76-0.33-1.48-0.74-2.16-1.22c0,0.69,0.45,2.84,1.26,3.44" />
  <path d="M105.97,68.35c0.5-0.69,0.95-1.41,1.36-2.16c-0.95-0.36-1.85-0.82-2.67-1.4c0.04,1.3,0.5,2.54,1.28,3.56" />
  <path d="M110.29,61.12c-0.93-0.3-1.81-0.72-2.63-1.25l-0.84-0.28l-0.23,0.78c-0.12,1.64-0.01,3.29,0.31,4.91
	c0.19,0.09,0.4,0.16,0.6,0.22l0.77,0.22c1.27-0.7,2.21-2.9,2.49-3.64l0.29-0.74L110.29,61.12z M107.28,60.47
	c0.89,0.56,1.83,1.01,2.84,1.34c0,0-1.23,3.17-2.51,3.39C107.29,63.65,107.18,62.06,107.28,60.47" />
  <path class="st0" d="M94.09,83.79c1.63-0.17,3.43-4.06,3.43-4.06c-1.23-0.5-2.39-1.13-3.45-1.92c-0.25,1.99-0.25,3.99,0,5.98" />
  <path d="M94.49,77.18l-0.86-0.64l-0.24,1.08c-0.26,1.94-0.26,3.91,0,5.85c0,0.22,0,0.35,0,0.38l0.06,0.47v0.22h0.35h0.35
	c0.27-0.03,0.53-0.11,0.76-0.25c1.61-0.84,2.96-3.59,3.24-4.22l0.35-0.72h-0.14c-0.13,0.04-0.26,0.09-0.39,0.11
	C97.95,79.46,95.33,77.8,94.49,77.18z M97.52,79.67c0,0-1.76,3.89-3.43,4.11c-0.25-1.99-0.25-3.99,0-5.98
	c1.07,0.79,2.22,1.42,3.45,1.92" />
  <path class="st0" d="M98.18,78.61c1.51-0.22,3.05-3.89,3.05-3.89c-1.14-0.41-2.23-0.97-3.24-1.66
	C97.83,74.9,97.89,76.77,98.18,78.61" />
  <path d="M101.58,74.46l-0.55-0.51l0,0c-0.95-0.38-1.87-0.86-2.72-1.44l-0.9-0.6l-0.19,1.08c-0.18,1.93-0.11,3.87,0.22,5.79v0.06
	l0.1,0.63l0.69-0.1c0.13-0.02,0.26-0.06,0.39-0.11c1.63-0.64,2.95-3.58,3.24-4.21l0.21-0.5h-0.22L101.58,74.46z M101.14,74.72
	c0,0-1.5,3.67-2.96,3.87c-0.3-1.82-0.38-3.69-0.22-5.54c1,0.69,2.09,1.25,3.24,1.66" />
  <path class="st0" d="M101.72,73.84c1.3-0.18,2.62-3.24,2.71-3.45l-0.44-0.16c-0.86-0.36-1.69-0.8-2.47-1.32
	C101.38,70.55,101.44,72.21,101.72,73.84" />
  <path d="M104.66,70.35h-0.27c-0.09,0.21-1.41,3.24-2.71,3.45c-0.28-1.63-0.35-3.28-0.21-4.93c0.78,0.52,1.61,0.96,2.47,1.32
	l-0.03-0.43c0,0,0-0.15,0-0.36c-0.68-0.31-1.33-0.67-1.94-1.08l-0.89-0.6l-0.21,1.08c-0.16,1.72-0.1,3.44,0.19,5.15l0,0l0.11,0.68
	l0.68-0.1l0.22-0.05c1.51-0.43,2.71-3.01,3.05-3.83l0.21-0.51c-0.18,0.11-0.39,0.17-0.59,0.21" />
  <path class="st0" d="M104.41,64.71c-0.13,1.65-0.04,3.31,0.25,4.94c1.35-0.19,2.72-3.46,2.72-3.46c-1.04-0.37-2.01-0.86-2.91-1.48" />
  <path d="M107.51,65.49c-0.21-0.05-0.41-0.13-0.6-0.22c-0.76-0.32-1.48-0.71-2.16-1.17l-0.89-0.59l-0.19,1.08
	c-0.17,1.61-0.12,3.23,0.14,4.82c0,0.21,0,0.33,0,0.36l0.08,0.46v0.23l0.41-0.06h0.27c0.21-0.03,0.41-0.1,0.59-0.21
	c1.33-0.7,2.36-2.94,2.68-3.69l0.31-0.74l0,0L107.51,65.49z M104.66,69.65c-0.27-1.63-0.33-3.29-0.19-4.94
	c0.91,0.62,1.75,1.4,2.78,1.77C107.25,66.48,106.01,69.42,104.66,69.65" />
  <path d="M95.98,82.1c0.74-0.71,1.04-1.53,1.54-2.43c-1.1-0.43-2.15-0.99-3.11-1.67c0.07,0.66,0.2,1.31,0.38,1.94
	c0.11,0.38-0.52,3.4-0.38,3.76C94.56,84.06,95.98,82.1,95.98,82.1z" />
  <path d="M99.62,77.1c0.86-1.08,1.63-2.42,1.63-2.42c-1.08-0.37-2.1-0.87-3.07-1.5C98.26,74.6,98.76,75.96,99.62,77.1" />
  <path d="M103.07,72.44c0.5-0.66,0.95-1.35,1.36-2.06l-0.44-0.16c-0.76-0.33-1.48-0.74-2.16-1.22c0,0.69,0.45,2.84,1.26,3.44" />
  <path d="M105.97,68.35c0.5-0.69,0.95-1.41,1.36-2.16c-0.95-0.36-1.85-0.82-2.67-1.4c0.04,1.3,0.5,2.54,1.28,3.56" />
  <path d="M110.19,61.77c-0.86-0.26-1.68-0.62-2.46-1.08c0.03,1.17,0.41,2.29,1.08,3.24c0.49-0.69,0.93-1.41,1.33-2.16" />
  <path d="M65.04,80.59l-2.16-0.15c-1.76-0.12-3.52-0.12-5.28,0l-0.46,0.06l-0.29-0.42c0-0.09-2.3-6.64-2.3-6.64l1.08,0.46
	c2.68,1.59,5.25,3.36,7.7,5.28L65.04,80.59z" />
  <path d="M65.31,84.96c-2.45-1.86-5.05-3.51-7.77-4.94H56.7c1.08,3.03,2.16,5.89,2.16,5.98l0.24,0.4l0.46-0.08l0.68-0.08
	c1.78-0.13,4.58,0,4.61,0l2.16,0.11L65.31,84.96z" />
  <path class="st0" d="M55.31,74.74c1.01,3.02,1.81,4.95,1.81,4.95c1.92-0.13,3.85-0.13,5.77,0c-2.39-1.86-4.91-3.53-7.56-5" />
  <path d="M56.41,77.25c0.38,1.33,0.69,2.55,0.69,2.55c1.83-0.12,3.67-0.12,5.5,0C60.62,78.76,58.54,77.9,56.41,77.25" />
  <path class="st0" d="M57.22,80.66c0.59,1.71,1.34,3.37,2.23,4.93c1.79-0.15,3.59-0.17,5.4-0.08c-2.43-1.81-4.99-3.44-7.66-4.86" />
  <path d="M58.4,83.37c0.67,1.59,1.08,2.29,1.08,2.29c1.72-0.15,3.44-0.18,5.17-0.09c-2-0.89-4.07-1.61-6.2-2.16" />
  <path d="M66.94,89.04c-2.47-1.38-5.13-2.4-7.88-3.02l1.72,3.84l1.94,2.16c1.26-0.77,2.62-1.34,4.05-1.73l1.64-0.44L66.94,89.04z" />
  <path class="st0" d="M58.92,86.72c1.71,2.51,3.38,4.8,3.38,4.8c1.34-0.83,2.8-1.45,4.32-1.85c-2.41-1.34-4.99-2.33-7.66-2.94" />
  <path d="M61.66,89.27c0.35,0.78,0.8,1.5,1.35,2.16c1.25-0.79,2.6-1.4,4.03-1.81c-1.79-0.24-3.59-0.36-5.4-0.35" />
  <path d="M39.75,51.35c0.94-0.79,1.32-2.06,0.95-3.24c-0.18,0.42-0.39,0.82-0.62,1.22c-0.53,0.73-1.25,1.31-2.09,1.65
	c-0.12,0.05-1.98,0.78-2.03,0.81c-1.63,0.71-3.1,1.75-4.32,3.05c0,0-0.24,0.31-0.32,0.45c0,0.02,0,0.03,0,0.05h-1.83h-0.18
	c-0.76-1.58-0.86-3.38-0.31-5.04c0.3-1.1,0.95-2.07,1.83-2.78l0.29-0.26c-0.44,0.08-0.87,0.22-1.27,0.41c-2.3,1.04-4.2,2.8-5.4,5.02
	c-0.64,1.23-1.09,2.55-1.32,3.91c-0.28,0.09-0.55,0.18-0.82,0.3h-0.08h-0.08h-0.08h-0.08h-0.08h-0.08h-0.06l-0.14,0.08H21.6h-0.05
	h-0.05h-0.06c-0.69-0.73-1.13-1.66-1.27-2.67v-0.22c0-0.03,0-0.06,0-0.1v-0.1c0-0.14,0-0.27,0-0.4v-0.09c0-0.12,0-0.24,0-0.35v-0.08
	c0-0.27,0.06-0.49,0.09-0.62l-0.12,0.11c-2.63,2.28-2.49,5.27-1.47,8.28c0.12,0.34,0.23,0.7,0.18,1.06
	c-0.2,1.29-1.64,2.37-2.34,3.42c-0.21,0.32-0.42,0.66-0.5,1.04c-0.21,0.92,0.35,1.85,1.03,2.52c0.13,0.13,0.28,0.27,0.32,0.45
	c0.02,0.1,0.01,0.2,0,0.29c-0.2,1.7-1.15,3.22-1.76,4.81c-0.61,1.57-1.16,3.18-1.63,4.8c-0.23,0.79-0.44,1.58-0.63,2.37
	c-0.07,0.29-0.28,2.13-0.49,2.24c0.67-0.31,1.45-0.19,2.18-0.23c0.9-0.04,1.79-0.33,2.54-0.83c0.32,0.81,0.74,1.57,1.26,2.27
	c0.21,0.28,0.44,0.55,0.74,0.73c0.37,0.21,0.82,0.25,1.25,0.28c0.87,0.06,1.75,0.13,2.62,0.19c1.23-0.53,2.47-1.05,3.7-1.58
	c-0.25-1.72-0.49-3.48-0.12-5.18c0.59-2.69,2.61-4.8,4.55-6.76c0.62-0.63,1.27-1.27,2.09-1.59c0.46-0.18,0.96-0.25,1.41-0.47
	c0.93-0.45,1.45-1.45,1.9-2.38c0.19-0.39,0.39-0.81,0.39-1.24c0-0.35-0.12-0.68-0.26-1c-0.41-0.94-1.01-1.84-1.79-2.52
	c-0.66-0.57-1.55-1.02-1.51-2.05c0.02-0.47,0.26-0.91,0.5-1.32c0.27-0.47,0.55-0.96,0.98-1.29c0.27-0.21,0.49-0.46,0.74-0.69
	c0.88-0.82,1.64-3.21,4.27-2.77c0.44,0.07,0.86,0.41,0.96,0.17c0.1-0.24-1.23-0.6-1.74-2.15C39.28,52.71,39.28,51.87,39.75,51.35z
	 M19.37,60.18c-0.65-1.47-0.6-3.15,0.12-4.58c-0.18,1.3,0.05,2.62,0.68,3.78C19.87,59.62,19.61,59.88,19.37,60.18" />
  <path class="st3" d="M-147.33-73.77c-0.17-0.41-0.33-0.74-0.58-1.08l-1.57-0.66c-21.34-10.34-14.06-24.82-11.58-27.55
	c7.2-6.04,10.09-15.8,7.28-24.82c-1.41,3.23-2.98,6.29-4.71,9.35c-4.05,5.62-9.6,10.01-16.05,12.66c-0.91,0.41-15.14,5.96-15.55,6.2
	c-12.49,5.46-23.74,13.4-33.09,23.41c0,0-1.82,2.4-2.48,3.47l0,0c0,0.17,0,0.25,0,0.41h-14.06h-1.41
	c-5.79-12.08-6.62-25.89-2.4-38.63c2.32-8.44,7.28-15.88,14.06-21.34l2.23-1.99c-3.39,0.58-6.7,1.65-9.76,3.14
	c-17.62,7.94-32.18,21.42-41.36,38.46c-4.88,9.43-8.35,19.52-10.09,29.94l0,0c-2.15,0.66-4.22,1.41-6.29,2.32h-0.58l0,0h-0.58l0,0
	h-0.58l0,0h-0.58l0,0h-0.58l0,0h-0.58l0,0h-0.5l0,0l-1.08,0.58l0,0h-0.41l0,0h-0.41l0,0h-0.41l0,0l0,0l0,0l0,0l0,0h-0.5l0,0
	c-5.29-5.62-8.69-12.74-9.76-20.43v-1.65l0,0c0-0.25,0-0.5,0-0.74l0,0v-0.74l0,0c0-1.08,0-2.07,0-3.06l0,0v-0.66l0,0
	c0-0.91,0-1.82,0-2.65l0,0v-0.58l0,0c0-2.07,0.5-3.72,0.66-4.71l0,0l0,0l0,0l0,0l0,0l0,0l0,0l0,0l0,0l0,0l-0.91,0.83
	c-14.14,12.24-20.43,31.35-16.13,49.63l0,0c0,0,0,0.5,0,0.74l0,0c0,1.32,0.58,2.48,0.83,3.47l0,0c0,0,0,0,0,0.5
	c0.17,0.5,0.33,1.08,0.5,1.57l0,0l0,0l0,0l0,0l0,0c-3.06,3.81-6.29,7.44-9.76,10.92l-2.32,2.32l-1.24,1.08l-2.32,2.07l-1.08,0.99
	c-6.04,7.03-13.23,12.99-21.26,17.62c-8.93,3.64-18.36,5.71-27.96,6.12l0,0l0.74,1.57v0.5l0.5,0.99v0.58l0.5,0.91
	c0,0.17,0,0.33,0,0.5l0.5,0.91v0.5c0.17,0.33,0.33,0.58,0.58,0.83v0.5l0.74,1.08l0,0l0.83,1.24l0,0l0.66,0.83l0,0l0.58,0.74l0,0
	l0.58,0.66v0.41c0.25,0.17,0.5,0.41,0.66,0.66l0,0l0.74,0.74l0,0c0.33,0.25,0.66,0.58,0.91,0.91l0,0c0.25,0.25,0.5,0.5,0.83,0.74
	l0,0c0.25,0.17,0.5,0.33,0.66,0.58l0,0l0.66,0.5l0,0l0.66,0.5l0,0l0.74,0.5l0,0l1.99,1.32l0,0h0.74l0,0h0.66l0,0h0.66l0,0h0.74l0,0
	l1.9,0.91l0,0h0.83l0,0h0.74l0,0h0.66l0,0h0.74l0,0l1.82,0.58l0,0h0.83l0,0h0.66h2.9h1.65h18.28h1.74l-2.81,1.99l0,0l-1.41,1.08l0,0
	l-1.32,0.99l0,0l-1.32,0.99l0,0l-1.24,0.99l0,0l-1.16,0.91l0,0l-1.16,0.91l0,0l-1.08,0.91l0,0l-1.08,0.91l0,0
	c-0.41,0.25-0.74,0.58-1.08,0.91l0,0l-1.08,0.91l0,0l-0.99,0.83l0,0l-0.99,0.91l0,0l-0.99,0.91l0,0c-0.25,0.33-0.58,0.66-0.91,0.91
	l0,0l-0.99,0.83l0,0c-5.71,5.13-10.67,11-14.72,17.54v0.5l0,0l0,0l0,0l0,0l0,0c0,0,0,0,0,0.41l0,0l0,0l0,0l0,0l0,0l0,0l0,0l0,0l0,0
	l0,0l0,0l0,0l0,0l0,0l0,0l0,0l0,0l0,0l0,0l0,0l0,0l0,0l0,0l0,0l0,0l0,0c1.82-0.41,3.72-0.66,5.62-0.83h1.57
	c-5.79,4.47-10.84,9.84-14.97,15.96l-1.57,2.32l-1.32,2.23c-0.17,0.33-0.33,0.66-0.58,0.99c-1.49,2.65-2.73,5.46-3.89,8.27h-0.58
	l-1.74,0.41l0,0l-2.48,0.91c-2.56,1.24-5.05,2.73-7.28,4.55l-5.54,14.56c0,0-0.91,0.83-1.32,1.32c-0.25,0.17-0.5,0.41-0.66,0.66
	c-0.66,0.66-1.32,1.49-1.9,2.23c-6.37,7.94-14.64,14.14-23.99,18.12l-5.21,2.07h-0.5h-0.5l0,0c22.17,34.82,60.96,22.25,75.44,15.63
	l4.55-2.23l0.74-0.41l0,0l0,0c-0.17-0.33-0.33-0.66-0.5-1.08c10.01-2.15,19.6-6.04,28.21-11.66c-2.4,3.72-22.58,50.62-53.52,50.29
	c3.56-3.81,6.12-8.44,7.53-13.4c-16.13,6.2-24.82,15.88-51.28,10.75c1.99,10.75,22.58,24.82,56.41,26.8
	c-4.63-3.06-8.77-6.78-12.32-11.08c0,0,33.83,1.16,54.68-37.31l0,0c6.78,5.05,15.3,7.2,23.66,6.04c-1.41,1.49-3.06,2.98-3.06,2.98
	c3.72,0,7.03,1.65,26.39,2.9c5.05,0.17,10.01-0.83,14.48-3.06c10.59-6.12,20.84-12.74,30.69-20.02
	c-7.11-14.64-15.14-55.09,40.37-93.55l0,0c2.32-3.06,4.47-6.45,6.95-9.43c-1.74,0,9.35-19.36,12.99-23.82
	c1.16-2.23,2.23-4.55,3.14-6.78c0,0,0,0,0-0.41c-1.74-7.11-4.47-13.98-8.11-20.35c-2.9,0.5-5.71-1.49-6.2-4.38
	c-0.08-0.25-0.08-0.58-0.08-0.83c-7.2-3.64-14.64-6.78-22.17-9.6c-0.91-0.33-1.57-0.91-2.07-1.74l-1.9-0.58
	c-6.04,2.4-11.91,5.46-17.87,8.27c9.02,0.33,17.87,2.56,25.97,6.62l0,0h0.58l1.99,1.24c3.06,1.99,5.71,4.47,7.78,7.44l0,0
	c1.32,1.9,2.32,3.97,3.06,6.12c0.25,0.58,0.41,1.16,0.58,1.74c0.74,2.98,1.16,6.04,1.08,9.1c0,0.41,0,0.74,0,1.16
	c-0.33,5.29-1.32,10.59-3.06,15.63c0,0.74-0.5,1.49-0.83,2.32v0.74l-1.24,3.06c0,0.74-0.58,1.41-0.83,2.15l-1.49,3.23
	c-25.89,26.06-26.47,24.07-35.16,35.65c-11,14.14-16.87,31.68-16.54,49.63c0.83,5.62,2.15,11.17,3.81,16.54
	c-3.14,1.99-14.81,10.01-15.05,10.17l0,0c-0.74,0.58-1.49,1.08-2.32,1.57l0,0h-0.66l-1.99,1.08l-1.82,0.83
	c-1.32,0.66-2.73,1.16-4.22,1.57c-6.45,2.15-13.4,2.15-19.85,0l0,0c0.5-0.74,0.99-1.57,1.49-2.48c0.41-0.83,0.91-1.74,1.32-2.65
	l0.91-1.9l-0.74-0.25c0.83-1.9,1.57-3.64,2.15-5.21c0-0.25,0-0.5,0-0.74l0,0c6.53-17.45,12.08-35.24,16.54-53.27
	c13.4-38.88,38.05-59.06,59.72-76.68c0,0-29.94-14.06-70.89,4.14c-5.87,2.65-11.58,5.71-17.04,9.18
	c-39.13,23.49-64.93,64.02-69.48,109.44l-1.82,0.91c-7.53,3.31-36.81,13.98-57.9-4.8l0,0c8.02-4.3,15.3-9.93,21.59-16.54
	c4.38-6.87,11-12.08,18.69-14.64c4.3-1.9,9.84-4.14,17.29-6.78c-3.14-0.99-6.53-1.24-9.84-0.74c5.62-14.31,16.54-25.89,30.52-32.34
	c-3.06-1.9-6.7-2.73-10.26-2.23c0,0,1.32-2.15,3.97-5.46c0.83-1.08,1.9-2.4,3.06-3.72c1.16-1.32,3.56-3.89,5.79-6.04
	c12.74-12.24,27.63-22.09,43.84-29.03c3.97-1.82,8.27-3.47,12.74-5.13l1.9-0.66l3.97-1.32c2.65-0.91,5.46-1.74,8.27-2.48
	s5.79-1.57,8.77-2.32l2.32-0.5c10.92-2.48,21.92-4.22,33.09-5.13c-11.58-5.96-24.07-9.93-36.97-11.75
	c5.29-7.2,12.41-12.99,20.6-16.54c3.56-1.49,7.2-2.73,11-3.47c-2.56-1.32-5.46-1.74-8.27-1.41c-1.74,0-3.56,0.17-5.29,0.5
	c-2.32,0.33-4.63,0.83-6.87,1.41l-6.29,1.9l-2.32,0.83c-3.14,1.08-6.62,2.48-10.42,4.22h-0.99l-2.98,1.32
	c2.48-7.61,8.19-13.81,15.55-16.96l-2.4,0.58l0,0h-0.74l0,0c-5.71,1.49-11.25,3.56-16.54,6.12c-13.98,6.53-26.14,16.38-35.4,28.7
	c-1.74,2.4-3.47,4.88-5.05,7.53c-3.14,5.21-5.79,10.75-7.78,16.54c-8.02,1.9-16.46,1.16-24.07-2.15l0,0
	c-5.62-2.07-10.59-5.54-14.48-10.09h1.99l0,0h0.74h0.74c2.81-0.74,5.62-1.65,8.27-2.81c15.8-7.78,29.86-18.69,41.36-32.09
	c7.44-9.6,17.04-17.29,28.04-22.42c1.9-0.91,3.89-1.65,5.96-2.23c8.6,7.94,21.18,9.93,31.85,4.96c5.38-2.56,10.17-5.96,14.39-10.17
	c0.41,0,0.83-0.91,1.32-1.32l2.56-2.73l1.24-1.49h0.91c2.65-0.91,5.46-1.16,8.27-0.91h0.5c7.69,3.47,15.22,7.36,22.42,11.75
	c2.73,1.74,6.12,2.4,9.35,1.65c-19.6,7.61-29.86,0-33.09-5.96c1.08,13.57,7.69,14.56,22,13.73c4.63-0.74,9.02-2.23,13.15-4.47
	c3.81-2.07,6.04-2.07,8.27-5.29c0.58-0.66,3.06-1.24,3.64-1.9c0.58-0.66-7.11-0.74-6.2-5.21c2.07-4.47,5.46-8.27,9.76-10.75
	c4.47-2.15,9.18-3.81,14.06-4.88c6.04-0.5,12.16-0.17,18.12,0.83c0,0,0-0.66,0-0.99 M-307.23,160.57c-7.61,0.5-15.14-1.9-21.01-6.78
	c8.77,0.41,17.54-0.41,26.06-2.4c-0.91,1.9-3.97,7.11-4.96,9.18 M-290.6,123.92c-2.48,6.45-4.88,13.15-9.51,23
	c-1.41-0.74-3.06-1.82-4.8-2.9l-1.57-1.08c-5.71-3.89-11.58-8.27-11.66-8.77c20.18,0.74,22.66-8.27,28.04-11.58L-290.6,123.92
	 M-288.28,116.81l-1.74-1.57c-0.5-0.58-1.16-1.24-1.74-1.74l0,0l-1.41-1.08l-0.74-0.99c-1.74-1.74-3.47-3.72-5.05-5.46l-0.91-1.08
	l-5.46-5.96c7.53,1.24,15.22-0.17,21.75-4.14c-0.83,7.53-2.56,14.89-4.96,22 M-248.83,27.31h10.92l-4.63,4.71l-1.65,1.74l-1.74,1.82
	l-0.91,0.99l-3.81,4.3c-1.08-2.15-2.23-5.13-3.23-7.69V32.6l-2.07-5.62c2.4,0.33,4.88,0.5,7.36,0.5 M-251.89,42.69
	c-0.66,0.58-3.81,4.63-6.62,8.27l0,0c-0.58,0.83-1.32,1.74-1.99,2.73l-2.15,3.06c-0.5,0.83-1.32,1.82-2.07,2.81
	c-0.74,0.99-2.9,3.97-3.89,5.46l-4.8,7.44l-8.27,16.54c-2.48-2.4-4.88-5.05-6.95-7.78l-2.73-3.23l-4.38,3.89
	c-3.14,3.14-6.04,6.53-8.77,10.09c-5.54,8.19-10.34,16.96-14.23,26.06c-2.98,8.19-6.53,16.21-10.67,23.91
	c-26.06,55.83-67,49.63-67,49.63c2.23,3.56,5.05,6.78,8.27,9.43c-29.86-6.7-39.46-17.78-39.46-17.78
	c13.73,7.03,35.07-5.62,39.13-8.27h0.66h-0.66c-3.8,2.4-6.95,5.71-9.1,9.68c44.42,6.62,63.2-46.57,77.42-80.73
	c2.9-6.87,6.62-13.4,11.08-19.36c3.56-5.21,7.44-10.26,11.58-14.97l-1.99-2.81c0.91,0.66,1.9,1.24,2.98,1.65
	c1.16-1.24,2.32-2.56,3.56-3.81c4.47-4.47,9.35-8.52,14.56-11.99c-1.08-2.07-1.74-3.56-1.74-3.56c1.82,0.58,3.72,0.99,5.62,1.24
	c2.65-1.57,5.38-2.98,8.27-4.14c4.55-1.57,9.18-2.81,13.9-3.72 M-270.5,23.09c0,1.08,0,2.81,0.58,4.8c0,0.17,0,0.33,0,0.5
	c0.17,0.5,0.5,0.91,0.83,1.32c0,1.41,0.41,2.73,0.66,3.97v0.91c0,0.25,0,0.58,0,0.83c0.17,0.58,0.33,1.16,0.58,1.65
	c-7.78-0.66-15.47-2.07-23-4.14c6.53-3.72,13.4-6.95,20.51-9.51 M-296.39,35.99v0.74c0,0.25,0,0.58,0,0.83v0.83
	c-1.82,5.79-0.33,12.16,3.89,16.54l-23.99-3.97c6.29-5.46,12.9-10.42,20.02-14.81 M-321.29,55.02c1.65,4.96,0,13.57,11.5,22.42
	c0,0-23,0-31.35,0.66c5.87-8.52,12.66-16.46,20.27-23.57 M-342.8,80.99c1.57,3.39,2.23,18.45,16.54,23.08c0,0-26.39,7.03-32.51,9.18
	C-354.79,101.92-349.41,91.08-342.8,80.99 M-363.23,127.98c0-1.57,0.74-3.06,1.24-4.63c0.5-1.57,0.83-2.98,1.32-4.47l2.07,1.57h0.5
	l3.81,2.73l1.74,1.16l1.65,1.08c3.39,1.99,7.03,3.39,10.92,4.05c-7.36,3.72-15.14,6.53-23.24,8.27h-2.15
	C-364.8,134.43-364.05,131.2-363.23,127.98 M-283.57-14.71c-5.71,6.29-10.17,13.65-13.15,21.59c-12.41,4.71-24.32,10.59-35.57,17.54
	C-310.04-10.16-283.57-14.71-283.57-14.71 M-322.53-38.04c-4.96-11.25-4.63-24.15,0.91-35.07c-1.41,9.93,0.41,20.1,5.21,28.95
	C-318.72-42.34-320.71-40.35-322.53-38.04" />
  <path class="st0" d="M24.41,62.68c-0.74,0.82-1.33,1.78-1.72,2.82c-1.62,0.62-3.17,1.38-4.64,2.29
	C20.95,63.28,24.41,62.68,24.41,62.68" />
  <path class="st0" d="M26.31,56.9c-0.01,0.15-0.01,0.31,0,0.46c0,0,0,0.1,0,0.15l0.06,0.45c-0.25,0.09-0.51,0.13-0.77,0.13h-0.22
	c-0.52-0.06-1-0.28-1.39-0.64c0.17-1.45,0.63-2.84,1.34-4.11c0.63-1.01,1.35-1.96,2.16-2.85c0.16-0.17,0.36-0.33,0.56-0.46
	C26.8,52.1,26.19,54.5,26.31,56.9" />
  <path class="st0" d="M28.41,68.41h1.42l-0.6,0.62l-0.22,0.23l-0.23,0.24l-0.12,0.13l-0.5,0.56c-0.14-0.28-0.29-0.67-0.42-1V69.1
	l-0.27-0.73c0.31,0.04,0.64,0.06,0.96,0.06" />
  <path class="st0" d="M25.58,67.86c0,0.34,0.21,1.55,0.35,1.82c-1.01-0.09-2.02-0.27-3-0.54c0.85-0.49,1.75-0.91,2.68-1.24" />
  <path class="st0" d="M22.21,69.54v0.1c0,0.03,0,0.08,0,0.11v0.11c-0.24,0.76-0.04,1.59,0.51,2.16l-3.13-0.52
	c0.82-0.71,1.68-1.36,2.61-1.93" />
  <path class="st0" d="M18.96,72.02c0.22,0.65,0,1.77,1.5,2.92c0,0-3,0-4.09,0.09c0.77-1.11,1.65-2.15,2.64-3.08" />
  <path class="st0" d="M16.15,75.41c0.21,0.44,0.29,2.41,2.16,3.01c0,0-3.44,0.92-4.24,1.2C14.59,78.14,15.29,76.73,16.15,75.41" />
  <path class="st0" d="M13.48,81.54c0-0.21,0.1-0.4,0.16-0.6c0.06-0.21,0.11-0.39,0.17-0.58l0.27,0.21h0.06l0.5,0.36l0.23,0.15
	l0.22,0.14c0.44,0.26,0.92,0.44,1.42,0.53c-0.96,0.49-1.98,0.85-3.03,1.08H13.2C13.28,82.38,13.38,81.96,13.48,81.54" />
  <path class="st4" d="M37.45,123.3c0.54-1.55,1.27-3.56,1.46-5.51c0.18-1.85-0.19-3.38-0.88-4.11
	C38.07,113.83,38.85,117.36,37.45,123.3" />
  <path d="M39.91,133.05c-0.99,1.57-1.86,2.26-2.38,2.56c-0.23,0.11-0.39,0.15-0.48,0.16c0.06-0.07,0.11-0.15,0.16-0.22
	c0.79-0.78,2.47-3.26,1.38-4.4c0.25-0.33,0.68-0.71,1.23-0.41C40.41,131.05,40.67,131.84,39.91,133.05" />
  <path class="st1" d="M38.96,116.85c0-0.1,0-0.2-0.01-0.29C38.95,116.66,38.96,116.75,38.96,116.85" />
  <path class="st1" d="M40.71,115.48c0.38,0.17,0.81,0.36,1.23,0.53c0.92,0.39,2.36,0.45,3.19,0.45c-0.82,0-2.27-0.06-3.19-0.45
	C41.52,115.83,41.1,115.65,40.71,115.48" />
  <path class="st1" d="M38.66,119.35c-0.02,0.11-0.05,0.22-0.08,0.33C38.6,119.57,38.63,119.46,38.66,119.35" />
  <path class="st1" d="M38.93,116.18c0.01,0.08,0.01,0.16,0.02,0.24C38.94,116.34,38.94,116.26,38.93,116.18" />
  <path class="st1" d="M38.95,117.17c0,0.05,0,0.1-0.01,0.15C38.95,117.27,38.95,117.22,38.95,117.17" />
  <path class="st1" d="M38.83,115.45c0,0.02,0.01,0.05,0.01,0.07C38.84,115.5,38.83,115.47,38.83,115.45" />
  <path class="st1" d="M38.88,115.75c0.02,0.11,0.03,0.22,0.04,0.33C38.91,115.97,38.89,115.85,38.88,115.75" />
  <path class="st1" d="M38.47,120.12c-0.03,0.11-0.06,0.23-0.09,0.34C38.41,120.35,38.44,120.23,38.47,120.12" />
  <path class="st1" d="M38.03,121.6c-0.04,0.12-0.08,0.24-0.12,0.35C37.95,121.84,37.99,121.72,38.03,121.6" />
  <path class="st1" d="M37.8,122.29c-0.05,0.13-0.09,0.27-0.13,0.39C37.71,122.56,37.75,122.43,37.8,122.29" />
  <path class="st1" d="M38.26,120.87c-0.04,0.12-0.07,0.23-0.11,0.35C38.19,121.1,38.22,120.99,38.26,120.87" />
  <path class="st1" d="M40.49,115.38c-0.15-0.07-0.29-0.13-0.41-0.19C40.2,115.25,40.34,115.31,40.49,115.38" />
  <path class="st1" d="M39.21,114.79c0,0,0.35,0.16,0.86,0.4C39.56,114.95,39.21,114.79,39.21,114.79z" />
  <path class="st1" d="M29.95,135.6c-0.02-0.03-0.04-0.07-0.05-0.1C29.91,135.53,29.93,135.57,29.95,135.6" />
  <path class="st1" d="M29.22,132.75c-0.05,0.15-0.09,0.25-0.12,0.32C29.14,133,29.18,132.89,29.22,132.75" />
  <path class="st1" d="M29.85,135.37c-0.02-0.06-0.05-0.12-0.06-0.19C29.8,135.25,29.83,135.31,29.85,135.37" />
  <polygon class="st1" points="32.18,130 32.18,130 33.01,130.13 " />
  <path class="st1" d="M29.49,129.39c-0.01-0.04-0.02-0.09-0.03-0.13C29.48,129.3,29.48,129.34,29.49,129.39" />
  <path class="st1" d="M29.42,128.88c0-0.03,0-0.06,0-0.08C29.42,128.82,29.42,128.85,29.42,128.88" />
  <path class="st1" d="M29.56,129.64c-0.02-0.05-0.03-0.09-0.04-0.14C29.53,129.54,29.55,129.59,29.56,129.64" />
  <path class="st1" d="M28.41,133.4c-0.01,0-0.02,0-0.03,0.01C28.39,133.41,28.4,133.41,28.41,133.4" />
  <path class="st1" d="M29.81,130.19c-0.04-0.07-0.08-0.14-0.11-0.22C29.73,130.04,29.76,130.12,29.81,130.19" />
  <path class="st1" d="M29.66,129.89c-0.02-0.05-0.04-0.1-0.06-0.15C29.61,129.79,29.64,129.84,29.66,129.89" />
  <path class="st1" d="M29.61,127.81c0-0.01,0.01-0.02,0.02-0.03C29.62,127.78,29.61,127.8,29.61,127.81" />
  <path class="st1" d="M29.54,127.97c0,0.01-0.01,0.03-0.01,0.04C29.53,128,29.54,127.99,29.54,127.97" />
  <path class="st1" d="M29.43,129.01c0,0.04,0.01,0.08,0.01,0.12C29.44,129.09,29.44,129.05,29.43,129.01" />
  <path class="st1" d="M29.48,128.19c0,0.01-0.01,0.03-0.01,0.04C29.47,128.22,29.48,128.2,29.48,128.19" />
  <polyline class="st1" points="29.71,127.61 29.72,127.6 29.71,127.61 " />
  <path class="st1" d="M28.11,133.44c-0.02,0-0.03,0-0.05,0C28.08,133.45,28.09,133.44,28.11,133.44" />
  <path class="st1" d="M35.43,128.01c0.01,0.01,0.01,0.01,0.02,0.02C35.45,128.03,35.44,128.02,35.43,128.01L35.43,128.01z" />
  <g>
    <path class="st1" d="M31.65,136.94c-1.25,0-1.83-0.61-2.1-1.12l-0.07-0.14c0,0-0.08-0.21-0.09-0.25l-0.01-0.01l-0.24-1.06
		l0.12,0.05c0.01-0.33,0.05-0.7,0.14-1.09c-0.02,0.02-0.04,0.03-0.05,0.04c-0.15,0.12-0.32,0.17-0.44,0.21
		c-0.31,0.1-0.69,0.22-1.08,0.22c-0.15,0-0.29-0.02-0.42-0.05c-0.42-0.1-0.75-0.36-1.02-0.57c-0.12-0.09-0.29-0.23-0.38-0.46
		c-0.06-0.15-0.06-0.29-0.06-0.4l0-0.17c0-0.34-0.01-0.7,0.12-1.09c0.05-0.17,0.11-0.34,0.17-0.52c0.07-0.21,0.14-0.42,0.21-0.64
		c0.09-0.3,0.19-0.63,0.29-0.98c0.22-0.78,0.46-1.66,0.73-2.64l0.05-0.19c0.12-0.43,0.29-0.79,0.52-1.08c0.27-0.33,0.6-0.56,1-0.69
		c0.25-0.08,0.52-0.12,0.81-0.12c0.21,0,0.42,0.02,0.61,0.05c0.15,0.03,0.3,0.05,0.44,0.06c0.35,0.04,0.65,0.06,0.92,0.06
		c0.26,0,0.49-0.02,0.68-0.04c0.95-0.13,1.65-0.88,1.73-1.87c0.07-0.75-0.04-1.53-0.16-2.25c-0.64-3.76-0.35-5.62-0.2-6.63
		l0.07-0.46c0.21-1,0.91-1.11,1.79-1.25l0.47-0.08c0.05-0.01,0.1-0.02,0.15-0.04l0.17-0.08c0.25-0.15,0.42-0.29,0.63-0.45
		c0.99-0.79,2.49-1.98,6.42-2.46c0.01,0,0.03,0,0.04,0c0.19,0,0.4,0.02,0.4,0.02l0.29,0.03l0.62,1.81l1.4,6.23l-0.54,0.03
		c0,0-0.26,0.01-0.65,0.01c-1.01,0-2.41-0.08-3.36-0.49c-1.01-0.42-2.04-0.9-2.5-1.11c0.14,0.65,0.2,1.48,0.1,2.52
		c-0.19,1.91-0.86,3.83-1.4,5.37l-0.1,0.29c-0.11,0.62-0.21,1.44-0.22,1.91c0.55,0.04,1.5,0.21,1.98,0.69
		c0.46,0.46,0.74,1.1,0.82,1.85l0.02,0.21c0.01,0,0.08,0.04,0.08,0.04l0.12,0.1c0.12,0.09,0.27,0.21,0.39,0.37l0.1,0.12
		c0.11,0.14,0.22,0.28,0.33,0.45c0.33,0.44,0.51,1.22,0.4,1.91l-0.03,0.18c-0.07,0.44-0.17,0.99-0.86,1.46l-1.1,0.76l0.4-1.27
		c0.13-0.42,0.11-0.71,0.06-0.89c-0.08-0.29-0.26-0.53-0.53-0.67c-0.14-0.07-0.27-0.11-0.41-0.11c-0.08,0-0.16,0.01-0.24,0.04
		c-0.44,0.15-0.75,0.69-0.84,0.89l-0.32,0.88l-0.31,0.01c-0.29,0-0.77-0.19-0.89-0.92c-0.08-0.48-0.55-2.09-1.68-3.14l-0.06-0.06
		l-0.06-0.1l-0.04-0.07c-0.49,0.11-1,0.31-1.44,0.64c-0.08,0.07-0.43,0.5-0.72,0.86c0.08,0.01,0.81,0.12,0.81,0.12l0.01,0.38
		c0.05,1.75-0.46,3.47-0.68,4.14l1.82,1.79l-0.62,0.27C33.64,136.56,32.62,136.94,31.65,136.94z M29.74,130.1
		c0-0.15-0.01-0.27-0.01-0.35c-0.01-0.02-0.03-0.04-0.04-0.06C29.69,129.72,29.73,129.99,29.74,130.1z" />
    <path d="M43.62,109.23c0.13,0,0.33,0.02,0.33,0.02l0.53,1.54l1.27,5.65c0,0-0.25,0.01-0.63,0.01c-0.82,0-2.27-0.06-3.18-0.45
		c-1.34-0.57-2.73-1.22-2.73-1.22s-0.37-0.77-0.9-1.04c-0.04-0.02-0.08-0.04-0.12-0.05c-0.02-0.01-0.03-0.01-0.05-0.02
		c-0.01,0-0.03-0.01-0.04-0.01c-0.04-0.01-0.07-0.01-0.11-0.02c0.04,0.04,1.21,1.14,0.91,4.13c-0.2,1.97-0.94,4-1.48,5.56
		c-0.14,0.78-0.32,2.2-0.23,2.51c0.04,0,0.1-0.01,0.16-0.01c0.51,0,1.52,0.16,1.94,0.57c0.43,0.42,0.63,0.99,0.68,1.57
		c-0.08-0.01-0.16-0.01-0.24-0.01c-1.35,0-2,0.79-2,0.79c0.69-0.27,1.25-0.35,1.66-0.35c0.5,0,0.79,0.12,0.89,0.16
		c0.13,0.11,0.28,0.21,0.4,0.36c0.14,0.18,0.27,0.32,0.39,0.53c0.26,0.35,0.44,0.99,0.34,1.6c-0.09,0.47-0.09,0.92-0.7,1.34
		c0.16-0.49,0.14-0.88,0.07-1.14c-0.11-0.41-0.38-0.76-0.76-0.96c-0.2-0.11-0.41-0.17-0.62-0.17c-0.13,0-0.26,0.02-0.39,0.07
		c-0.7,0.24-1.07,1.05-1.11,1.14l-0.01,0.01l0,0l-0.22,0.61c0,0,0,0,0,0c-0.03,0-0.33-0.01-0.41-0.53c-0.06-0.4-0.53-2.2-1.82-3.4
		c-0.01-0.01-0.01-0.01-0.02-0.02c0,0,0,0,0,0c0,0,0.18-0.15,0.39-0.25c0.23-0.13,0.43-0.21,0.43-0.21c-1.05,0-2.13,0.23-2.98,0.87
		c-0.12,0.09-1.29,1.49-1.2,1.52c0.31,0.08,0.61,0.15,0.93,0.19l0.19,0.03c0.06,2.13-0.76,4.25-0.76,4.25l1.54,1.51
		c-0.67,0.29-1.55,0.57-2.34,0.57c-0.71,0-1.35-0.23-1.7-0.88c-0.02-0.03-0.04-0.07-0.05-0.1c-0.02-0.04-0.03-0.08-0.05-0.13
		c-0.02-0.06-0.05-0.13-0.06-0.19c0-0.02-0.01-0.03-0.02-0.05c0,0,0,0,0.01,0c0.12,0.08,0.23,0.13,0.33,0.16
		c-0.11-0.03-0.22-0.09-0.33-0.16c-0.12-0.52-0.08-1.18,0.11-1.94c0.44-1.77,0.29-3.62,0.29-3.62c-0.08-0.08-0.16-0.2-0.23-0.36
		c-0.04-0.1-0.08-0.21-0.11-0.34c-0.01-0.06-0.03-0.12-0.04-0.19c-0.02-0.13-0.02-0.26-0.02-0.4c0.01-0.14,0.03-0.27,0.08-0.41
		c0.14-0.4,0.45-0.77,1.05-1c-0.23,0.02-0.42,0.08-0.6,0.16c-0.69,0.34-1.06,0.92-1.14,1.69c-0.07,0.65,0.13,1.27,0.14,1.92
		c0.01,0.52,0.18,2-0.27,2.35c-0.09,0.07-0.2,0.1-0.3,0.14c-0.31,0.1-0.63,0.2-0.94,0.2c-0.11,0-0.21-0.01-0.32-0.04
		c-0.32-0.08-0.59-0.29-0.84-0.49c-0.09-0.07-0.19-0.15-0.23-0.26c-0.03-0.08-0.03-0.16-0.03-0.24c0-0.4-0.03-0.74,0.09-1.12
		c0.12-0.39,0.26-0.77,0.38-1.16c0.09-0.3,0.19-0.63,0.29-0.99c0.24-0.83,0.5-1.78,0.78-2.83c0.11-0.39,0.26-0.69,0.44-0.91
		c0.23-0.28,0.5-0.45,0.79-0.54c0.22-0.07,0.45-0.1,0.67-0.1c0.18,0,0.37,0.02,0.54,0.05c0.16,0.03,0.31,0.05,0.46,0.07
		c0.37,0.04,0.69,0.06,0.98,0.06c0.28,0,0.53-0.02,0.74-0.05c1.16-0.16,2.02-1.08,2.13-2.28c0.07-0.79-0.03-1.59-0.17-2.37
		c-0.71-4.18-0.26-5.95-0.15-6.83c0-0.03,0.01-0.06,0.02-0.09c0-0.02,0.01-0.04,0.01-0.06c0.15-0.72,0.7-0.69,1.88-0.9
		c0.08-0.01,0.15-0.03,0.23-0.06c0,0,0,0,0.01,0c0.03-0.01,0.07-0.03,0.1-0.04c0,0,0.01,0,0.01-0.01c0.03-0.02,0.06-0.03,0.1-0.05
		c0,0,0.01,0,0.01-0.01c0.03-0.02,0.07-0.04,0.1-0.06C37.82,111.41,38.94,109.81,43.62,109.23 M43.62,108.31h-0.06l-0.06,0.01
		c-4.06,0.5-5.68,1.79-6.65,2.56c-0.2,0.16-0.37,0.29-0.51,0.38l-0.06,0.04l-0.05,0.03l-0.02,0.01l-0.07,0.03c0,0,0,0,0,0
		c0,0-0.02,0-0.04,0.01c-0.17,0.03-0.32,0.05-0.46,0.08c-0.89,0.14-1.89,0.3-2.15,1.53L33.49,113l-0.01,0.06
		c-0.01,0.06-0.02,0.1-0.02,0.14c-0.01,0.1-0.03,0.21-0.05,0.33c-0.16,1.03-0.45,2.94,0.2,6.77c0.12,0.7,0.22,1.44,0.16,2.13
		c-0.07,0.77-0.61,1.35-1.34,1.45c-0.19,0.03-0.39,0.04-0.62,0.04c-0.27,0-0.56-0.02-0.87-0.06c-0.13-0.02-0.27-0.04-0.42-0.06
		c-0.24-0.04-0.47-0.06-0.68-0.06c-0.34,0-0.66,0.05-0.95,0.14c-0.49,0.16-0.9,0.44-1.22,0.84c-0.27,0.34-0.47,0.75-0.61,1.24
		l-0.09,0.33c-0.25,0.91-0.48,1.75-0.69,2.49c-0.1,0.35-0.2,0.67-0.29,0.97c-0.06,0.21-0.14,0.42-0.21,0.63
		c-0.06,0.17-0.12,0.34-0.17,0.52c-0.15,0.46-0.14,0.87-0.14,1.23l0,0.17c0,0.12,0,0.33,0.09,0.57c0.13,0.35,0.39,0.55,0.52,0.65
		c0.28,0.22,0.67,0.53,1.19,0.66c0.17,0.04,0.35,0.06,0.53,0.06c0.29,0,0.57-0.05,0.81-0.12l0.26,1.19l0.01,0.07l0.02,0.06
		l0.06,0.25l0.03,0.02c0.02,0.07,0.04,0.11,0.06,0.15c0.02,0.05,0.05,0.1,0.07,0.14c0.47,0.89,1.36,1.38,2.51,1.38
		c1,0,2.02-0.35,2.7-0.64l1.25-0.54l-0.97-0.95l-1.13-1.11c0.26-0.82,0.66-2.4,0.62-4.02l-0.02-0.77l-0.39-0.06
		c0.07-0.08,0.13-0.15,0.17-0.19c0.29-0.21,0.6-0.35,0.93-0.45l0.1,0.1l0.01,0.01c1,0.97,1.42,2.46,1.47,2.81
		c0.14,0.9,0.76,1.3,1.31,1.3h0.64l0.22-0.61l0.2-0.57c0.1-0.2,0.33-0.55,0.57-0.63c0.03-0.01,0.06-0.02,0.1-0.02
		c0.06,0,0.12,0.02,0.19,0.06c0.16,0.09,0.26,0.22,0.31,0.39c0.03,0.1,0.05,0.31-0.05,0.64l-0.8,2.54l2.19-1.51
		c0.85-0.59,0.97-1.3,1.05-1.77l0.03-0.15c0.13-0.82-0.06-1.7-0.48-2.28c-0.12-0.19-0.24-0.34-0.34-0.47l-0.09-0.12
		c-0.16-0.2-0.33-0.34-0.46-0.44l-0.06-0.04c-0.09-0.86-0.41-1.59-0.95-2.12c-0.48-0.48-1.25-0.68-1.82-0.77
		c0.04-0.41,0.11-0.94,0.19-1.42l0.08-0.22c0.55-1.57,1.23-3.52,1.43-5.49c0.07-0.68,0.07-1.28,0.02-1.8
		c0.5,0.23,1.13,0.5,1.75,0.77c1.02,0.43,2.49,0.52,3.54,0.52c0.41,0,0.68-0.02,0.68-0.02l1.08-0.06l-0.24-1.05l-1.27-5.65
		l-0.01-0.05l-0.02-0.05l-0.53-1.54l-0.19-0.55l-0.57-0.06C44.05,108.34,43.78,108.31,43.62,108.31L43.62,108.31z" />
  </g>
  <g>
    <path class="st0" d="M36.82,135.63c0-0.01,0.04-0.06,0.11-0.14c0.27-0.34,1.08-1.37,1.37-1.98c0.42-0.89,0.51-1.54,0.25-2
		l-0.15-0.16l0.06-0.3c0.19-0.26,0.51-0.69,1.02-0.69c0.16,0,0.32,0.04,0.47,0.13c0.33,0.18,0.56,0.47,0.65,0.83
		c0.1,0.37,0.09,0.99-0.46,1.87c-1.01,1.59-1.9,2.31-2.48,2.64c-0.2,0.09-0.39,0.17-0.59,0.19l-0.5,0.04L36.82,135.63z" />
    <path d="M39.46,130.63c0.11,0,0.22,0.03,0.35,0.1c0.59,0.32,0.86,1.12,0.09,2.32c-0.99,1.57-1.86,2.26-2.38,2.56
		c-0.15,0.07-0.32,0.14-0.48,0.16c0.02-0.04,1.13-1.38,1.49-2.13c0.31-0.66,0.63-1.55,0.24-2.24c-0.05-0.09-0.04-0.1-0.11-0.17
		C38.85,130.95,39.11,130.63,39.46,130.63 M39.46,130.11L39.46,130.11c-0.63,0-1.02,0.51-1.22,0.79l-0.26,0.35l0.3,0.32l0.03,0.07
		c0.21,0.38,0.12,0.97-0.26,1.76c-0.18,0.38-0.63,1.03-1.34,1.92c-0.08,0.1-0.12,0.16-0.13,0.17l-0.5,0.87l1-0.09
		c0.25-0.02,0.47-0.12,0.66-0.2c0.64-0.36,1.57-1.11,2.61-2.75c0.61-0.96,0.6-1.66,0.49-2.07c-0.11-0.43-0.39-0.78-0.78-0.99
		C39.87,130.16,39.66,130.11,39.46,130.11L39.46,130.11z" />
  </g>
  <path class="st4" d="M35.83,127.76L35.83,127.76c-0.21,0.1-0.4,0.25-0.4,0.25c0,0,0,0,0,0c0.01,0.01,0.01,0.01,0.02,0.02
	c1.29,1.2,1.75,3,1.82,3.4c0.09,0.55,0.42,0.53,0.42,0.53l0.22-0.61l0.02-0.05C37.49,128.66,35.85,127.77,35.83,127.76" />
  <g>
    <path d="M35.26,128.7c-0.17-0.26-0.52-0.36-0.83-0.3c-0.37,0.07-1.24,1.76-1.24,1.76S34.91,128.93,35.26,128.7z" />
  </g>
  <path class="st4" d="M45.75,116.44l-0.35-1.54c-0.22,0.06-0.55,0.13-1.01,0.12c0,0,0,0,0,0c-0.14,0-0.29-0.01-0.45-0.02
	c-0.01,0-0.01,0-0.02,0c-0.04,0-0.09-0.01-0.14-0.01c-0.02,0-0.04-0.01-0.07-0.01c-0.04,0-0.07-0.01-0.11-0.01
	c-0.03,0-0.07-0.01-0.11-0.02c-0.03,0-0.06-0.01-0.08-0.01c-0.05-0.01-0.1-0.02-0.14-0.03c-0.02,0-0.04-0.01-0.06-0.01
	c-0.07-0.01-0.14-0.03-0.22-0.05c-0.04-0.01-0.08-0.02-0.12-0.03c-0.03-0.01-0.06-0.01-0.09-0.02c-0.09-0.02-0.18-0.05-0.27-0.07
	c-0.07-0.02-0.14-0.04-0.21-0.06c-0.11-0.03-0.21-0.06-0.31-0.1c-1.46-0.47-2.82-1.11-3.67-0.82c0,0,0,0,0,0c0,0,0,0,0,0
	c0.53,0.27,0.9,1.04,0.9,1.04s0.28,0.13,0.71,0.33c0.05,0.02,0.1,0.05,0.15,0.07c0.02,0.01,0.04,0.02,0.06,0.03
	c0.16,0.07,0.32,0.15,0.5,0.23c0.02,0.01,0.05,0.02,0.07,0.03c0.11,0.05,0.22,0.1,0.33,0.15c0.19,0.08,0.38,0.17,0.58,0.25
	c0,0,0,0,0.01,0c0.1,0.04,0.21,0.09,0.31,0.13c0.51,0.22,1.19,0.33,1.83,0.39c0.01,0,0.02,0,0.04,0c0.13,0.01,0.26,0.02,0.39,0.03
	c0.35,0.02,0.67,0.03,0.93,0.03l0,0c0,0,0,0,0,0C45.51,116.46,45.75,116.44,45.75,116.44z" />
  <path class="st4" d="M37.45,123.3c0.06-0.16,0.12-0.33,0.18-0.51c0.01-0.04,0.03-0.07,0.04-0.11c0.04-0.13,0.09-0.26,0.14-0.39
	c0.04-0.11,0.08-0.22,0.12-0.34c0.04-0.12,0.08-0.23,0.12-0.35c0.04-0.13,0.08-0.25,0.12-0.38c0.04-0.11,0.07-0.23,0.11-0.35
	c0.04-0.14,0.08-0.27,0.12-0.41c0.03-0.11,0.06-0.23,0.09-0.34c0.04-0.15,0.07-0.29,0.11-0.44c0.03-0.11,0.05-0.22,0.08-0.33
	c0.04-0.17,0.07-0.33,0.1-0.5c0.02-0.09,0.04-0.18,0.05-0.28c0.04-0.26,0.08-0.52,0.11-0.78c0.02-0.16,0.03-0.31,0.03-0.47
	c0-0.05,0.01-0.1,0.01-0.15c0-0.11,0.01-0.22,0.01-0.32c0-0.1,0-0.2-0.01-0.29c0-0.05,0-0.09-0.01-0.14c0-0.08-0.01-0.16-0.02-0.24
	c0-0.03-0.01-0.07-0.01-0.1c-0.01-0.11-0.03-0.23-0.04-0.33c-0.01-0.08-0.02-0.15-0.04-0.23c0-0.02-0.01-0.05-0.01-0.07
	c-0.15-0.77-0.43-1.38-0.8-1.77c0,0,0,0.01,0,0.01C38.09,113.92,38.84,117.43,37.45,123.3" />
  <path class="st4" d="M29.78,135.13C29.77,135.13,29.77,135.13,29.78,135.13c0,0.01,0,0.03,0.01,0.04c0.02,0.07,0.04,0.13,0.06,0.19
	c0.02,0.04,0.03,0.09,0.05,0.13c0.02,0.04,0.04,0.07,0.05,0.1c0.72,1.38,2.76,0.86,4.03,0.31l-1.54-1.51c0,0,0.81-2.11,0.76-4.25
	l-0.19-0.03L32.18,130L32.11,130l0,0l0,0C32.11,129.99,31.98,136.56,29.78,135.13" />
  <path class="st4" d="M29.23,129.83c0,0-0.58,3.98-2.87,2.78c-0.01-0.01-0.02-0.01-0.03-0.01c0.42,0.73,1.12,0.88,1.72,0.84
	c0.02,0,0.03,0,0.05,0c0.09-0.01,0.19-0.02,0.27-0.03c0.01,0,0.02,0,0.03-0.01c0.28-0.05,0.51-0.13,0.64-0.19
	c0,0,0.01-0.01,0.02-0.03c0.01-0.02,0.02-0.06,0.04-0.11c0.03-0.07,0.07-0.18,0.12-0.32c0.03-0.1,0.07-0.21,0.1-0.34
	c0.02-0.07,0.04-0.14,0.06-0.22c0.12-0.46,0.27-1.11,0.42-2c0,0,0,0,0,0c-0.04-0.07-0.08-0.14-0.11-0.22
	c-0.01-0.03-0.02-0.05-0.03-0.08c-0.02-0.05-0.04-0.1-0.06-0.15c-0.01-0.03-0.02-0.07-0.03-0.1c-0.02-0.05-0.03-0.09-0.04-0.14
	c-0.01-0.04-0.02-0.07-0.03-0.11c-0.01-0.04-0.02-0.09-0.03-0.13c-0.01-0.04-0.02-0.08-0.02-0.12c-0.01-0.04-0.01-0.08-0.01-0.12
	c0-0.04-0.01-0.09-0.01-0.13c0-0.03,0-0.06,0-0.08c0-0.19,0.01-0.38,0.05-0.57c0-0.01,0-0.03,0.01-0.04
	c0.01-0.06,0.03-0.12,0.05-0.17c0-0.01,0.01-0.03,0.01-0.04c0.02-0.06,0.04-0.11,0.07-0.17c0.01-0.01,0.01-0.02,0.02-0.03
	c0.03-0.06,0.06-0.11,0.09-0.17c0,0,0-0.01,0.01-0.01c0.15-0.23,0.35-0.43,0.61-0.55l0,0C29.78,127.26,28.92,127.91,29.23,129.83" />
  <g>
    <path class="st1" d="M68.75,131.51c-0.57,0-1.16-0.02-1.75-0.06c-9.19-0.64-16.87-5.9-21.61-14.8c-3.63-6.8-4-17.1-4.24-23.92
		c-0.06-1.68-0.11-3.13-0.21-4.2l-0.12-1.15c-0.36-3.4-0.74-6.92-2.01-10.08c-1.33-3.31-4.6-4.69-5.02-4.77l-0.95,0.05
		c-0.45,0.44-0.8,0.76-1.07,1.02c-0.78,0.73-1.07,1-1.7,1.84c-1.38,1.78-2.12,3.99-2.08,6.23c0.11,0.67,0.28,1.37,0.5,2.05
		c0.11,0.34,0.03,0.39-1.35,1.25l-0.21,0.13l-0.23,0.15c-0.57,0.39-1.16,0.79-1.91,0.99c-0.46,0.12-0.95,0.18-1.47,0.18
		c-0.28,0-0.56-0.02-0.83-0.05c-0.07-0.01-0.16-0.03-0.26-0.06c-0.06-0.02-0.15-0.04-0.19-0.05l-0.07-0.38l-0.12-0.37
		c0-0.02,0.12-0.32,0.12-0.32l0.33-0.76c0.22-0.51,0.43-1.03,0.62-1.55c0.35-0.98,0.67-1.97,0.96-2.93
		c0.15-0.49,0.29-0.98,0.42-1.48c0.05-0.18,0.09-0.36,0.13-0.54c0.08-0.32,0.15-0.65,0.26-0.96c1.71-4.86,4.69-7.5,7.39-9.78
		c-0.63-0.19-1.67-0.42-3-0.42c-1.76,0-3.55,0.4-5.32,1.18c-0.73,0.36-1.44,0.78-2.08,1.23c-5,3.01-8.32,8.23-8.9,14l-0.02,0.21
		l-0.43,0.22c-0.46,0.2-2.03,0.83-3.83,0.83c-1.65,0-3.05-0.51-4.16-1.52l-0.41-0.37l0.49-0.26c1-0.54,1.92-1.24,2.72-2.08
		c0.57-0.91,1.49-1.64,2.55-2.01c0.12-0.05,0.25-0.11,0.38-0.16l0.23-0.58c0.66-1.68,1.83-3.07,3.36-3.99c-0.03,0-0.05,0-0.08,0
		c-0.07,0-0.14,0-0.21,0.01l-1.16,0.16l0.83-0.83c0.04-0.08,0.21-0.32,0.49-0.68l0.41-0.49c0.23-0.26,0.49-0.53,0.79-0.82
		c1.73-1.63,3.7-2.91,5.85-3.81c0.46-0.21,1-0.43,1.68-0.68l0.78-0.26c0.33-0.12,0.71-0.23,1.09-0.34l1.16-0.29l0.32-0.07
		c0.98-0.22,1.96-0.4,2.93-0.52c-1.1-0.44-2.24-0.74-3.41-0.91l-0.65-0.09l0.39-0.53c0.63-0.86,1.44-1.56,2.35-2.05
		c-0.17,0.03-0.33,0.07-0.48,0.11l-0.81,0.24l-0.28,0.1c-0.4,0.14-0.84,0.32-1.33,0.54l-0.08,0.04H24.1l-1.09,0.48l0.24-0.81
		c0.15-0.5,0.39-0.96,0.71-1.35c-0.49,0.16-0.99,0.35-1.47,0.56c-0.73,0.33-1.65,0.74-2.23,1.33c-0.67,0.68-1.27,1.41-1.8,2.19
		c-0.34,0.49-0.64,1-0.95,1.51l-0.76,1.26c-0.04,0.06-0.11,0.18-0.23,0.26c-0.13,0.08-0.25,0.1-0.33,0.11
		c-0.28,0.04-0.58,0.06-0.87,0.06c-0.66,0-1.32-0.11-1.9-0.33c-0.34-0.13-0.69-0.33-1.08-0.62c-0.17-0.13-0.75-0.72-0.92-0.89
		l-0.59-0.6l0.85-0.06c0.47-0.03,1.24-0.13,1.48-0.25c2.03-1,3.8-2.37,5.27-4.09c1-1.28,2.31-2.33,3.79-3.02
		c0.29-0.13,0.57-0.24,0.85-0.31l0.21-0.06l0.16,0.15c0.62,0.58,1.43,0.9,2.28,0.9c0.5,0,0.98-0.11,1.43-0.32
		c0.66-0.31,1.25-0.73,1.77-1.25c0.04-0.06,0.11-0.16,0.22-0.22l0.28-0.3l0.18-0.22l0.05-0.03c0.11-0.08,0.22-0.11,0.32-0.14
		c0.44-0.11,0.87-0.16,1.29-0.16c0.1,0,0.21,0,0.31,0.01c0.25-0.6,1.01-1.76,3.31-3.15c0.95-0.57,1.43-0.74,1.89-0.9
		c0.41-0.14,0.81-0.28,1.56-0.73c0.19-0.17,0.27-0.24,0.42-0.24H39l0.1,0.24c0.1,0.25-0.06,0.41-0.2,0.55
		c-0.38,0.39-0.86,0.74-1.42,1.03l-0.47,0.28l-0.4,0.25l-0.3,0.21c-0.75,0.53-1.4,1.19-1.94,1.98c-0.66,1.05-0.6,1.35-0.39,1.86
		c0.05,0.13,0.13,0.24,0.23,0.32c0.18,0.09,0.46,0.15,0.75,0.15c0.12,0,0.25-0.01,0.37-0.04l0.15,0.5c0.13-0.06,0.26-0.13,0.38-0.2
		l0.12-0.08l0.14,0.02c0.27,0.04,1.57,0.48,3.34,1.29c4.03,0.4,7.77,2.25,10.53,5.21c5.49,6.02,6.13,9.53,6.88,13.59
		c0.07,0.38,0.14,0.76,0.21,1.15c0.8,4.15,4.63,13.48,9.89,16.26l0.05,0.02l0.04,0.04c0.01,0.01,1.53,1.4,4.87,1.4
		c1,0,2.07-0.12,3.18-0.37c3.69-0.84,7.21-2.26,10.44-4.22l0.17-0.1l0.18,0.07c7.51-5.62,14.92-16.53,17.73-20.66l0.65-0.95
		c2.73-3.97,6.42-9.48,6.46-9.54l0.12-0.18l13.85,0.3l-0.36,0.58c-0.47,0.76-0.54,1.01-0.7,1.51c-0.07,0.24-0.16,0.53-0.31,0.94
		c-0.71,1.95-1.32,3.91-1.89,5.75c-0.44,1.44-0.88,2.88-1.31,4.32c-0.92,3.06-1.88,6.23-2.91,9.31l-0.2,0.58
		c-0.02,0.05-0.04,0.1-0.06,0.15c-0.02,0.06-0.05,0.12-0.06,0.16c0,0.03,0,0.09,0,0.14l0,0.09c0.05,0.01,0.11,0.01,0.17,0.01
		c0.07,0,0.14,0,0.21-0.01c0.49-0.04,0.97-0.19,1.48-0.36c0.29-0.09,0.57-0.18,0.86-0.25c0.62-0.15,1.23-0.32,1.85-0.49l0.92-0.25
		c0.1-0.03,0.23-0.06,0.37-0.06h0.04l0.14,0.02c0.28,0.06,0.46,0.26,0.59,0.39l1.61,1.75c0.63,0.68,0.49,1.74,0.4,2.17l-0.03,0.13
		c-0.17,0.64-0.49,1.2-0.79,1.74l-0.19,0.33c-0.33,0.6-0.63,1.23-0.88,1.87c-0.03,0.07-0.05,0.17-0.08,0.27
		c-0.08,0.31-0.16,0.63-0.35,0.82c-0.17,0.17-0.38,0.18-0.51,0.19c0,0-0.01,0-0.01,0c-0.05,0.08-0.12,0.19-0.2,0.32
		c-0.5,0.78-0.9,1.4-1.25,1.59c-0.22,0.12-0.69,0.23-2.6,0.23c0,0,0,0,0,0c-1.45,0-3.26-0.06-4.71-0.11
		c-0.94-0.03-1.72-0.06-2.13-0.06c-0.02,0.1-0.05,0.2-0.07,0.3c-0.08,0.3-0.19,0.47-0.29,0.6c-0.21,0.31-0.39,0.56-0.58,0.82
		c-0.4,0.55-0.8,1.09-1.22,1.62c-0.25,0.31-0.35,0.41-0.49,0.52c-0.08,0.07-0.17,0.14-0.37,0.37c-0.31,0.36-0.82,0.41-1.27,0.41
		l-0.62-0.01c-0.24,0-0.56,0.01-0.68,0.13c-0.2,0.21-0.38,0.99-0.52,1.62c-0.21,0.92-0.39,1.71-0.78,2.08
		c-0.63,0.58-1.28,1.15-1.94,1.69c-0.7,0.58-1.42,1.12-2.13,1.64c-0.61,0.43-1.24,0.86-1.88,1.27c-3.87,8.8-12.15,16.6-12.24,16.67
		C84.2,126.8,77.62,131.51,68.75,131.51z M8.28,82.14c0.2,0.02,0.4,0.06,0.6,0.11c0.18-0.28,0.39-0.55,0.62-0.8
		C9.08,81.65,8.67,81.88,8.28,82.14z M34.64,63.96c0.14,0.15,0.26,0.3,0.38,0.47c0.18,0.26,0.33,0.56,0.45,0.89
		c0.03,0.06,0.05,0.15,0.08,0.24c0.81,2.29-0.8,5.07-0.87,5.19c-0.39,0.4-0.74,0.75-1.04,1.05l0.04-0.02
		c0.12-0.06,2.96-1.42,2.45-6.31c-0.41-0.69-0.9-1.19-1.44-1.49C34.67,63.98,34.65,63.97,34.64,63.96z" />
    <path d="M38.74,51.46c0.01,0-0.02,0.03-0.11,0.13c-0.38,0.39-0.83,0.7-1.32,0.95l-0.49,0.29l-0.21,0.13l-0.21,0.13l-0.31,0.22
		c-0.8,0.56-1.49,1.27-2.04,2.08c-0.72,1.14-0.69,1.58-0.43,2.22c0.08,0.18,0.18,0.35,0.33,0.47c0.31,0.17,0.65,0.25,1,0.25
		c0.15,0,0.3-0.01,0.44-0.04c-0.85,0.33-1.59,0.46-2.2,0.46c-1.24,0-2.02-0.54-2.3-1.1c0.17,0.74,0.72,1.61,2.36,1.61
		c0.09,0,0.19,0,0.29-0.01c0.49-0.04,0.96-0.13,1.42-0.26c0.38-0.1,0.74-0.25,1.08-0.45c0.23,0.04,1.51,0.47,3.3,1.28
		c3.91,0.37,7.61,2.16,10.35,5.09c5.91,6.49,6.11,9.95,6.99,14.55S61.63,93.26,66.8,96c0,0,1.58,1.51,5.13,1.51
		c0.95,0,2.03-0.11,3.26-0.38c3.72-0.85,7.29-2.29,10.56-4.26c0.07,0.03,0.14,0.05,0.2,0.08c8.27-6.1,16.33-18.48,18.64-21.83
		c2.76-4.01,6.46-9.54,6.46-9.54l12.95,0.28c-0.72,1.17-0.58,1.25-1.04,2.53c-0.69,1.9-1.3,3.84-1.89,5.77
		c-1.4,4.54-2.71,9.12-4.22,13.63c-0.07,0.2-0.13,0.39-0.2,0.58c-0.04,0.12-0.11,0.25-0.13,0.37c-0.02,0.1,0,0.23,0,0.33
		c0,0.07-0.03,0.2,0.01,0.26c0.02,0.03,0.17,0.07,0.17,0.07l0,0c0.13,0.03,0.25,0.04,0.38,0.04c0.08,0,0.16,0,0.24-0.01
		c0.82-0.07,1.6-0.42,2.4-0.62c0.93-0.23,1.85-0.49,2.78-0.74c0.09-0.02,0.18-0.05,0.27-0.05c0.03,0,0.06,0,0.09,0.01
		c0.16,0.03,0.28,0.16,0.38,0.28c0.54,0.58,1.07,1.17,1.61,1.75c0.42,0.46,0.43,1.23,0.3,1.82c-0.01,0.04-0.02,0.07-0.03,0.11
		c-0.18,0.71-0.59,1.34-0.95,1.98c-0.34,0.62-0.64,1.26-0.9,1.91c-0.09,0.23-0.17,0.79-0.34,0.96c-0.13,0.14-0.41,0.02-0.52,0.17
		c-0.25,0.35-0.99,1.65-1.37,1.85c-0.25,0.13-1.2,0.18-2.42,0.18c-2.4,0-5.81-0.18-6.85-0.18c-0.2,0-0.31,0.01-0.32,0.02
		c-0.04,0.22-0.09,0.44-0.15,0.65c-0.04,0.16-0.14,0.3-0.24,0.44c-0.18,0.26-0.36,0.52-0.54,0.77c-0.39,0.54-0.8,1.08-1.21,1.61
		c-0.45,0.57-0.37,0.33-0.84,0.88c-0.2,0.23-0.57,0.27-0.97,0.27c-0.2,0-0.41-0.01-0.62-0.01c-0.39,0-0.75,0.04-0.96,0.25
		c-0.56,0.58-0.69,3.13-1.28,3.68c-0.62,0.58-1.26,1.14-1.92,1.68c-0.69,0.56-1.39,1.1-2.11,1.62c-0.64,0.46-1.3,0.9-1.96,1.32
		c-3.86,8.88-12.19,16.66-12.19,16.66c-2.73,1.95-9.14,6.41-17.71,6.41c-0.56,0-1.14-0.02-1.72-0.06
		c-9.42-0.66-16.79-6.15-21.29-14.59c-4.5-8.44-3.94-22.67-4.4-27.96c-0.42-3.83-0.72-7.77-2.16-11.34
		c-1.47-3.67-5.11-5.02-5.34-5.02c0,0,0,0,0,0c0,0,3.26-1.46,2.67-6.79c-0.52-0.89-1.1-1.41-1.63-1.71
		c-0.45-0.25-0.86-0.34-1.15-0.34c-0.35,0-0.53,0.12-0.38,0.21c0,0,0.08,0,0.08,0l0.26,0.16c0.4,0.25,0.74,0.58,1.01,0.97
		c0.17,0.25,0.3,0.52,0.4,0.8c0.03,0.08,0.05,0.15,0.08,0.23c0.77,2.16-0.83,4.88-0.83,4.88c-3.38,3.4-3.45,3.14-4.59,4.65
		c-1.44,1.85-2.2,4.13-2.16,6.48c0.12,0.73,0.29,1.46,0.52,2.16c0.02,0.06-1.28,0.85-1.4,0.93c-0.65,0.44-1.24,0.89-2.02,1.09
		c-0.45,0.12-0.91,0.17-1.37,0.17c-0.26,0-0.53-0.02-0.78-0.05c-0.12-0.01-0.34-0.11-0.49-0.11c-0.02,0-0.05,0-0.07,0.01
		c0.21-0.07,0.29-0.36,0.37-0.54c0.11-0.26,0.22-0.51,0.33-0.77c0.22-0.52,0.44-1.04,0.63-1.58c0.35-0.97,0.67-1.96,0.97-2.95
		c0.15-0.49,0.29-0.99,0.43-1.49c0.13-0.48,0.22-1,0.38-1.47c1.78-5.07,5.02-7.71,7.79-10.05c-0.01,0-1.45-0.68-3.77-0.68
		c-1.5,0-3.38,0.28-5.48,1.22c-0.74,0.37-1.47,0.79-2.15,1.26c-5.11,3.07-8.47,8.35-9.07,14.28l-0.24,0.12
		c-0.57,0.25-2.02,0.79-3.65,0.79c-1.29,0-2.71-0.34-3.9-1.42c1.05-0.56,2-1.3,2.82-2.16c0.56-0.89,1.4-1.56,2.4-1.91
		c0.56-0.25,1.28-0.54,2.26-0.89c-0.28-0.09-0.57-0.14-0.87-0.14c-0.18,0-0.36,0.02-0.55,0.06c0.73-1.87,2.16-3.38,3.98-4.22
		c-0.32-0.2-0.7-0.31-1.07-0.31c-0.09,0-0.18,0.01-0.27,0.02c0.01-0.01,0.17-0.27,0.52-0.71l0.4-0.49c0.22-0.24,0.46-0.51,0.76-0.79
		c1.67-1.58,3.62-2.85,5.73-3.73c0.52-0.24,1.07-0.45,1.66-0.67l0.25-0.09l0.52-0.17c0.33-0.12,0.7-0.23,1.08-0.33l1.14-0.29
		l0.3-0.06c1.42-0.32,2.86-0.55,4.32-0.67c-1.51-0.78-3.14-1.3-4.82-1.53c0.69-0.94,1.62-1.69,2.69-2.16
		c0.46-0.19,0.94-0.36,1.44-0.45c-0.26-0.14-0.55-0.2-0.84-0.2c-0.08,0-0.16,0-0.24,0.01c-0.23,0-0.46,0.02-0.69,0.06
		c-0.3,0.04-0.6,0.11-0.9,0.18l-0.82,0.25l-0.3,0.11c-0.41,0.14-0.86,0.32-1.36,0.55h-0.13l-0.39,0.17c0.3-1.01,1.05-1.86,2.02-2.28
		l-0.31,0.08h-0.11c-0.99,0.21-1.97,0.53-2.89,0.94c-0.8,0.36-1.72,0.78-2.34,1.41c-0.68,0.69-1.3,1.44-1.85,2.24
		c-0.34,0.5-0.65,1.02-0.96,1.53c-0.25,0.42-0.51,0.84-0.76,1.26c-0.03,0.05-0.06,0.11-0.12,0.14c-0.05,0.03-0.11,0.04-0.17,0.05
		c-0.27,0.04-0.54,0.06-0.81,0.06c-0.6,0-1.21-0.1-1.77-0.3c-0.35-0.13-0.68-0.34-0.97-0.56c-0.16-0.12-0.88-0.86-0.88-0.86
		s1.21-0.09,1.63-0.29c2.06-1.01,3.9-2.44,5.4-4.19c0.97-1.25,2.22-2.26,3.66-2.92c0.26-0.12,0.52-0.22,0.79-0.29
		c0.71,0.66,1.62,1,2.55,1c0.54,0,1.09-0.12,1.6-0.36c0.7-0.33,1.33-0.78,1.88-1.33c0.05-0.05,0.11-0.17,0.17-0.17l0.33-0.36
		l0.16-0.19c0.06-0.04,0.13-0.06,0.21-0.09c0.39-0.09,0.79-0.14,1.19-0.14c0.19,0,0.39,0.01,0.58,0.04c0.06-0.32,0.53-1.6,3.24-3.24
		c1.77-1.07,1.83-0.65,3.45-1.62C38.53,51.63,38.73,51.46,38.74,51.46 M7.16,82.52c0.17-0.02,0.34-0.03,0.51-0.03
		c0.47,0,0.94,0.07,1.39,0.21c0.59-1.04,1.5-1.86,2.58-2.34C9.98,80.66,8.42,81.4,7.16,82.52 M38.74,50.68
		c-0.3,0-0.47,0.14-0.66,0.31L38.06,51c-0.68,0.4-1.03,0.52-1.43,0.66c-0.46,0.16-0.99,0.34-1.97,0.93
		c-2.09,1.27-2.98,2.37-3.35,3.09c-0.02,0-0.04,0-0.06,0c-0.45,0-0.91,0.06-1.37,0.17c-0.16,0.04-0.3,0.09-0.46,0.2l-0.09,0.06
		l-0.07,0.09l-0.16,0.19l-0.21,0.22c-0.14,0.1-0.23,0.22-0.28,0.28c-0.48,0.47-1.03,0.86-1.63,1.15c-0.39,0.18-0.82,0.28-1.26,0.28
		c-0.75,0-1.47-0.28-2.02-0.79l-0.32-0.3l-0.42,0.12c-0.3,0.08-0.6,0.19-0.9,0.33c-1.54,0.72-2.91,1.81-3.95,3.16
		c-1.42,1.65-3.15,2.99-5.12,3.97c-0.16,0.07-0.78,0.17-1.34,0.21l-1.69,0.12l1.19,1.21c0.28,0.29,0.78,0.79,0.96,0.93
		c0.41,0.32,0.8,0.54,1.18,0.68c0.62,0.23,1.33,0.35,2.04,0.35c0.31,0,0.62-0.02,0.93-0.07c0.09-0.01,0.29-0.04,0.49-0.18
		c0.2-0.13,0.3-0.3,0.35-0.39l0.38-0.63l0.38-0.63c0.3-0.5,0.61-1.01,0.94-1.49c0.52-0.76,1.11-1.48,1.76-2.14
		c0.53-0.53,1.4-0.93,2.11-1.25c0.13-0.06,0.27-0.12,0.41-0.17c-0.07,0.16-0.13,0.32-0.18,0.49l-0.49,1.63l1.55-0.69l0.24-0.11h0.13
		l0.15-0.07c0.25-0.12,0.5-0.22,0.72-0.31c-0.23,0.24-0.45,0.5-0.66,0.78l-0.78,1.06l1.3,0.18c0.62,0.09,1.23,0.21,1.83,0.38
		c-0.46,0.08-0.92,0.18-1.39,0.28l-0.29,0.06l-1.17,0.3c-0.37,0.11-0.78,0.22-1.15,0.36l-0.5,0.17l-0.26,0.09
		c-0.7,0.25-1.24,0.47-1.73,0.7c-2.17,0.91-4.18,2.22-5.94,3.88c-0.31,0.3-0.58,0.59-0.8,0.83l-0.42,0.52
		c-0.28,0.36-0.44,0.6-0.52,0.71l-1.59,1.6l1.12-0.16c-1,0.89-1.79,2.01-2.29,3.28l-0.17,0.43c-0.08,0.03-0.16,0.07-0.23,0.1
		c-1.11,0.39-2.07,1.15-2.73,2.15c-0.76,0.79-1.63,1.45-2.57,1.96l-0.98,0.53l0.82,0.75c1.19,1.08,2.68,1.62,4.43,1.62
		c1.83,0,3.39-0.6,3.97-0.86l0.27-0.13l0.39-0.19l0.04-0.43c0.57-5.64,3.81-10.76,8.69-13.69l0.02-0.01l0.02-0.02
		c0.63-0.44,1.32-0.84,2.05-1.2c1.69-0.75,3.42-1.14,5.13-1.14c0.87,0,1.6,0.1,2.17,0.22c-2.58,2.21-5.31,4.85-6.93,9.46
		c-0.12,0.33-0.2,0.67-0.27,1c-0.04,0.18-0.08,0.35-0.13,0.52c-0.13,0.49-0.28,0.98-0.42,1.47c-0.29,0.97-0.61,1.95-0.95,2.91
		c-0.19,0.54-0.42,1.08-0.61,1.53l-0.23,0.53l-0.1,0.23l-0.05,0.12c-0.02,0.04-0.03,0.09-0.06,0.13c0.02-0.03,0.09-0.11,0.22-0.15
		l0.48,1.49c-0.07,0.02-0.13,0.03-0.17,0.03c-0.01,0,0.04,0.02,0.08,0.03c0.12,0.04,0.23,0.06,0.32,0.07
		c0.3,0.03,0.59,0.05,0.87,0.05c0.55,0,1.08-0.07,1.57-0.2c0.81-0.22,1.43-0.64,2.03-1.05l0.23-0.15c0.03-0.02,0.1-0.06,0.2-0.13
		c1.38-0.86,1.71-1.07,1.51-1.7c-0.21-0.64-0.37-1.31-0.48-1.99c-0.03-2.13,0.68-4.24,1.99-5.93c0.62-0.83,0.88-1.07,1.66-1.8
		c0.25-0.24,0.56-0.53,0.96-0.9l0.77-0.05c0.44,0.16,3.41,1.35,4.69,4.52c1.25,3.11,1.62,6.6,1.98,9.98l0.12,1.16
		c0.09,1.04,0.14,2.49,0.2,4.16c0.25,6.85,0.62,17.2,4.29,24.09c4.81,9.02,12.6,14.35,21.93,15c0.59,0.04,1.19,0.06,1.78,0.06
		c8.99,0,15.65-4.76,18.16-6.55l0.04-0.03l0.04-0.03c0.34-0.32,8.36-7.87,12.28-16.69c0.62-0.39,1.22-0.8,1.8-1.22
		c0.73-0.52,1.45-1.08,2.15-1.65c0.66-0.54,1.32-1.12,1.96-1.71c0.48-0.45,0.67-1.3,0.9-2.28c0.1-0.45,0.27-1.19,0.41-1.41
		c0.05-0.01,0.16-0.03,0.41-0.03c0.1,0,0.19,0,0.29,0c0.11,0,0.22,0.01,0.33,0.01c0.54,0,1.15-0.06,1.56-0.54
		c0.18-0.21,0.25-0.27,0.32-0.33c0.15-0.12,0.27-0.24,0.54-0.58c0.42-0.53,0.84-1.08,1.23-1.63c0.19-0.26,0.37-0.52,0.55-0.78
		c0.14-0.19,0.28-0.4,0.35-0.69l0.01-0.05c0-0.01,0-0.02,0.01-0.03c0.44,0.01,1.09,0.03,1.82,0.06c1.46,0.05,3.27,0.11,4.72,0.11
		c2.1,0,2.53-0.13,2.78-0.27c0.4-0.21,0.77-0.73,1.4-1.72c0.04-0.06,0.07-0.11,0.1-0.16c0.18-0.03,0.39-0.1,0.58-0.29
		c0.26-0.27,0.36-0.65,0.45-1c0.02-0.09,0.04-0.17,0.06-0.22c0.24-0.62,0.53-1.23,0.85-1.82l0.19-0.33
		c0.32-0.56,0.66-1.15,0.83-1.84c0.01-0.05,0.02-0.1,0.03-0.14c0.1-0.48,0.26-1.69-0.49-2.51l-0.2-0.22l-1.4-1.53
		c-0.14-0.15-0.39-0.42-0.79-0.51c-0.08-0.02-0.17-0.03-0.26-0.03c-0.2,0-0.36,0.04-0.47,0.07c-0.31,0.08-0.62,0.17-0.93,0.25
		c-0.61,0.17-1.22,0.33-1.84,0.49c-0.29,0.07-0.59,0.16-0.88,0.26c-0.44,0.14-0.85,0.27-1.26,0.32c0,0,0-0.01,0-0.01l0.2-0.59
		c1.04-3.1,2-6.27,2.92-9.34c0.43-1.43,0.87-2.87,1.31-4.3c0.57-1.85,1.18-3.81,1.88-5.74c0.15-0.42,0.24-0.72,0.32-0.96
		c0.15-0.49,0.21-0.71,0.66-1.42l0.72-1.16l-1.37-0.03l-12.95-0.28l-0.43-0.01l-0.24,0.36c-0.04,0.06-3.73,5.57-6.46,9.53
		c-0.18,0.26-0.4,0.58-0.65,0.95c-2.77,4.08-10.06,14.81-17.46,20.43L85.68,92l-0.33,0.2c-3.2,1.93-6.67,3.33-10.33,4.17
		c-1.08,0.24-2.12,0.36-3.09,0.36c-3.15,0-4.58-1.28-4.6-1.3l-0.07-0.07l-0.09-0.05c-4.9-2.6-8.85-11.65-9.69-15.99
		c-0.08-0.39-0.15-0.77-0.21-1.15c-0.76-4.12-1.41-7.68-6.97-13.78c-2.83-3.02-6.63-4.91-10.72-5.33c-1.73-0.78-3.04-1.23-3.38-1.29
		l-0.29-0.05l-0.25,0.15c-0.08,0.05-0.17,0.1-0.26,0.14l-0.14-0.49c-0.1,0.02-0.2,0.03-0.29,0.03c-0.19,0-0.37-0.04-0.54-0.11
		c-0.03-0.03-0.05-0.08-0.07-0.13c-0.15-0.39-0.23-0.56,0.37-1.51c0.49-0.73,1.11-1.36,1.83-1.86l0.31-0.21l0.18-0.11l0.21-0.13
		l0.47-0.28c0.55-0.29,1.06-0.66,1.48-1.08c0.14-0.15,0.48-0.49,0.28-0.97l-0.2-0.48L38.74,50.68
		C38.74,50.68,38.74,50.68,38.74,50.68L38.74,50.68z" />
  </g>
  <g>
    <path class="st4" d="M124.79,92.86c-0.13,0-0.26-0.03-0.32-0.06c-0.16,0-1.06,0-1.06,0l-0.06-0.08c0.45-1.78,0.94-3.16,1.51-4.22
		l0.09-0.19c0.01,0,0.03,0,0.04,0c0.19,0,0.27,0.34,0.27,0.41c0,1.41-0.03,3.25-0.14,4.03C125.03,92.83,124.92,92.86,124.79,92.86z" />
    <path d="M125.03,88.32c0.06,0,0.17,0.29,0.17,0.39c0,1.01-0.02,3.16-0.14,4.02c-0.07,0.05-0.17,0.07-0.26,0.07
		c-0.12,0-0.25-0.03-0.29-0.05c-0.36-0.01-0.73,0-1.09,0c0.38-1.52,0.86-3.01,1.51-4.21l0.1-0.2
		C125.01,88.32,125.02,88.32,125.03,88.32 M125.03,88.19l-0.14,0.09l-0.1,0.2c-0.57,1.06-1.07,2.45-1.52,4.23l0.13,0.16l0.37,0
		c0.23,0,0.47,0,0.7,0c0.07,0.03,0.2,0.06,0.32,0.06c0.15,0,0.26-0.03,0.35-0.1l0.05-0.08c0.11-0.79,0.14-2.63,0.14-4.04
		c0-0.11-0.1-0.38-0.18-0.47L125.03,88.19L125.03,88.19z" />
  </g>
  <g>
    <path class="st1" d="M134.44,29.42c-0.27-0.27-6.62-6.7-6.99-7.09l-0.19-0.2l0.09-0.26c1.88-5.35,1.72-9.98-0.44-13.03
		c-1.36-1.92-3.47-3.02-5.79-3.02c-2.65,0.08-5.15,1.31-6.85,3.36c-0.96,1.08-1.84,2.23-2.69,3.34c-0.28,0.36-0.55,0.72-0.83,1.08
		c-5.06,6.55-9.84,12.73-20.13,13.7c-0.88,0.13-1.8,0.13-2.69,0.13h-0.18c-7.6,0-14.8-2.86-20.32-8.05l-0.19-0.19v0.26l0.01,0.14
		c0.02,0.45,0.09,1.82,0.26,3.03l0.19,1.31l-0.96-0.92c-3.63-3.51-5.85-8.21-6.25-13.24l-0.11-1.4l0.91,1.06
		c2.96,3.45,6.84,5.92,11.22,7.15l1.38,0.39l-1.35,0.48c-0.77,0.28-1.56,0.42-2.34,0.42h-0.71l-0.3-0.02l0.21,0.22
		c4.63,4.29,10.7,6.68,17.04,6.69h0.15c1.42-0.01,2.85-0.14,4.24-0.38c8.91-1.51,13.41-8.7,16.7-13.95
		c4.15-6.55,9.52-10.15,15.13-10.15c4.3,0,8.31,2.21,11.01,6.04c4.09,5.81,4.64,14.16,1.52,22.93l-0.24,0.68L134.44,29.42z" />
    <path d="M122.67,0.74c9.94,0.01,17.92,12.04,12.1,28.36c0,0-6.62-6.69-6.98-7.08c3.73-10.64-1.04-16.66-6.66-16.66
		c-2.8,0.09-5.42,1.37-7.2,3.53c-1.27,1.42-2.4,2.97-3.53,4.43c-5,6.46-9.72,12.57-19.82,13.52c-0.87,0.13-1.77,0.13-2.64,0.13
		h-0.18c-0.01,0-0.03,0-0.04,0c-7.42,0-14.56-2.84-19.97-7.92l-0.96-0.94v1.35c0.01,0.13,0.06,1.78,0.27,3.24
		c-3.55-3.43-5.72-8.03-6.11-12.95c3.01,3.51,6.99,6.04,11.44,7.3c-0.7,0.25-1.43,0.39-2.18,0.39c-0.03,0-0.06,0-0.08,0h-0.63
		l-1.44-0.11l1.01,1.08c4.73,4.38,10.93,6.82,17.38,6.83h0.15c1.45-0.01,2.89-0.14,4.32-0.39c8.82-1.49,13.28-8.19,17.01-14.16
		C112.32,3.74,117.72,0.74,122.67,0.74 M122.67-0.18L122.67-0.18c-5.78,0-11.29,3.68-15.52,10.37c-4.2,6.72-8.34,12.39-16.39,13.75
		c-1.37,0.24-2.78,0.37-4.17,0.38l-0.14,0c-5.93-0.01-11.6-2.13-16.07-5.98c0.78-0.02,1.55-0.17,2.32-0.44l2.69-0.96l-2.75-0.77
		c-4.29-1.21-8.09-3.63-11-7.01l-1.82-2.12l0.22,2.79c0.41,5.14,2.67,9.95,6.38,13.54l1.91,1.85l-0.37-2.63
		c-0.11-0.79-0.18-1.66-0.22-2.29c5.53,4.91,12.58,7.6,19.97,7.6l0.23,0c0.9,0,1.84,0,2.78-0.14c10.44-0.98,15.28-7.24,20.4-13.87
		c0.27-0.35,0.55-0.71,0.82-1.07c0.85-1.11,1.72-2.25,2.66-3.31c1.64-1.98,4.01-3.15,6.55-3.23c2.14,0,4.11,1.03,5.39,2.83
		c2.07,2.92,2.21,7.4,0.38,12.62l-0.18,0.53l0.38,0.4c0.37,0.39,6.73,6.82,7,7.1l1.02,1.03l0.49-1.37
		c3.18-8.91,2.6-17.42-1.57-23.35C131.27,2.1,127.12-0.17,122.67-0.18L122.67-0.18z" />
  </g>
  <path d="M133.33,27.73c0,0,4.09-10.05,1.76-17.78c0.7,1.22,1.21,2.54,1.52,3.91c0,1.21,0.5,6.28-2.54,14.6L133.33,27.73z" />
  <path d="M131.1,21.41c0.82-0.41,1.58-0.93,2.27-1.53c0,0,0.74,1.74-0.74,5.08c0,0,2.32-3.5,1.08-6.31
	c-0.83,0.97-1.72,1.89-2.64,2.76" />
  <path d="M130.31,18.48c0.72-1.58,1.09-3.29,1.08-5.03c0,0,0.57-0.15,1.5,1.62c-0.12-1.4-0.98-2.64-2.27-3.24
	c0.77,2.5-0.29,6.63-0.29,6.63" />
  <path class="st4" d="M136.7,14.08c1,5.22,0.49,10.62-1.49,15.56l-1.25-1.29C135.43,25.18,136.48,19.88,136.7,14.08z" />
  <g>
    <path class="st1" d="M135.45,109.36l-0.13-0.74c0,0,0.55-0.21,0.6-0.23c0.46-0.22,0.6-0.64,0.65-0.95
		c0.05-0.33,0.14-1.02-0.03-1.27c-0.32-0.46-1.06-0.68-1.61-0.72l-0.49-0.04l0.07-0.49l0.37-2.32l0.29-0.08
		c0.4-0.11,0.79-0.16,1.15-0.16c0.83,0,1.55,0.3,2.09,0.86c0.73,0.76,1.12,2.01,1.05,3.42c-0.05,1.16-0.68,2.57-3.37,2.7l-0.12,0.01
		l-0.08,0.03L135.45,109.36z" />
    <path d="M136.31,102.82c2.07,0,2.76,2.04,2.68,3.79c-0.11,2.43-2.95,2.22-3.11,2.28c-0.03,0.01-0.04,0.02-0.04,0.02
		c0,0,0.22-0.08,0.28-0.11c0.53-0.25,0.82-0.73,0.9-1.3c0.06-0.46,0.17-1.19-0.11-1.59c-0.41-0.59-1.26-0.86-1.95-0.91h-0.01
		l0.32-2.03C135.65,102.87,135.99,102.82,136.31,102.82 M136.31,101.91c-0.4,0-0.82,0.06-1.26,0.18l-0.57,0.15l-0.09,0.59
		l-0.32,2.03l-0.17,1.06h1.04c0.55,0.05,1.05,0.26,1.23,0.52c0.07,0.16-0.02,0.75-0.04,0.95c-0.06,0.44-0.31,0.56-0.39,0.6
		c-0.04,0.02-0.15,0.06-0.19,0.07l-0.71,0.27l0.12,0.76l0.14,0.75h0.76H136l0.09-0.03l0.02,0c3.19-0.16,3.75-2.03,3.8-3.14
		c0.07-1.53-0.36-2.9-1.18-3.75C138.1,102.25,137.26,101.91,136.31,101.91L136.31,101.91z" />
  </g>
  <g>
    <path class="st0" d="M135.76,109.29c-0.08,0-0.16-0.01-0.24-0.01l-0.12-0.01c-0.31-0.01-0.62-0.03-0.93-0.06
		c-1.17-0.11-2.16-0.3-3.05-0.58c-3.15-1.02-4.71-3.37-4.78-3.47l-0.7-1.07l1.18,0.5c0.03,0.01,2.57,1.07,4.52,1.07
		c2.22,0,3.01-0.9,3.02-0.91l0.13-0.15l0.2,0.01c0.37,0.03,1.63,0.19,2.24,1.08c0.36,0.52,0.25,1.33,0.17,1.87
		c-0.06,0.4-0.21,0.76-0.43,1.05c-0.22,0.28-0.61,0.61-1.03,0.67C135.88,109.29,135.82,109.29,135.76,109.29z" />
    <path d="M126.97,104.94c0,0,2.61,1.1,4.67,1.1c0,0,0,0,0,0c2.47,0,3.32-1.05,3.32-1.05c0.69,0.05,1.54,0.32,1.95,0.91
		c0.27,0.4,0.17,1.13,0.11,1.59c-0.04,0.31-0.16,0.62-0.35,0.86c-0.18,0.23-0.49,0.48-0.79,0.53c-0.04,0.01-0.08,0.01-0.12,0.01
		c-0.11,0-0.24-0.02-0.34-0.02c-0.3-0.01-0.61-0.03-0.91-0.06c-1-0.09-2-0.26-2.96-0.57C128.49,107.26,126.97,104.94,126.97,104.94
		 M124.91,103.22l1.4,2.15c0.07,0.1,1.71,2.57,4.99,3.63c0.91,0.3,1.94,0.49,3.13,0.6c0.32,0.03,0.63,0.05,0.95,0.06l0.1,0.01
		c0.09,0.01,0.18,0.01,0.27,0.01c0.09,0,0.17-0.01,0.25-0.02c0.67-0.11,1.14-0.65,1.27-0.82c0.27-0.34,0.45-0.77,0.52-1.24
		c0.08-0.56,0.21-1.49-0.24-2.14c-0.71-1.04-2.12-1.22-2.54-1.25l-0.41-0.03l-0.26,0.32c-0.02,0.02-0.72,0.76-2.71,0.76
		c-1.87,0-4.34-1.03-4.37-1.04L124.91,103.22L124.91,103.22z" />
  </g>
  <path d="M135.85,104.86c-0.37-0.16-0.9,0.14-0.9,0.14s-1.11,1.35-7.98-0.05c2.46,1.46,8.09,3.03,9.32,0.09L135.85,104.86z" />
  <g>
    <path class="st1" d="M135.77,97.94c-0.04-0.09-0.09-0.18-0.17-0.25l-0.25-0.25l0.22-0.28c0.25-0.32,0.19-0.86,0.03-1.24
		c-0.06-0.14-0.13-0.29-0.23-0.37c-0.09-0.06-0.23-0.1-0.45-0.1c0,0,0,0,0,0c-0.55,0-1.02,0.13-1.47,0.4l-0.09,0.05l-0.11,0
		c-0.21,0-0.29-0.07-0.98-0.83l-0.09-0.1l-0.72-0.75l0.17-0.26c0.78-1.18,1.8-1.85,2.81-1.85c0.33,0,0.65,0.07,0.97,0.2
		c1.38,0.58,2.66,2.37,2.28,4.02c-0.17,0.74-0.61,1.32-1.35,1.78l-0.4,0.25L135.77,97.94z" />
    <path d="M134.44,92.52c0.26,0,0.54,0.05,0.82,0.17c1.29,0.54,2.37,2.16,2.05,3.57c-0.16,0.69-0.59,1.17-1.18,1.54
		c-0.06-0.15-0.15-0.28-0.26-0.39c0.35-0.45,0.29-1.14,0.08-1.63c-0.08-0.2-0.19-0.4-0.36-0.53c-0.19-0.14-0.44-0.17-0.67-0.18
		c-0.01,0-0.02,0-0.04,0c-0.59,0-1.13,0.15-1.64,0.45c0,0,0,0,0,0c-0.07,0-0.72-0.74-0.79-0.81c-0.17-0.17-0.33-0.35-0.5-0.52
		C132.54,93.31,133.42,92.52,134.44,92.52 M134.44,91.73c-1.57,0-2.64,1.27-3.14,2.03l-0.35,0.52l0.44,0.45l0.5,0.52l0.09,0.1
		c0.68,0.75,0.86,0.95,1.26,0.95h0.21l0.19-0.11c0.4-0.23,0.79-0.34,1.24-0.34c0.2,0,0.25,0.02,0.25,0.03c0,0,0.03,0.04,0.1,0.2
		c0.13,0.31,0.14,0.69,0.02,0.84l-0.43,0.55l0.5,0.49c0.03,0.03,0.06,0.07,0.08,0.12l0.34,0.88l0.8-0.5
		c0.83-0.52,1.33-1.18,1.52-2.03c0.43-1.87-0.95-3.82-2.51-4.47C135.2,91.81,134.82,91.73,134.44,91.73L134.44,91.73z" />
  </g>
  <g>
    <path class="st0" d="M128.8,100.62c-0.96,0-1.42-0.2-1.47-0.22l-0.74-0.34l0.76-0.27c5.28-1.84,5.51-4.35,5.51-4.37
		c0.01-0.23,0.22-0.32,0.45-0.43c0.29-0.14,0.56-0.24,0.82-0.31c0.21-0.05,0.41-0.08,0.6-0.08c0.16,0,0.3,0.02,0.44,0.05
		c0.2,0.05,0.37,0.13,0.53,0.24c0.17,0.12,0.25,0.25,0.32,0.36l0.07,0.1c0.08,0.09,0.11,0.14,0.15,0.2c0.15,0.27,0.2,0.69,0.19,0.97
		c0,0.28-0.07,0.56-0.19,0.84c-0.26,0.58-0.78,1.1-1.54,1.54c-0.21,0.12-0.43,0.22-0.65,0.32
		C131.56,100.38,129.82,100.62,128.8,100.62L128.8,100.62z" />
    <path d="M134.75,94.93c0.12,0,0.25,0.01,0.37,0.04c0.15,0.04,0.29,0.1,0.42,0.19c0.16,0.11,0.21,0.24,0.32,0.39
		c0.04,0.06,0.09,0.1,0.12,0.16c0.11,0.21,0.16,0.57,0.15,0.81c0,0.24-0.06,0.49-0.16,0.71c-0.28,0.61-0.84,1.06-1.41,1.39
		c-0.2,0.11-0.41,0.21-0.62,0.31c-2.41,1.09-4.1,1.35-5.14,1.35c-0.91,0-1.34-0.19-1.34-0.19c5.6-1.95,5.73-4.66,5.73-4.66
		c0-0.04,0.26-0.15,0.3-0.16c0.23-0.11,0.48-0.21,0.73-0.27C134.39,94.96,134.57,94.93,134.75,94.93 M134.75,94.28
		c-0.21,0-0.44,0.03-0.68,0.09c-0.28,0.07-0.57,0.18-0.87,0.32c-0.27,0.12-0.64,0.28-0.66,0.72c0,0.01-0.27,2.33-5.29,4.08
		l-1.53,0.53l1.47,0.68c0.09,0.04,0.61,0.25,1.61,0.25c1.05,0,2.84-0.24,5.41-1.41c0.19-0.08,0.43-0.2,0.67-0.34
		c0.82-0.47,1.39-1.04,1.68-1.69c0.14-0.32,0.22-0.64,0.22-0.97c0-0.16-0.01-0.73-0.24-1.13c-0.04-0.08-0.09-0.14-0.15-0.21
		c-0.04-0.05-0.06-0.08-0.08-0.11c-0.08-0.12-0.19-0.3-0.41-0.45c-0.19-0.14-0.41-0.23-0.64-0.29
		C135.1,94.3,134.93,94.28,134.75,94.28L134.75,94.28z" />
  </g>
  <path d="M134.79,94.93c-0.59,0.01-1.18,0.18-1.68,0.5c0,0-0.13,2.67-5.59,4.61C133.2,99.46,134.58,95.71,134.79,94.93" />
  <path d="M82.78,96.66c0.36-4.65,2.62-4.4,4.79-6.73c2.56-2.74,4.76-6.67,4.81-15.25c-2.84,8.91-8.9,11.87-15.68,13.15
	c-2.63,0.47-5.4,1-7.9,1.64C72.86,92.89,77.64,95.35,82.78,96.66" />
  <path class="st4" d="M73.97,130.39c0,0,2.89-3.4,2.68-4.18l-3.99-0.97c0,0-5.12,4.44-11.3,4.25l-2.7-0.86c0,0,7.2-1.59,7.98-9.01
	c0,0-3.96,6.48-16.06,3.35l-0.77-0.98c0,0,7.46-0.63,8.55-5.55c0,0-7.01,4.06-12.84-1.15l-0.77-0.59c0,0,8.76-1.7,9.1-3.51
	c0,0-8.02-0.37-11.52-4.74l7.99-2.28c0,0-2.33-4.04-8.45-4.58c0,0,3.4-3.01,6.65-1.61c0,0-1.48-4.03-6.83-4.53
	c0,0,0.11-2.77,5.82-1.37c0,0-0.31-3.86-6.1-4.32c0,0-0.44-0.82,0.66-1.6c1.1-0.78,4.81,1.27,4.81,1.27s-1.81-5.37-6.27-4.46
	c0,0,0.12-2.72,5.25-1.1c0,0-1.23-3.96-6.32-3.04c0,0-0.9-2.05,1.37-2.12c2.26-0.06,4.3,1.04,4.3,1.04l-1.33-2.89
	c0,0-4.53-1.5-5.6,0.91l-1.07-1.75c0,0,0.68-2.1,6.54,0.14l-2.63-3.07c0,0-4.86-1.04-5.55,2.22l0,0c0,0,2.72,2.42,4.29,8.43
	c1.57,6.01,1.73,19.56,2.22,22.93c0.5,3.38,3.65,17.46,11.98,21.89s8.49,4.24,11.89,4.5C69.34,131.31,73.97,130.39,73.97,130.39z" />
  <g>
    <path class="st4" d="M115.36,85.03c-0.74,0-1.5-0.04-2.24-0.1l-0.51-0.05l8.82-23.4l2.72,0.02l-0.22,0.53
		c-1.84,4.56-3.46,9.2-4.79,13.81l-0.29,0.91c-0.83,2.63-1.68,5.35-2.58,8.01l-0.09,0.26C116.19,85.01,115.55,85.03,115.36,85.03z" />
    <path d="M121.71,61.87l1.87,0.01c-1.83,4.53-3.44,9.15-4.8,13.85c-0.92,2.92-1.86,5.95-2.86,8.9c-0.18,0-0.37,0.01-0.55,0.01
		c-0.73,0-1.47-0.03-2.2-0.1L121.71,61.87 M121.17,61.08l-0.19,0.51l-8.55,22.67l-0.36,0.96l1.02,0.1c0.75,0.07,1.52,0.11,2.27,0.11
		c0.19,0,0.38,0,0.57-0.01l0.55-0.01l0.18-0.52c0.91-2.69,1.77-5.44,2.61-8.1l0.26-0.82c1.34-4.61,2.94-9.25,4.78-13.79l0.43-1.07
		l-1.15-0.01l-1.87-0.01L121.17,61.08L121.17,61.08z" />
  </g>
  <path d="M99.63,87.79c0.49-1.56,1.42-2.96,2.7-4c-0.79-0.47-1.71-0.68-2.61-0.59c1.31-0.38,2.72-0.23,3.92,0.42
	c-1.65,0.95-4,4.13-4,4.13" />
  <path d="M80.06,106.27c1.5-1.69,3.46-2.9,5.64-3.48c-0.73-1.05-1.78-1.83-2.99-2.26c1.89,0.27,3.58,1.27,4.74,2.78
	C84.65,103.32,80.06,106.27,80.06,106.27" />
  <path d="M89.77,98.39c1.17-0.27,2.29-0.68,3.35-1.22c0,0,0.39,2.45-2.55,6.18c0,0,4.05-3.67,3.41-7.62
	C92.62,96.7,91.22,97.58,89.77,98.39" />
  <path d="M93.74,103.04c1.22,0.15,2.44,0.15,3.66,0c0,0-0.5,2.5-4.68,5.04c0,0,5.23-2.16,6.04-6.16c-1.83,0.55-5.02,1.08-5.02,1.08" />
  <path d="M85.95,106c0.93,0.79,1.96,1.46,3.07,1.99c0,0-1.72,1.85-6.55,1.78c0,0,5.5,0.97,8.28-2.02
	C88.91,107.24,85.95,106,85.95,106" />
  <path d="M109.2,76.49c0.05-1.68,0.6-3.31,1.58-4.68c-0.92-0.24-1.89-0.17-2.76,0.18c1.19-0.76,2.63-1.03,4.01-0.73
	C110.64,72.67,109.2,76.49,109.2,76.49" />
  <path d="M108.97,79.47c0.89-0.22,1.74-0.55,2.55-0.98c0,0,0.33,1.87-1.86,4.78c0,0,3.04-2.87,2.5-5.89
	c-1.04,0.76-2.12,1.46-3.24,2.09" />
  <path d="M101.29,79.91c1.42-0.96,2.62-2.21,3.51-3.68c0,0,0.55,0.17,0.44,2.16c0.6-1.26,0.5-2.76-0.28-3.93
	c-0.64,2.54-3.67,5.48-3.67,5.48" />
  <path d="M113.04,67.5c0.72-0.54,1.38-1.18,1.95-1.88c0,0,1,1.58,0.11,5.07c0,0,1.66-3.83,0-6.37c-0.68,1.24-2.08,3.17-2.08,3.17" />
  <path class="st4" d="M13.62,67.24c0.32,0,1.45,0,3.44-2.36c2.05-2.57,4.93-4.35,8.15-5.02h0.1h-0.12c-0.74,0.19-1.47,0.46-2.16,0.8
	c-1.82,0.85-3.41,2.14-4.62,3.75c-0.23,0.31-0.45,0.64-0.66,0.98c-0.41,0.68-0.76,1.4-1.01,2.16c-1.05,0.25-2.15,0.15-3.14-0.28l0,0
	h-0.09h0.1" />
  <g>
    <path class="st1" d="M10.2,91.28c-3.94-0.88-5.24-2.34-5.29-2.4l-0.48-0.55l0.72,0.12c0.33,0.06,0.67,0.08,1.01,0.08
		c1.35,0,2.74-0.44,3.94-1.23l0.45-0.3l-0.04,0.54c-0.03,0.39-0.28,0.78-0.75,1.17c0.08,0,0.16,0,0.25,0c4.6,0,6.88-5.55,8.55-9.6
		l0.35-0.84c0.39-0.93,0.89-1.79,1.48-2.58c0.47-0.69,0.98-1.35,1.52-1.97l0.22-0.25l0.19,0.27c0.19,0.27,0.47,0.66,0.79,1.08
		l0.14,0.19l-0.75,0.67c-0.4,0.42-0.77,0.84-1.11,1.28c-0.71,1.05-1.32,2.19-1.81,3.35c-0.39,1.09-0.87,2.15-1.4,3.14
		c-2.78,5.95-6.81,6.63-8.45,6.64c0.22,0.28,0.46,0.52,0.72,0.74l0.85,0.7L10.2,91.28z" />
    <path d="M22.09,73.89c0.19,0.27,0.47,0.66,0.79,1.08l-0.57,0.51c-0.41,0.42-0.79,0.85-1.14,1.32c-0.72,1.08-1.34,2.21-1.85,3.41
		c-0.39,1.07-0.85,2.12-1.39,3.12c-2.78,5.96-6.86,6.5-8.26,6.5c-0.31,0-0.49-0.03-0.49-0.03c0.29,0.46,0.66,0.89,1.08,1.23
		c-3.9-0.87-5.15-2.32-5.15-2.32c0.35,0.06,0.7,0.09,1.05,0.09c1.44,0,2.88-0.48,4.08-1.27C10.2,88,9.75,88.46,9.03,88.9
		c0.33,0.05,0.66,0.07,0.97,0.07c5.11,0,7.39-6.41,9.14-10.61c0.38-0.9,0.86-1.75,1.45-2.53C21.04,75.16,21.55,74.51,22.09,73.89
		 M22.13,73.05l-0.43,0.49c-0.54,0.62-1.07,1.3-1.55,2c-0.59,0.79-1.1,1.67-1.5,2.62l-0.35,0.85c-1.59,3.86-3.74,9.11-7.91,9.43
		c0.22-0.28,0.35-0.57,0.37-0.88l0.09-1.07l-0.9,0.6c-1.15,0.77-2.49,1.19-3.79,1.19c-0.33,0-0.65-0.03-0.96-0.08l-1.44-0.25
		l0.95,1.1c0.06,0.06,1.41,1.59,5.43,2.49l2.14,0.48l-1.7-1.39c-0.12-0.09-0.23-0.2-0.33-0.3c1.93-0.17,5.57-1.27,8.14-6.78
		c0.53-0.98,1.01-2.05,1.41-3.16c0.48-1.13,1.08-2.25,1.79-3.3c0.31-0.41,0.68-0.82,1.08-1.24l0.54-0.48l0.36-0.32l-0.29-0.38
		c-0.31-0.42-0.59-0.8-0.78-1.07L22.13,73.05L22.13,73.05z" />
  </g>
  <path class="st0" d="M22.96,80.97c-0.32,0.84-0.64,1.72-1.24,3c-0.18-0.1-0.4-0.24-0.63-0.38l-0.21-0.14
	c-0.74-0.51-1.51-1.08-1.52-1.14c2.63,0.1,2.96-1.08,3.66-1.51L22.96,80.97" />
  <path class="st0" d="M23.91,77.17c-0.11,0.98-0.33,1.94-0.65,2.87l-0.23-0.21c-0.06-0.08-0.15-0.16-0.23-0.23l0,0l-0.16-0.14
	l-0.1-0.13c-0.23-0.23-0.45-0.47-0.66-0.71l-0.12-0.14l-0.71-0.78c0.98,0.16,1.99-0.02,2.84-0.54" />
  <path class="st2" d="M27.44,68.26c0.32,0,0.67,0.06,1,0.08h0.96h0.41h0.12l-0.64,0.64l-0.22,0.24l-0.24,0.25l-0.13,0.14l-0.52,0.58
	c-0.14-0.3-0.3-0.7-0.44-1.08v-0.08c-0.16-0.42-0.28-0.77-0.28-0.77" />
  <path class="st1" d="M26.2,70.84c0.59-0.21,1.2-0.37,1.81-0.49c-0.09,0.08-0.5,0.6-0.86,1.08c-0.69,0.03-1.38,0.01-2.06-0.06
	c0.35-0.21,0.7-0.39,1.08-0.54" />
  <path class="st1" d="M22.22,73.74c0.15-0.16,0.3-0.33,0.46-0.5c0.58-0.58,1.22-1.11,1.9-1.56c0.35,0.69,0.95,1.9,1.01,1.94
	l0.24-0.35l-0.63,0.97l0,0c-1.03,0.06-2.05-0.11-3-0.5" />
  <path class="st5" d="M25.55,73.71c-0.05,0-0.11,0-1.08-1.98l-0.33-0.69l0.24,0.08c0.24,0.06,0.47,0.12,0.71,0.15
	c0.46,0.05,0.94,0.09,1.41,0.09c0.36,0,0.59,0,0.63,0h0.24c0,0-0.31,0.41-0.4,0.54c-0.09,0.13-0.38,0.51-0.56,0.77l-0.78,1.08
	L25.55,73.71z" />
  <path class="st5" d="M24.05,76.48c-0.35-0.33-0.65-0.69-0.93-1.08c-0.11-0.14-0.23-0.28-0.33-0.43c-0.31-0.4-0.59-0.79-0.79-1.08
	l-0.59-0.83l0.47,0.31c0.12,0.08,0.25,0.14,0.38,0.21c0.81,0.35,1.68,0.52,2.57,0.5h0.39h0.18l-1.25,2.46L24.05,76.48z" />
  <path class="st4" d="M39.76,67.43c1.24-0.22,2.53-0.1,3.71,0.35c-1.66-0.86-3.39-1.62-5.15-2.26c1.22-0.4,2.51-0.49,3.77-0.24
	c-1.71-0.85-3.52-1.47-5.4-1.85c0.39-0.33,0.82-0.63,1.28-0.85l0,0c0.19-0.1,0.4-0.18,0.62-0.25c-0.24-0.08-0.5-0.12-0.74-0.13
	c-1.67-0.18-5.47-0.05-7.61-0.02c0.45-0.11,1.18-0.32,1.62-0.4c6.48-1.34,10.46-0.38,11.74,0c-0.49,0.14-0.96,0.31-1.41,0.52
	c-0.92,0.4-1.08,0.44-1.08,0.53l0.27,0.11c4.09,1.69,7.62,4.53,10.16,8.16c-1.27-0.53-2.58-0.98-3.92-1.34l-0.44-0.13l0.31,0.35
	c3.57,2.82,5.4,7.56,6.09,9.82C53.57,79.79,48.35,70.25,39.76,67.43" />
  <path d="M44.51,62.26c-4.74-2.44-10.35-2.47-15.11-0.08l0,0C30.12,61.97,35.82,60.25,44.51,62.26L44.51,62.26" />
  <path d="M40.27,62.61c0,0,8.76,0.7,11.68,9.44C49.29,67.64,45.15,64.3,40.27,62.61" />
  <path d="M45.89,69c3.9,3.08,6.72,7.31,8.07,12.09C53.96,81.09,53.25,71.5,45.89,69" />
  <path d="M131.1,21.41c0.82-0.41,1.58-0.93,2.27-1.53c0,0,0.74,1.74-0.74,5.08c0,0,2.32-3.5,1.08-6.31
	c-0.83,0.97-1.72,1.89-2.64,2.76" />
  <path d="M130.31,18.48c0.72-1.58,1.09-3.29,1.08-5.03c0,0,0.57-0.15,1.5,1.62c-0.12-1.4-0.98-2.64-2.27-3.24
	c0.77,2.5-0.29,6.63-0.29,6.63" />
  <path d="M134.27,6.01c-2.57-3.93-6.91-6.32-11.6-6.41c-5.85,0-11.42,3.71-15.69,10.46c-3.43,5.4-7.7,12.17-16.25,13.65
	c-1.35,0.24-2.71,0.37-4.08,0.37H86.5c-5.63-0.02-11.08-1.96-15.47-5.49c0.64-0.05,1.26-0.19,1.86-0.42l3.41-1.3l-3.54-0.91
	c-4.26-1.19-8.08-3.6-10.97-6.97l-2.16-2.55l0.24,3.38c0.42,5.18,2.72,10.04,6.48,13.63l2.22,2.26l-0.43-3.24
	c-0.08-0.56-0.13-1.15-0.17-1.67c5.5,4.68,12.49,7.26,19.72,7.26h0.19c0.91,0,1.82-0.05,2.74-0.14c10.58-0.99,15.44-7.3,20.59-13.96
	c0.25-0.32,0.5-0.64,0.73-0.96c0.87-1.14,1.77-2.32,2.74-3.4c1.56-1.92,3.89-3.08,6.37-3.16c2.12,0,4.09,1.04,5.28,2.78
	c2,2.86,2.16,7.25,0.31,12.37l-0.24,0.67l0.5,0.51c0.05,0.05,6.94,7.04,7.08,7.16l1.72,1.45l0.57-1.59
	c3.18-8.93,2.16-17.79-2.03-23.74 M121.08,5.32c-2.78,0.09-5.41,1.38-7.18,3.53c-1.27,1.42-2.41,2.97-3.53,4.43
	c-5,6.48-9.71,12.57-19.82,13.52c-0.87,0.09-1.77,0.13-2.64,0.13h-0.18c-7.44,0.02-14.6-2.81-20.03-7.9l-0.96-0.94v1.35
	c0,0.11,0.06,1.76,0.27,3.24c-3.53-3.43-5.69-8.03-6.07-12.94c3.03,3.54,7.05,6.11,11.54,7.36c-0.72,0.26-1.49,0.4-2.27,0.39l0,0
	h-0.63l-1.44-0.11l1,1.08c4.74,4.37,10.94,6.81,17.39,6.83h0.15c1.45-0.01,2.89-0.14,4.32-0.39c8.73-1.55,13.18-8.26,16.91-14.23
	c4.39-6.94,9.8-9.94,14.74-9.94c9.9,0,17.92,12.04,12.1,28.36c0,0-6.66-6.72-7.03-7.11C131.47,11.35,126.66,5.32,121.08,5.32" />
  <path d="M109.11,84.92c0.31-0.01,0.62-0.03,0.93-0.04c-0.9-0.76-1.95-1.32-3.1-1.55c0.16,0.22,0.75,0.41,1,0.58
	c0.33,0.23,0.64,0.48,0.93,0.76C108.95,84.76,109.03,84.84,109.11,84.92z" />
  <path d="M99.82,97.05c-0.1-0.19-0.54-0.26-0.72-0.38c-1.8-1.2-2.82-3.25-3.04-5.37c-0.09,2.95,2.25,6.34,4.48,7.95
	c-0.02-0.29,0.55-0.79,0.53-1.08c-0.01-0.18,0.03-0.58,0-0.75C101.04,97.37,99.83,97.08,99.82,97.05z" />
  <path d="M123.88,84.68c0,0,0.91,1.32,0.91,1.32c0.53,0.77,0.09,1.62-0.34,2.3c-0.51,0.8-0.94,1.67-1.32,2.53
	c-0.24,0.53-0.46,1.08-0.66,1.62c-0.1,0.28-0.24,0.58-0.3,0.87c-0.03,0.16-0.01,0.43-0.11,0.56c-0.06,0.08-0.14,0.16-0.17,0.26
	c-0.04,0.18,0.14,0.33,0.29,0.44c0.06,0.04,0.12,0.08,0.17,0.13c0.42-0.01,0.82,0.08,1.27,0.13c0.36,0.04,0.71,0.01,1.05-0.06
	c0.12-0.32,0.34-0.6,0.6-0.84c0.07-0.2,0.14-0.4,0.2-0.6c-0.08-0.27-0.06-0.5,0.02-0.68c0-0.01,0-0.02,0-0.03
	c-0.05,0.04-0.1,0.07-0.15,0.11c0.05-1.3,0.01-2.59-0.13-3.89v-0.08c0.11-0.18,0.22-0.35,0.3-0.51V88.2
	c0.49-0.82,0.45-1.85-0.09-2.62l-0.9-1.32c-0.52-0.77-1.44-1.15-2.35-1c-2.26,0.36-4.45,1.23-6.72,1.28
	c-0.01,0.03-2.73-0.14-2.73-0.14c-4.11-0.33-9.33-0.75-10.69,3.69c-0.13,0.3-0.27,0.67-0.43,1.08c-0.16,0.41,0.13,0.73,0.5,1.08
	c0.46,0.45,0.98,0.85,1.53,1.2c-1.66-1.52-0.45-3.79-0.11-4.49c1.58-2.16,4.82-1.94,8.21-1.66c1.91,0.3,3.69,0.56,5.58,0.15
	c1.61-0.45,3.42-1.12,5.06-1.39C122.97,83.94,123.55,84.19,123.88,84.68z M124.36,94.07h-0.05v0.15h-1.5
	c0.39-1.45,0.95-2.84,1.67-4.14C124.54,91.41,124.5,92.75,124.36,94.07z" />
  <path d="M35.77,72.41c0,0,1.03-3.08,5.01-1.71l-2.24-2.54c0,0,2.52-1.36,5.1-0.33c-1.7-0.91-3.38-1.69-5.02-2.28
	c0,0,2.22-0.69,3.59-0.23c0,0-4.11-1.91-5.17-1.87c0,0,0.87-0.91,1.81-1.11c-0.15-0.18-4.97-0.58-7.7-0.25l-0.99,0.11
	c0,0,5.66,1.39,5.63,4.76c-0.03,3.37-2.04,4.97-2.39,5.31l2.39,0.95C35.78,73.21,35.47,73.31,35.77,72.41z" />
  <path class="st6" d="M37.64,68.82c0,0,3.85,0.85,6.68,5.97s3.08,16.25,5.35,24.92c1.09,4.15,4.96,13.98,9.64,16.91
	c4.68,2.93,6.43,3.45,10.84,3.64" />
  <path d="M76.61,129.25c1.25-1.18,2.49-5.46-1.66-11.17c3.81,7.63-1.93,12.64-3.63,12.56C71.32,130.64,75.35,130.43,76.61,129.25" />
  <path d="M42.07,97.53c0.85-0.86,6.03-1.89,7.31,1.38c-3.07-1.08-6.63,0.27-7.38,0.55C41.56,98.88,41.59,98.07,42.07,97.53" />
  <path d="M51.09,104.29c-2.33,2.13-5.6,2.89-8.63,2.03C39.55,105.5,49.19,102.73,51.09,104.29" />
  <path d="M56.72,128.41c1.25,0.72,2.62,1.23,4.05,1.5c2.16,0.32,6.75-2.85,6.3-10.31l0,0c-0.12,0-0.22,0.07-0.27,0.18
	c-3.66,8.7-9.47,9.04-10.08,8.65" />
  <path d="M39.35,76.68c-0.19,0.21-0.29,0.49-0.28,0.77c0.02,0.45,0.16,0.89,0.4,1.27c0-1.08,1.83-2.56,5.75-0.9
	c0-0.11-0.06-0.21-0.09-0.3c-2.9-2.05-5.17-1.56-5.81-0.84" />
  <path d="M40.55,80.98c-0.73,0.77,0.14,2.33,0.14,2.33c0.08-1.08,2.05-2.51,5.84-0.77c0-0.11-0.17-0.56-0.19-0.67
	C43.54,79.79,41.21,80.29,40.55,80.98" />
  <path d="M41.29,85.88c-0.79,0.79,0.09,2.35,0.09,2.35c0.16-1.15,2.34-2.63,6.02-0.49c0-0.11-0.17-0.63-0.19-0.74
	c-2.62-2.45-5.19-1.85-5.91-1.08" />
  <path d="M41.89,91.45c-0.47,0.52-0.51,1.31-0.08,1.87c0.49-1,3.43-2.09,6.36-0.49c0-0.12-0.05-0.55-0.06-0.66
	C45.24,89.6,42.71,90.66,41.89,91.45" />
  <path d="M45.7,115.27c2.32,1.48,5.32,1.21,8.8-3.9c-0.05-0.1-0.12-0.18-0.18-0.27c-5.77,3.13-9.28,2.16-9.8,1.47
	c-0.05,0.36-0.05,0.72,0,1.08c0.12,0.3,0.25,0.6,0.37,0.92c0.21,0.29,0.47,0.53,0.78,0.7" />
  <path d="M48.29,119.91c0,0,0.81,2.47,2.55,2.96s6.03-0.22,8.24-6.81l-0.18-0.13C54.57,121.25,49.31,120.76,48.29,119.91" />
  <path d="M5.41,58.41c2.53,3.25,1.23,5.88,0.43,8.1c-0.66,1.83-1.38,3.8-1.15,5.67c0.16,1.28,1.48,4.11,4.41,4.4
	C7.96,75.65,6.98,74,6.88,72.62c-0.1-1.36,0.48-2.78,1.13-4.33c0.67-1.6,1.39-3.32,1.23-5.06C9.14,61.89,8.21,59.78,5.41,58.41" />
  <path class="st0" d="M7.02,60.25c2.62,4.26-5.07,10.72,0.24,15C3.29,70.36,11.93,65.14,7.02,60.25" />
  <path d="M2.8,73.31c-0.07-0.93,0.34-1.91,0.78-2.96c0.46-1.1,0.98-2.35,0.87-3.6c-0.08-1.07-0.85-2.55-2.76-3.49L1.14,63l0.38,0.48
	c1.58,2.03,0.96,3.69,0.41,5.15C1.89,68.76,1.84,68.88,1.8,69c-0.46,1.26-0.98,2.69-0.81,4.03c0.11,0.91,1.08,2.99,3.21,3.19
	l0.47,0.05l-0.37-0.3C3.51,75.33,2.86,74.19,2.8,73.31" />
  <path class="st0" d="M2.76,64.68c1.83,2.97-3.54,7.49,0.17,10.48C0.15,71.74,6.19,68.1,2.76,64.68" />
  <path class="st4" d="M96.21,92.5c0,0,0,0.01,0,0.01c0.05,0.15,0.1,0.31,0.16,0.46c0.01,0.04,0.03,0.07,0.04,0.11
	c2.63,7.78,12.06,2.99,12.06,2.99l-1.99-0.47C106.48,95.61,100.53,99.24,96.21,92.5" />
  <g>
    <path class="st4" d="M89.97,113.51l0.28-0.25c0.07-0.06,7.36-6.42,10-10.04l1.47-2.03l-0.91,2.34c-0.03,0.08-3.32,8.49-6.99,12.89
		l-0.21,0.25L89.97,113.51z" />
    <path d="M100.52,103.42c0,0-3.25,8.39-6.93,12.79l-3.11-2.7C90.47,113.51,97.83,107.12,100.52,103.42 M102.94,98.98l-2.95,4.06
		c-2.61,3.59-9.87,9.92-9.95,9.99l-0.57,0.49l0.57,0.49l3.11,2.7l0.5,0.44l0.43-0.51c3.7-4.44,6.91-12.63,7.04-12.98L102.94,98.98
		L102.94,98.98z" />
  </g>
  <path d="M88.82,93.83c0,0,1.9-0.46,3.9-2.83c0,0,0.78,1.12,0.65,2.64c0,0,0.63-1.83-0.52-3.97C92.09,91.56,88.82,93.83,88.82,93.83" />
  <path d="M111.46,95.02c0.3,0,0.6,0,0.9,0c1.27-2.02,2.95-3.91,2.95-3.91s-2,1.66-3.69,3.6" />
  <g>
    <path class="st0" d="M122.97,99.34c-0.17-0.53-0.31-1.06-0.4-1.58h-0.01l-0.05-0.33c-0.33-2.32,0.37-3.53,0.82-4.05
		c0.45-0.51,1.02-0.8,1.61-0.8c0.19,0,0.38,0.03,0.56,0.09c0.66,0.15,1.19,0.73,1.3,1.44c0.11,0.48-0.03,0.99-0.36,1.35
		c-0.59,0.38-1.05,0.78-1.42,1.26c-0.5,0.8-0.98,1.68-1.44,2.66l-0.35,0.74L122.97,99.34z" />
    <path d="M124.94,92.91c0.16,0,0.31,0.02,0.45,0.07c0.56,0.13,0.99,0.6,1.08,1.18c0.09,0.39-0.01,0.79-0.28,1.08
		c-0.55,0.33-1.04,0.77-1.44,1.28c-0.55,0.87-1.04,1.78-1.48,2.72c-0.19-0.59-0.35-1.21-0.43-1.83c-0.01-0.04-0.01-0.05-0.01-0.05
		c0,0,0.01,0.09,0.01,0.09c0,0,0-0.01-0.01-0.05C122.41,94.39,123.74,92.91,124.94,92.91 M124.94,92.26c-0.68,0-1.34,0.32-1.85,0.91
		c-0.84,0.97-1.16,2.5-0.9,4.31c0.01,0.04,0.01,0.08,0.03,0.12c0.09,0.61,0.24,1.23,0.44,1.84l0.51,1.56l0.7-1.48
		c0.45-0.96,0.92-1.82,1.42-2.62c0.34-0.44,0.76-0.81,1.24-1.1l0.08-0.05l0.06-0.07c0.41-0.44,0.57-1.06,0.44-1.66
		c-0.12-0.78-0.74-1.46-1.54-1.66C125.37,92.29,125.16,92.26,124.94,92.26L124.94,92.26z" />
  </g>
  <path d="M125.67,95.11c-0.25,0.01-0.5,0.09-0.72,0.21c-0.33,0.18-0.6,0.46-0.81,0.76c-0.33,0.48-0.55,1.04-0.7,1.6
	c-0.07,0.27-0.13,0.55-0.18,0.82c-0.05,0.3-0.06,0.58,0.12,0.85c0.27-0.58,0.61-1.12,1-1.62c0.05-0.06,0.09-0.12,0.13-0.18
	c0.03-0.05,0.04-0.1,0.06-0.16c0.19-0.52,0.5-0.99,0.9-1.37c0.12-0.11,0.24-0.21,0.34-0.33c0.13-0.15,0.24-0.33,0.43-0.37
	c0.01,0-0.07-0.1-0.08-0.11c-0.04-0.03-0.09-0.06-0.14-0.08C125.92,95.11,125.79,95.11,125.67,95.11z" />
  <path class="st4" d="M84.87,122.24l-6.75,6.63c0,0,6.85-1.89,8.34-4.16l-0.25-3.11L84.87,122.24" />
  <path d="M36.96,75.04c1.85,3.17,2.58,6.7,3.09,10.34c0.42,2.91,0.66,5.85,0.73,8.79c0.31,7.06,0.68,15.11,4.23,22.67
	c3.42,7.05,9.77,12.25,17.36,14.23c1.93,0.47,3.92,0.72,5.9,0.72c5.13,0,11.52-1.59,18.53-6.92c0.51-0.47,12.96-11.64,15.06-24.01
	l-1.6-0.17c-1.99,11.76-13.61,22.75-14.15,23.26c-9.71,7.36-18.12,7.32-23.47,5.99c-7.27-1.88-13.36-6.85-16.64-13.61
	c-3.42-7.38-3.78-15.26-4.09-22.21c-0.08-2.99-0.32-5.97-0.74-8.93c-0.37-2.14-0.92-4.24-1.64-6.29c0-0.16-0.04-0.33-0.13-0.52
	c-0.4-1.22-0.91-2.4-1.51-3.52c0.46-1.08,2.16-1.73,6.27-0.22c-3-2.7-6.23-2.62-7.38-1.18c-0.5-0.46-1.07-0.83-1.71-1.08
	c0.08-0.45,0.26-0.89,0.55-1.25c0.68-0.84,2.16-1.52,5.53-0.21c0,0-3.66-3.92-5.4-2.16c-0.91,1-1.76,2.06-2.55,3.15
	C34.47,72.68,36.15,73.54,36.96,75.04z" />
  <path class="st1" d="M88.81,118.19c-0.07,0.8-0.67,1.66-1.08,2.34c-0.27,0.44-0.6,0.9-1.1,1.04c-0.13,2.12-0.24,4.34,0.65,6.26
	c0.23,0.49,0.52,0.95,0.71,1.45c0.47,1.23,0.32,2.59,0.16,3.9c-0.03,0.26,0,0.58-0.2,0.75c-0.77,0.68-1.59-0.43-2.3-0.16
	c-0.62,0.25-2.42,1.72-3.83,2.63c-0.56,0.63-0.93,1.67-0.52,2.7l0.19,0.06c0.08-0.3,0.21-0.59,0.4-0.84c0.3-0.38,0.76-0.6,1.24-0.63
	c1.53-0.07,1.87,2.12,1.66,3.28c1.71-1.06,3.07-2.89,5.06-3.17c0.23-0.03,0.47-0.04,0.68,0.05c0.15,0.07,0.27,0.18,0.39,0.28
	c0.52,0.47,1.04,0.94,1.55,1.4c-0.65,1.61-1.11,4.41-1.36,6.13c-1.31-0.02-3.17,0-3.17,0s0.43,1.44,1.53,2.06s2.14,1.2,3.35,0.85
	c1.07-0.31,1.7-1.82,1.89-2.84c0.41-1.45,1.01-2.83,1.81-4.1c1.07-0.42,1.6-1.63,1.18-2.7c-0.1-0.24-0.23-0.45-0.4-0.65
	c0.22,0.14,0.4,0.32,0.55,0.53c0.38,0.52,0.54,1.09,0.46,1.73c-0.15,1.21-2.27,1.91-2.5,4.53c-0.01,0.1-0.26,1.68-0.24,1.78
	c0.02,0.07,0.06,0.13,0.11,0.19c0.81,0.95,2.36,1.15,3.39,0.44c0.21-0.14,0.4-0.32,0.53-0.54c0.57-0.94,0.14-2.46,0.36-3.54
	c0.28-1.36,0.62-2.72,0.94-4.07c0.4-1.28-0.31-2.64-1.59-3.04c-0.05-0.01-0.1-0.03-0.15-0.04c-2.47-1-4.68-2.56-6.48-4.54
	c-1.38-7.17,1.5-8.35-0.3-15.54c-0.76-2.96-2.63-1.9-2.63-1.9c-4.5-3.69-9.28-0.47-10.79,0.47c0.62-0.83,1.35-1.59,2.16-2.23
	c-2.22-1.68-5.17-2.06-7.74-0.99c-1.48,0.53-2.74,1.51-3.62,2.81c-0.78,1.29-0.9,2.95-0.78,4.41c0.04,0.5,0.12,0.99,0.3,1.46
	c0.3,0.79,0.88,1.43,1.37,2.11c0.31,0.43,0.59,0.88,0.97,1.24c0.55,0.51,1.28,0.77,1.99,1.02c1.02,0.35,2.07,0.7,3.14,0.66
	c0.75-0.03,1.48-0.26,2.18-0.55c0.68-0.28,1.34-0.62,1.96-1.02c0.48-0.31,1.21-0.59,1.48-1.12c-0.2-0.13-0.45-0.22-0.56-0.48
	c-0.11-0.28-0.06-0.59,0-0.88c0.26,0.28,0.67,0.37,1.05,0.33c0.55-0.05,1.13-0.29,1.67-0.42c0.57-0.15,1.12-0.36,1.64-0.63
	c0.52-0.27,1.01-0.61,1.45-1C87.93,119.22,88.78,118.57,88.81,118.19z" />
  <path class="st4" d="M67.23,104.78c0.94,0.38,2.07-0.33,2.4-1.87c0,0,2.56-2.07,6.2,3c0,0,3.48-10.04,11.05-6.57
	c0,0,0.63-4.32,1.32-6.56c0.69-2.24,2.3-3.76,2.3-3.76s-8.55,5.85-11.6,2.32c-7.11,2.28-10.54,3.52-12.23,5.48
	c-1.68,1.96-0.79,6.48,0.57,7.92" />
  <path d="M46.41,76.23c1.52,0.99,2.73,2.42,3.45,4.09c0.73-0.72,1.22-1.67,1.39-2.69c0.03,1.54-0.54,3.04-1.6,4.17
	c-0.53-2.08-3.24-5.57-3.24-5.57" />
  <path d="M51.39,82.38c1.62,1.05,2.88,2.55,3.66,4.32c0.78-0.78,1.3-1.77,1.48-2.85c0.02,1.63-0.58,3.22-1.69,4.41
	c-0.56-2.16-3.44-5.9-3.44-5.9" />
  <path d="M56.61,101.95c0,0,2.82,1.32,5.2,5.63c1-1.08,1.65-2.46,1.82-3.93c0.13,2.19-0.59,4.36-2.02,6.03
	c-0.89-2.95-5.01-7.76-5.01-7.76" />
  <path d="M66.13,109.56c0,0,2.69-2.03,7.92-2.03c-0.5-1.51-1.45-2.83-2.73-3.77c2.15,1.01,3.81,2.83,4.63,5.05
	c-3.31-1.08-9.85,0.79-9.85,0.79" />
  <path d="M58,89.74c0.08,0.97,0.01,1.94-0.19,2.89c-1.63-0.79-3.09-1.92-4.25-3.3c0,0,2.16,3.7,4.92,4.32
	c0.27-1.34,0.11-2.72-0.46-3.96" />
  <path d="M57.63,104.93c-0.32,1.37-0.47,2.77-0.45,4.19c0,0-2.74-0.84-5.14-5.88c0,0,1.81,6.2,6.26,7.56
	c-0.42-2.16-0.67-5.85-0.67-5.85" />
  <path d="M54.22,95.66c-0.45,0.93-0.79,1.92-0.99,2.94c0,0-1.83-1.07-2.76-5.09c0,0,0.3,4.89,3.24,6.59c0-1.63,0.47-4.45,0.47-4.45" />
  <path d="M52.62,87.46c-0.45,0.94-0.79,1.92-1,2.94c0,0-1.83-1.08-2.74-5.06c0,0,0.29,4.87,3.24,6.56c0-1.62,0.47-4.44,0.47-4.44" />
  <path d="M95.76,78.1c-4.89,6.48-8.9,8.07-16.56,9.26c-13.55,2.16-29.32,5.25-14.51,16.28c0.15,1.95,4.69,2.71,3.93-1.27
	c3.72-3.12,7.06,1.86,7.06,1.86s2.57-8.82,10.09-6.65c0.51-5.32,2.33-6.73,4.86-9.33C93.58,85.23,96.88,81.3,95.76,78.1" />
  <path class="st1" d="M75.33,102.36c1.21-4.12,5.27-6.72,9.52-6.11c0.85-4.72,2.55-6.28,5-8.77c2.29-2.06,4.09-4.61,5.28-7.45
	c-3.59,5.56-9.25,7.3-14.83,8.2c-15.55,2.53-28.06,5.4-14.53,14.78c0.52,0.71,1.19,0.64,1.21-0.31c1.49-2.36,4.61-3.08,6.98-1.6
	c0.53,0.33,0.99,0.76,1.36,1.26" />
  <path d="M66.3,101.06c-0.99-0.27-5.46-3.05-4.32-5.4c1.14-2.34,6.31-3.83,15.88-5.57c9.56-1.74,9.78-2.54,11.49-3.42
	C85.39,91.9,51.26,91.14,66.3,101.06" />
  <path d="M63.1,95.08c0,0,7.74-0.62,11.66,4.68c-3.25-3.14-7.74-4.65-12.23-4.1L63.1,95.08z" />
  <path d="M68.54,92.51c0,0,8.33-0.58,15.11,2.36c0,0-4.32-2.85-13.65-2.87L68.54,92.51z" />
  <path d="M99.96,135.46l-0.78-0.33c-2.06-0.92-3.92-2.22-5.47-3.85c-0.4-2.27-0.38-4.59,0.06-6.84c0.57-2.84,0.46-5.77-0.3-8.56
	c-0.65-2.56-2.16-2.94-2.96-2.94c-0.18-0.02-0.37-0.02-0.55,0c-1.4-1.05-3.11-1.61-4.86-1.61c-1.01,0.01-2.01,0.17-2.97,0.5
	l-0.28-0.24c-1.21-1.01-2.74-1.56-4.32-1.53c-1.49,0.08-2.92,0.56-4.17,1.39c2.57-1.07,5.52-0.69,7.74,0.99
	c-0.81,0.65-1.54,1.4-2.16,2.23c1.5-0.95,6.28-4.17,10.79-0.47c0,0,1.88-1.08,2.63,1.9c1.82,7.2-1.08,8.39,0.28,15.64
	c1.79,1.99,4,3.54,6.48,4.54c1.31,0.32,2.09,1.63,1.78,2.94c-0.01,0.05-0.02,0.1-0.04,0.15c-0.71,2.99-1.27,5.4-1.41,6.68
	c-0.03,0.47-0.27,0.92-0.66,1.2c-0.73,0.43-1.66,0.38-2.35-0.12l-0.28-0.19c-0.19-0.16-0.38-0.35-0.53-0.55c0,0,0-0.05,0-0.18
	c0-0.13,0-0.15,0-0.25c0-0.1,0.1-0.5,0.18-0.87c0-0.1,0-0.19,0.09-0.3c0.09-0.11,0.12-0.46,0.19-0.72c0,0,0.13-0.42,0.13-0.42
	c0.17-0.56,0.24-0.93,0.72-1.28c0.93-0.69,2.53-2.99,0.36-4.06c-0.23-0.11,0.22,0.14,0,0c0.78,0.85,0.66,2.18-0.2,2.95
	c-0.19,0.17-0.41,0.31-0.65,0.4c-0.8,1.27-1.52,2.94-1.93,4.39c-0.15,0.81-0.53,1.55-1.08,2.16l-0.09,0.06
	c-0.03,0.03-0.06,0.06-0.11,0.09c-1.68,1.23-4-0.91-5.32-2.67h3.17c0.27-1.61,0.78-3.16,1.52-4.61c0-0.1,0.11-0.21,0.17-0.3
	l1.26,0.47c-0.81-2.33-2.61-4.19-4.91-5.08c0,0,0.25,0.19,0.55,0.47c0.28,0.21,0.53,0.46,0.72,0.74c-2.03,0.1-3.89,1.14-5.03,2.82
	c-0.31,0.52-0.69,0.4-0.69,0.4v-0.96c-0.01-0.56-0.23-1.11-0.6-1.53c-0.28-0.28-0.68-0.42-1.08-0.39c-0.49,0.02-0.94,0.25-1.24,0.63
	c-0.19,0.25-0.32,0.54-0.4,0.84l-0.19-0.06c-0.16-0.83,0.08-1.68,0.64-2.31c0.31-0.37,0.71-0.65,1.17-0.82
	c0.22-0.09,0.44-0.16,0.67-0.21c0.92,0.08,1.75,0.54,2.29,1.28c-0.28-0.82-0.94-1.47-1.77-1.73c0.31-0.58,0.83-1.04,1.45-1.28
	c0.49-0.18,1.17,0.13,1.73,0.24c0.28-0.13,0.55-0.29,0.79-0.5c0.01-0.04,0.03-0.09,0.05-0.12c0.14-0.97,0.17-1.96,0.11-2.95
	c-0.07-0.98-0.35-1.69-0.7-2.6c-0.82-2.12-1.53-4.54-0.86-6.8c0.68-0.53,1.24-1.19,1.63-1.95c0.17-0.33,0.28-0.7,0.31-1.08
	c-1.6,2.21-4.27,3.39-6.98,3.08c0.1,0.21,0.22,0.4,0.35,0.58c0.17,0.22,0.37,0.4,0.59,0.55c0,0-0.31,0.26-0.85,0.62
	c-0.39,0.26-0.79,0.5-1.2,0.71c-0.16,0.09-0.32,0.17-0.5,0.25c-0.17,0.08-0.35,0.16-0.53,0.24c0,0-0.28,0.12-0.28,0.12
	c-2.47,1.04-5.45,1.13-7.5-0.8c-1.43-1.34-2.02-3.09-2.52-4.92l-0.06-0.3v-0.21v-0.18c0-0.08,0-0.14,0-0.22c0,0,0-0.12,0-0.18
	c0-0.06,0-0.13,0-0.21c0-0.08,0-0.44,0-0.67c-0.36,1.07-0.44,2.22-0.24,3.34c1,5.31,7.41,9.1,14.65,3.24l1.25-1.08l0.71-0.21
	c-0.17,2.39,0.28,4.77,1.32,6.92c0.06,0.17,0.14,0.33,0.19,0.49c0.05,0.15,0.1,0.27,0.13,0.37c0.03,0.1,0.05,0.21,0.08,0.3
	c0.06,0.45,0.1,0.92,0.09,1.37c0,0.3,0,0.6,0,0.91v0.6l-0.45,0.27h-0.57c-0.32,0-0.65,0.04-0.95,0.15
	c-0.81,0.23-1.51,0.72-1.99,1.42c-0.36,0.14-0.67,0.36-0.93,0.64c-0.65,0.18-1.2,0.62-1.52,1.2c-0.42,0.86-0.42,1.86,0,2.72
	l0.41,0.95c0,0.1,0,0.18,0,0.29c0.47,3.58,1.58,4.26,2.75,4.67c-0.47-2.45-0.21-3.64,0.12-4.23h0.69c0.73-0.15,1.41-0.53,1.93-1.08
	c0.27-0.26,0.56-0.5,0.86-0.72c0.33-0.22,0.7-0.4,1.08-0.53c0.32-0.14,0.67-0.21,1.03-0.18c0.19,0,0.46,0,0.7,0
	c0.43,0.42,0.83,0.87,1.21,1.35c-0.03,0.29-0.1,0.58-0.19,0.85c-0.19,0.43-0.38,0.87-0.53,1.31v0.05c-0.09,0.24-0.16,0.46-0.23,0.68
	c0.01,0.02,0.01,0.05,0,0.08c-0.08,0.25-0.14,0.49-0.19,0.72c-0.12,0.47-0.21,0.9-0.27,1.25h-4.32l1.65,1.89
	c1.66,1.9,3.24,2.86,4.63,2.86c1.3-0.02,2.45-0.81,2.94-2.01c0.7,0.68,1.64,1.07,2.61,1.08c1.44,0.02,2.64-1.08,2.76-2.51
	c0.13-1.23,0.67-3.53,1.36-6.48v-0.11C102.45,137.89,101.58,136.12,99.96,135.46" />
  <path d="M65.52,110.62c0.87,1.47,1.93,2.83,3.14,4.04c0,0-3.1,1.62-9.42-0.72c0,0,6.79,3.85,11.8,1.22
	c-2.16-1.52-5.49-4.53-5.49-4.53" />
  <path class="st0" d="M83.1,144.4c-0.72-1.14-1.14-2.45-1.24-3.8c-0.22-1.61,0.43-2.31,1.2-2.35c0.77-0.04,0.97,0.55,1.08,1.01
	c-1.66,0.66-1.08,4.04-0.67,5.22l0.06,0.31c0,0,0,0.06,0,0.1C83.36,144.76,83.22,144.58,83.1,144.4" />
  <path d="M100.25,100.79v-5.91h22.18l-0.36,2.36l-19.38,0.15v4.47l-3.05,3.9L100.25,100.79z" />
  <path class="st1" d="M97.26,112.57l9.42-9.59v-1.88h12.12l3.27-3.86l-19.38,0.15v4.47l-2.31,2.95
	C100.37,104.81,100.61,106.74,97.26,112.57z" />
  <path class="st4" d="M22.86,84.23c0-0.03,0-0.06,0-0.1c4.59-1.55,2.4-6.96,8.96-12.95c2.16-2.02,2.83-3.86,2.61-5.34
	c-0.03-0.26-0.1-0.51-0.18-0.74c-0.17-0.57-0.47-1.09-0.87-1.53h0.08l0.26,0.16c0.4,0.25,0.74,0.58,1.01,0.97
	c0.17,0.25,0.3,0.52,0.4,0.8c0.03,0.08,0.05,0.15,0.08,0.23c0.77,2.16-0.83,4.88-0.83,4.88c-3.38,3.4-3.45,3.14-4.59,4.65
	c-1.44,1.85-2.2,4.13-2.16,6.48c0.12,0.73,0.29,1.46,0.52,2.16c-0.69,0.43-1.35,0.9-2.03,1.35c-0.07,0.04-0.13,0.09-0.2,0.13
	c-0.37,0.22-0.78,0.39-1.19,0.51c-0.84,0.28-1.75,0.28-2.59,0C22.19,85.78,22.68,84.7,22.86,84.23z" />
  <path class="st4" d="M94.08,141.24l-0.57-0.21l-0.7-0.38c0,0-0.69,0.64-0.74,0.73c-1.09,2.02-1.41,4.23-1.41,4.23h-2.94
	c1.22,1.62,3.5,3.82,5.21,2.93c0.4-0.21,0.6-0.42,0.61-0.43c0,0-0.7,0.14-0.7,0.14c-2.99,0.22-0.26-5.44,0.25-6.19
	S94.08,141.24,94.08,141.24z" />
  <path class="st4" d="M97.59,142.39c0.64-0.74,1.22-1.75,1.14-2.72c-0.04-0.44-0.82-1.14-0.94-1.09c0.24,0.19,0.5,0.58,0.57,0.9
	c0.23,1.09-0.54,2.12-1.37,2.7c-0.03,0.02-0.07,0.05-0.1,0.07c-0.1,0.07-0.2,0.13-0.31,0.18c-0.14,0.38-0.27,0.73-0.38,1.05
	c-0.06,0.16-0.11,0.31-0.15,0.46c-0.1,0.29-0.18,0.55-0.25,0.78c-0.03,0.12-0.07,0.23-0.09,0.33c-0.11,0.41-0.18,0.72-0.22,0.95
	c-0.02,0.11-0.03,0.2-0.04,0.27c-0.02,0.14-0.02,0.2-0.02,0.2c0.13,0.15,0.37,0.4,0.69,0.64c0.01,0.01,0.02,0.02,0.04,0.03
	c2.1,1.17,2.94-0.16,2.94-0.16s-2.07,0.64-2.73-0.64C95.71,145.06,97.59,142.39,97.59,142.39" />
  <path class="st4" d="M84.7,139.55l0,0.05l-0.05,0.96c0,0,0.14,0.41,1.29-0.63c1.35-1.22,1.86-2.22,4.46-2.58
	c0,0-0.14-0.26-0.72-0.75c-0.03-0.02-0.05-0.04-0.08-0.07C89.6,136.54,87.08,136.33,84.7,139.55" />
  <path class="st4" d="M75.59,123.84c-4.9,0-6.57-5.5-6.73-6.23c0,0.07,0.01,0.13,0.02,0.2c0.01,0.06,0.01,0.13,0.02,0.19
	c0.01,0.07,0.02,0.14,0.03,0.21c0.01,0.06,0.02,0.13,0.03,0.19c0.01,0.07,0.02,0.14,0.03,0.2c0.02,0.1,0.04,0.2,0.06,0.3
	c0.02,0.08,0.04,0.16,0.06,0.25c0.02,0.07,0.03,0.13,0.05,0.2c0.02,0.07,0.04,0.13,0.06,0.2c0.02,0.07,0.04,0.13,0.06,0.2
	c0.02,0.06,0.04,0.13,0.07,0.19c0.04,0.11,0.08,0.22,0.12,0.33c0.03,0.06,0.05,0.13,0.08,0.19c0.03,0.07,0.06,0.15,0.1,0.22
	c0.03,0.06,0.06,0.12,0.08,0.18c0.03,0.07,0.07,0.14,0.11,0.21c0.03,0.06,0.06,0.11,0.09,0.16c0.06,0.11,0.13,0.23,0.19,0.34
	c0.03,0.04,0.05,0.08,0.08,0.13c0.05,0.08,0.1,0.16,0.15,0.24c0.03,0.05,0.07,0.1,0.1,0.15c0.05,0.07,0.1,0.15,0.15,0.22
	c0.03,0.04,0.06,0.09,0.1,0.13c0.08,0.11,0.16,0.21,0.25,0.32c0.02,0.03,0.05,0.05,0.07,0.08c0.07,0.08,0.14,0.16,0.21,0.24
	c0.03,0.04,0.07,0.08,0.11,0.11c0.07,0.07,0.13,0.14,0.2,0.2c0.03,0.03,0.07,0.07,0.1,0.1c0.1,0.09,0.2,0.19,0.3,0.27
	c0.02,0.01,0.04,0.03,0.05,0.04c0.09,0.07,0.18,0.15,0.27,0.22c0.04,0.03,0.07,0.05,0.11,0.08c0.08,0.06,0.16,0.11,0.24,0.17
	c0.04,0.02,0.07,0.05,0.11,0.07c0.12,0.07,0.23,0.14,0.35,0.21c0.01,0.01,0.02,0.01,0.03,0.02c0.11,0.06,0.22,0.11,0.33,0.17
	c0.04,0.02,0.08,0.03,0.11,0.05c0.09,0.04,0.18,0.08,0.28,0.11c0.04,0.01,0.07,0.03,0.11,0.04c0.13,0.05,0.26,0.09,0.39,0.12
	c0.01,0,0.01,0,0.02,0c0.13,0.03,0.25,0.06,0.38,0.09c0.04,0.01,0.08,0.01,0.12,0.02c0.1,0.02,0.2,0.03,0.3,0.04
	c0.04,0,0.08,0.01,0.12,0.01c0.14,0.01,0.28,0.02,0.42,0.02c1.29,0,2.51-0.31,3.56-0.72c0.1-0.04,0.19-0.08,0.28-0.11
	c0.19-0.08,0.36-0.16,0.54-0.24c0.17-0.08,0.34-0.16,0.5-0.25c0.47-0.25,0.88-0.5,1.21-0.71c0.54-0.36,0.85-0.61,0.85-0.61
	s-0.35-0.24-0.6-0.55c-0.2-0.26-0.35-0.58-0.35-0.58l0,0C81.68,121.47,79.43,123.84,75.59,123.84" />
  <path class="st4" d="M87.96,126.29c-0.59-3.06,0.2-6.05,0.43-6.82v0c-0.48,1-1.33,1.71-1.64,1.95c0,0,0,0-0.01,0
	c-0.02,0.02-0.04,0.03-0.05,0.04c-0.01,0.01-0.01,0.01-0.02,0.01c-0.01,0.01-0.02,0.01-0.02,0.02c-0.01,0.01-0.02,0.01-0.02,0.01
	c-0.12,0.4-0.2,0.81-0.24,1.22c-0.03,0.31-0.04,0.61-0.03,0.92c0.01,0.22,0.02,0.43,0.04,0.65c0.02,0.17,0.04,0.35,0.07,0.52
	c0.04,0.24,0.08,0.47,0.13,0.7c0.04,0.17,0.08,0.34,0.12,0.5c0.15,0.56,0.33,1.09,0.51,1.58c0.06,0.16,0.12,0.32,0.18,0.47
	c0.06,0.15,0.12,0.29,0.17,0.43c0.06,0.14,0.11,0.27,0.16,0.39c0.12,0.31,0.23,0.57,0.3,0.78c0.02,0.06,0.04,0.13,0.05,0.2
	c0.23,1,0.17,2.87,0.04,3.98c0,0.01,0,0.02,0,0.03C89.16,131.35,88.59,129.54,87.96,126.29" />
</svg>