<?xml version="1.0" encoding="UTF-8"?>
<svg id="Layer_1" xmlns="http://www.w3.org/2000/svg" version="1.1" viewBox="0 0 224.9 222.6">
  <defs>
    <style>
      .st0 {
        fill: #deccb8;
      }

      .st1 {
        fill: #fff;
      }
    </style>
  </defs>
  <path class="st0" d="M114.8,222.6c26.7,0,52.1-11.9,66.4-35,2.4-3.9,4.5-7.8,6.3-11.8,3.8-8.4,11.9-13.8,21.1-14.5,1.6-.1,3.2-.5,4.7-1.1,10.2-4.3,13.1-15.8,11.1-25.6-7.9-38.8-20.9-87.6-52.3-111.5C138.5-2.4,76.1-12.1,40.6,21.9,6.8,54.3-9.9,109.2,6.1,154.1c7.7,21.6,21.5,40.1,41.2,52.2,19.8,12.2,44.6,16.4,67.6,16.4Z" />
  <g>
    <path class="st1" d="M156.5,67.6H56.5c-6.2,0-11.3,5.1-11.3,11.3v70.2c0,6.2,5.1,11.3,11.3,11.3h100c5,0,9.2-4.1,9.2-9.2v-74.5c0-5-4.1-9.2-9.2-9.2ZM159.2,127.5h-18.6c-7.4,0-13.5-6.1-13.5-13.5s6.1-13.5,13.5-13.5h18.6v27ZM156.5,153.9H56.5c-2.7,0-4.9-2.2-4.9-4.9v-70.2c0-2.7,2.2-4.9,4.9-4.9h100c1.5,0,2.7,1.2,2.7,2.7v17.3h-18.6c-11,0-19.9,8.9-19.9,19.9s8.9,19.9,19.9,19.9h18.6v17.3c0,1.5-1.2,2.7-2.7,2.7Z" />
    <path class="st1" d="M137.4,114c0,3.2,2.6,5.7,5.7,5.7s5.7-2.6,5.7-5.7-2.6-5.7-5.7-5.7-5.7,2.6-5.7,5.7ZM143.1,113.3c.4,0,.7.3.7.7s-.3.7-.7.7-.7-.3-.7-.7.3-.7.7-.7Z" />
  </g>
</svg>