<?xml version="1.0" encoding="UTF-8"?>
<svg id="Layer_1" xmlns="http://www.w3.org/2000/svg" version="1.1" viewBox="0 0 238.9 222.3">
  <defs>
    <style>
      .st0 {
        fill: #fff;
      }

      .st1 {
        fill: #00f5ff;
      }
    </style>
  </defs>
  <path class="st1" d="M216.2,26.8c-10.4-10.6-23.2-19.3-37.6-23.4-14.9-4.2-30.6-3.6-45.8-2.7-3.3.2-3.2,3-2,6.2-16.2-1.1-32.4-1.9-48.6-2-23.3-.2-47.3,3.4-60.4,25C9,50.9,5.3,78.5,2.3,102.6c-1.5,12.4-3.1,25.2-1.9,37.6,1.5,14.7,9,27.2,19.2,37.6,19.1,19.7,46.5,27.1,72.2,34.3,24.2,6.8,51.5,14.6,76.4,6.9,46.6-14.4,66.8-63.3,69.9-108.3,1-14.2,1.2-28.9-.5-43-2-15.9-10.3-29.6-21.4-41ZM26,165.3c0,.2.5.6,1.1,1.2-.6-.4-1-.8-1.1-1.2Z" />
  <g>
    <path class="st0" d="M119.4,182.5h0c-1.1,0-2-.5-2.6-1.4l-45.6-66.3c-10.3-14.9-11.4-33.4-2.9-49.4s24.3-25.6,42.4-25.6h17.7c18.1,0,33.9,9.6,42.4,25.6,8.4,16,7.3,34.5-2.9,49.4l-45.6,66.3c-.6.9-1.6,1.4-2.6,1.4ZM110.6,46.2c-15.7,0-29.4,8.3-36.7,22.2s-6.3,29.9,2.6,42.8h0l43,62.4,43-62.4c8.9-12.9,9.8-28.9,2.6-42.8-7.3-13.9-21-22.2-36.7-22.2h-17.7Z" />
    <path class="st0" d="M119.4,119.7c-14.6,0-26.5-11.9-26.5-26.5s11.9-26.5,26.5-26.5,26.5,11.9,26.5,26.5-11.9,26.5-26.5,26.5ZM119.4,73.1c-11.1,0-20.1,9-20.1,20.1s9,20.1,20.1,20.1,20.1-9,20.1-20.1-9-20.1-20.1-20.1Z" />
  </g>
</svg>