<?xml version="1.0" encoding="UTF-8"?>
<svg id="Layer_1" xmlns="http://www.w3.org/2000/svg" version="1.1" viewBox="0 0 204.4 199">
  <defs>
    <style>
      .st0 {
        fill: #fff;
        stroke: #fff;
        stroke-miterlimit: 10;
      }

      .st1 {
        fill: #290f87;
      }
    </style>
  </defs>
  <path class="st1" d="M200.8,49.9c1.7-5.1,7.3-17.9-.1-22-19.3-10.6-39.9-21.8-64.7-26.2-27.6-4.9-54,2-77.5,11.3C31.6,23.7,16.3,37.9,7.8,57.8-.5,77.2-2.6,97.5,3.4,117.3c9.2,30.3,28.3,74.5,82.3,81.1,25.6,3.1,52.1-7,69.8-18.4,23.5-15.1,34.2-36.3,38.7-57.3,4-18.8-.2-36.2-9-53.7.6.3,1.1.6,1.7.9,4.4,2.4,13.4-18.5,13.9-20Z" />
  <path class="st0" d="M124.3,149.1c-.1.2-.3.4-.5.6-.8.8-2,1.4-3.3,1.4H50.9c-1.3,0-2.5-.5-3.3-1.4-.9-.9-1.4-2-1.4-3.3v-14c0-1.3.5-2.5,1.4-3.3.8-.9,2-1.4,3.3-1.4h40c.5,1.3,1.2,2.6,1.8,3.8h-41.8c-.2,0-.5.1-.6.2-.2.2-.3.4-.3.6v14c0,.2.1.5.3.6.1.2.4.2.6.2h60.5c3.6,1.2,7.4,1.9,11.3,1.9s1,0,1.5,0h0Z" />
  <path class="st0" d="M92.7,131.5h-30.8c-1.3,0-2.5-.5-3.3-1.4-.8-.8-1.4-2-1.4-3.3v-14c0-1.3.5-2.5,1.4-3.3.8-.8,2-1.4,3.3-1.4h27.1c-.2,1.2-.4,2.5-.5,3.8h-26.5c-.2,0-.4.1-.6.3-.2.2-.3.4-.3.6v14c0,.2.1.5.3.6.2.2.4.3.6.3h28.9c.5,1.3,1.2,2.6,1.8,3.8h0Z" />
  <path class="st0" d="M88.4,112h-45.4c-1.3,0-2.5-.5-3.3-1.4-.8-.8-1.4-2-1.4-3.3v-14c0-1.3.5-2.5,1.4-3.3.9-.8,2-1.4,3.3-1.4h57.3c-1.4,1.2-2.6,2.4-3.8,3.8h-53.5c-.2,0-.5,0-.6.2-.2.2-.2.4-.2.6v14c0,.2,0,.5.2.6s.4.2.6.2h45.9c-.2,1.2-.4,2.5-.5,3.8h0Z" />
  <path class="st0" d="M133.8,73.7v8.4c-1.2-.4-2.5-.8-3.8-1.1v-7.4c0-.2-.1-.5-.2-.6-.2-.2-.4-.3-.6-.3H59.5c-.2,0-.5.1-.6.3-.1.1-.2.4-.2.6v14c0,.2.1.4.2.6.2.2.4.3.6.3h40.8c-1.4,1.2-2.6,2.4-3.8,3.8h-37c-1.3,0-2.5-.5-3.3-1.4-.9-.9-1.4-2-1.4-3.3v-14c0-1.3.5-2.5,1.4-3.3.8-.9,2-1.4,3.3-1.4h69.6c1.3,0,2.5.5,3.3,1.4.9.8,1.4,2,1.4,3.3h0Z" />
  <path class="st0" d="M125.7,54.2v14c0,1.3-.5,2.5-1.4,3.3-.8.9-2,1.4-3.3,1.4H51.4c-1.3,0-2.5-.5-3.3-1.4-.9-.8-1.4-2-1.4-3.3v-14c0-1.3.5-2.5,1.4-3.3.8-.8,2-1.4,3.3-1.4h69.6c1.3,0,2.5.5,3.3,1.4.9.8,1.4,2,1.4,3.3h0ZM121.8,68.2v-14c0-.2-.1-.4-.3-.6-.1-.2-.4-.3-.6-.3H51.4c-.2,0-.5.1-.6.3-.1.2-.2.4-.2.6v14c0,.2.1.5.2.6.2.2.4.3.6.3h69.6c.2,0,.5-.1.6-.3.2-.1.3-.4.3-.6h0Z" />
  <path class="st0" d="M122.7,78.4c10,0,19.1,4.1,25.7,10.6,6.6,6.6,10.6,15.7,10.6,25.7s-4.1,19.1-10.6,25.7c-6.6,6.6-15.7,10.7-25.7,10.7s-19.1-4.1-25.7-10.7c-6.6-6.6-10.6-15.7-10.6-25.7s4.1-19.1,10.6-25.7c6.6-6.6,15.7-10.6,25.7-10.6h0ZM145.7,91.7c-5.9-5.9-14-9.5-23-9.5s-17.1,3.6-23,9.5c-5.9,5.9-9.5,14-9.5,23s3.6,17.1,9.5,23c5.9,5.9,14,9.5,23,9.5s17.1-3.6,23-9.5c5.9-5.9,9.5-14,9.5-23s-3.6-17.1-9.5-23h0Z" />
  <path class="st0" d="M122.7,86.8c7.7,0,14.7,3.1,19.8,8.2,5,5,8.2,12,8.2,19.8s-3.1,14.7-8.2,19.8c-5.1,5.1-12,8.2-19.8,8.2s-14.7-3.1-19.8-8.2c-5-5-8.2-12-8.2-19.8s3.1-14.7,8.2-19.8c5.1-5.1,12-8.2,19.8-8.2h0ZM139.8,97.7c-4.4-4.4-10.4-7.1-17.1-7.1s-12.7,2.7-17.1,7.1c-4.4,4.4-7.1,10.4-7.1,17.1s2.7,12.7,7.1,17.1c4.4,4.4,10.4,7.1,17.1,7.1s12.7-2.7,17.1-7.1c4.4-4.4,7.1-10.4,7.1-17.1s-2.7-12.7-7.1-17.1h0Z" />
  <path class="st0" d="M134.1,106.7c0,1.1-.8,1.9-1.9,1.9s-1.9-.8-1.9-1.9-.8-2.3-1.8-3.1c-1.6-1.1-3.9-1.7-5.9-1.7s-4.4.6-5.7,1.5c-1.2.9-1.8,2.1-1.8,3.6,0,2.8,3.8,4.2,7.5,5.5l1.7.6c4.9,1.8,10,3.7,10,9.1s-1.2,5-3.4,6.6c-2,1.5-4.7,2.3-8,2.3s-5.8-.8-8-2.4c-2.1-1.4-3.5-3.5-3.5-6.2s.8-1.9,1.9-1.9,1.9.9,1.9,1.9.8,2.3,1.8,3.1c1.6,1.1,3.9,1.7,5.9,1.7s4.4-.6,5.7-1.5c1.2-.9,1.8-2.1,1.8-3.6,0-2.8-3.8-4.2-7.5-5.5l-1.7-.6c-4.9-1.8-10-3.7-10-9.1s1.2-5,3.4-6.6c1.9-1.4,4.7-2.3,8-2.3s5.8.8,8,2.4c2.1,1.4,3.5,3.5,3.5,6.2h0Z" />
  <path class="st0" d="M120.8,97c0-1.1.9-1.9,1.9-1.9s1.9.9,1.9,1.9v35.5c0,1.1-.9,1.9-1.9,1.9s-1.9-.9-1.9-1.9v-35.5Z" />
</svg>