<?xml version="1.0" encoding="UTF-8"?>
<svg id="Layer_1" xmlns="http://www.w3.org/2000/svg" version="1.1" viewBox="0 0 226.1 215.3">
  <defs>
    <style>
      .st0 {
        fill: none;
        stroke: #fff;
        stroke-linecap: round;
        stroke-linejoin: round;
        stroke-width: 7px;
      }

      .st1 {
        fill: #aeb4ff;
      }
    </style>
  </defs>
  <path class="st1" d="M2.8,150.1c-3.2,22.7-7.5,43.6,11.7,56.9,21.9,15.1,52.8,7.6,73.4-5.9.8-.5,1.5-1,2.3-1.6,18.3-12.8,40.9-17.4,63.1-14.6,24.3,3.1,48.4-3.2,62.3-25.6,16.2-26.1,13.4-61.5-6.3-82.5-8.7-9.3-13.6-21.4-13.6-34.1s-.8-9.8-2.5-14.7C187.4,11.2,170.7,1.5,153.6.2c-27.2-2-50.7,9.9-68.9,28-10.9,10.8-24.6,18.4-39.6,21.9-18.9,4.4-35.8,15.8-43,35-4.5,11.9,6.1,26.8.7,64.9ZM184.3,163.4c-.3-.2,0-.5.5-.8-.3.5-.5.8-.5.8ZM37.3,72.9s0,0,0,0c.2-.3,0-.2,0,0Z" />
  <g>
    <path class="st0" d="M129.9,120.2c28.7-28.7,30.9-73.1,30.9-73.1,0,0-44.4,2.2-73.1,30.9-12.3,12.3-19.8,27.6-24.3,40.9l25.5,25.5c13.4-4.5,28.6-11.9,40.9-24.3Z" />
    <line class="st0" x1="63.3" y1="118.8" x2="88.9" y2="144.4" />
    <line class="st0" x1="63.3" y1="118.8" x2="88.9" y2="144.4" />
    <line class="st0" x1="56.5" y1="126.7" x2="81.3" y2="151.4" />
    <path class="st0" d="M63.3,118.8l-27-12.2c18-18,35.7-28.7,47.7-24.9" />
    <path class="st0" d="M88.9,144.4l12.2,27c18-18,28.7-35.7,24.9-47.7" />
    <line class="st0" x1="128.1" y1="54" x2="153.8" y2="79.6" />
    <circle class="st0" cx="114.7" cy="93.2" r="10.5" />
    <line class="st0" x1="52.8" y1="137.7" x2="35.4" y2="155.1" />
    <line class="st0" x1="70.3" y1="155.1" x2="52.9" y2="172.5" />
    <line class="st0" x1="61.5" y1="146.4" x2="51" y2="156.9" />
  </g>
</svg>