<?xml version="1.0" encoding="UTF-8"?>
<svg id="Layer_1" xmlns="http://www.w3.org/2000/svg" version="1.1" viewBox="0 0 205.4 201.3">
  <defs>
    <style>
      .st0 {
        fill: #fff;
      }

      .st1 {
        fill: #f8a83a;
      }
    </style>
  </defs>
  <path class="st1" d="M184.4,33.6C169.7,14.8,146.1.9,116.5,0c-8.9-.3-18.3.9-27.4,3.5-6-1.4-12.3-1.4-17.2.9C25.8,26.3-.8,68.4,0,107.9c.9,39.7,22.7,83.2,70.8,92,45.7,8.3,97.4-19.4,120.4-57,23.1-37.5,16-80-6.9-109.3Z" />
  <path class="st0" d="M148.3,102.5c8.4-2.8,13.4-11.6,11.2-20.3-2.1-8.7-10.6-14.2-19.3-12.9l-6-24.5c-.6-2.3-2.4-4-4.7-4.4-2.3-.4-4.6.5-5.9,2.4-4.5,6.4-14.3,18.6-30.1,28.5-6.2,3.8-13.1,6.7-20.5,8.5l-19.8,4.8c-5.5,1.4-10.2,4.8-13.2,9.7s-3.9,10.6-2.5,16.2l.9,3.8h0c1.4,5.5,4.8,10.2,9.7,13.2,3.5,2.1,7.5,3.2,11.5,3.1l16.1,25.3c1.7,2.7,4.4,4.6,7.6,5.2.8.2,1.6.2,2.4.2,2.4,0,4.7-.7,6.7-2.1,2.6-1.8,4.4-4.5,4.9-7.7.5-3.2-.2-6.3-2-8.9l-12.3-17.2,1.1-.3c7.4-1.8,14.8-2.4,22.1-1.9,18.6,1.5,32.9,7.8,39.8,11.4.9.5,1.8.7,2.8.7s2.6-.4,3.6-1.3c1.9-1.5,2.7-3.8,2.1-6.1l-6.2-25.5ZM153.2,83.7c1.3,5.3-1.6,10.6-6.5,12.5l-5-20.6c5.3-.6,10.3,2.8,11.5,8.1ZM90.1,146.2c.8,1.2,1.2,2.6.9,4.1s-1,2.7-2.2,3.5c-1.2.8-2.7,1.1-4.1.8-1.4-.3-2.7-1.1-3.5-2.4l-14.6-23,9.7-2.4,13.8,19.3ZM82.5,118.8l-4.9,1.2c-.6,0-1.2.1-1.7.4l-13.2,3.2c-3.9.9-7.9.3-11.3-1.7-3.4-2.1-5.8-5.3-6.8-9.2l-.9-3.8c-.9-3.9-.3-7.9,1.7-11.3s5.3-5.8,9.2-6.8l19.8-4.8c2-.5,4-1.1,6-1.7l8.1,33.2c-2,.3-4,.7-6.1,1.2ZM106.6,116.7c-1.9-.2-3.8-.2-5.7-.2s-3.9,0-5.9.2l-8.5-34.7c3.6-1.5,7.1-3.3,10.3-5.3,16.1-10,26.3-22.3,31.3-29.3l13.1,53.6h0s0,0,0,0l6.7,27.4c-7.7-3.9-22.5-10.1-41.3-11.6Z" />
</svg>