<?xml version="1.0" encoding="UTF-8"?>
<svg id="Layer_1" xmlns="http://www.w3.org/2000/svg" version="1.1" viewBox="0 0 243.7 193.2">
  <defs>
    <style>
      .st0 {
        fill: #e1bbc8;
      }

      .st1 {
        fill: #fff;
      }

      .st2 {
        fill: none;
        stroke: #fff;
        stroke-linecap: round;
        stroke-linejoin: round;
        stroke-width: 6px;
      }
    </style>
  </defs>
  <g>
    <path class="st0" d="M14.1,110.4c6.7,7.2,9.4,17.5,6.7,26.9-.5,1.8-.9,3.7-1.1,5.7-1.6,12.9-.2,34.2,11.3,42.3,12.8,9,32.5,8.4,47.4,7.3,13.7-1,27.3-4.1,40.3-8.7s20.8-3.7,31.1-1.3c11.8,2.8,24,3.3,35.5.4,24.1-6.1,49.5-24.8,55.4-50,4.1-17.6,5.1-41.5-2.1-58.3-3.6-8.3-9.4-13.6-16.4-17.1-13.9-6.9-24.5-19.5-26.5-34.9-.5-4.1-1.9-8-4.2-11.7-7.8-12.2-23.5-12.1-36.3-9.7-17.6,3.3-34.2,11.5-48.4,22.3-.3.2-.5.4-.8.6-28.9-12.1-63.9-7.5-89.2,12.3-31.6,24.8-9.5,66.4-2.4,73.9Z" />
    <path class="st1" d="M89.1,110.3c-.9,0-1.7-.8-1.7-1.7s.8-1.7,1.7-1.7,1.7.8,1.7,1.7-.8,1.7-1.7,1.7Z" />
  </g>
  <g id="ask_question">
    <g id="ask_question1">
      <path class="st2" d="M89.1,63.4c-4.6,2.3-8.9,5.3-12.5,8.9-9.1,8.9-14.8,21.3-14.8,35.1s5.5,25.8,14.4,34.7l-14.4,14.4h49c13,0,24.9-5.1,33.7-13.4" />
      <g>
        <path class="st2" d="M182.2,85.1c0-27.1-22-49-49-49s-49,22-49,49,22,49,49,49h49l-14.4-14.4c8.9-8.9,14.4-21.1,14.4-34.7Z" />
        <g>
          <path class="st2" d="M133.1,98.5v-7.3c0-2,1.4-3.8,3.4-4.3,5.8-1.5,10-6.7,10-13s-6-13.4-13.4-13.4-13.4,6-13.4,13.4" />
          <line class="st2" x1="133.1" y1="109.6" x2="133.1" y2="107.4" />
        </g>
      </g>
    </g>
  </g>
</svg>