<svg xmlns="http://www.w3.org/2000/svg" viewBox="0 0 776.18 778"><g id="Layer_2_copy" data-name="Layer 2 copy"><path d="M744.52,0c75.29,133.17,118.69,289.68,118.69,457.14,0,113.24-19.84,221.47-56,320.86H1520.7V0Z" transform="translate(-744.52 0)" style="fill:#fff"/></g><g id="Layer_2_copy_2" data-name="Layer 2 copy 2"><path d="M756.52,0h-12c75.29,133.17,118.69,289.68,118.69,457.14,0,113.24-19.84,221.47-56,320.86h12c36.13-99.39,56-207.62,56-320.86C875.21,289.68,831.81,133.17,756.52,0Z" transform="translate(-744.52 0)" style="fill:#2e7bb2"/></g><g id="Layer_5" data-name="Layer 5"><circle cx="69.18" cy="4.84" r="3.84" style="fill:#74b3dc"/><circle cx="76.86" cy="22.86" r="3.84" style="fill:#74b3dc"/><circle cx="82.93" cy="40.89" r="3.84" style="fill:#74b3dc"/><circle cx="89.07" cy="60.36" r="3.84" style="fill:#74b3dc"/><circle cx="94.85" cy="78.82" r="3.84" style="fill:#74b3dc"/><circle cx="100.63" cy="98.76" r="3.84" style="fill:#74b3dc"/><circle cx="105.47" cy="117.7" r="3.84" style="fill:#74b3dc"/><circle cx="109.31" cy="136.64" r="3.84" style="fill:#74b3dc"/><circle cx="113.51" cy="156.57" r="3.84" style="fill:#74b3dc"/><circle cx="117.35" cy="174.78" r="3.84" style="fill:#74b3dc"/><circle cx="121.18" cy="195.29" r="3.84" style="fill:#74b3dc"/><circle cx="123.79" cy="214.36" r="3.84" style="fill:#74b3dc"/><circle cx="127.02" cy="234.17" r="3.84" style="fill:#74b3dc"/><circle cx="128.88" cy="253.97" r="3.84" style="fill:#74b3dc"/><circle cx="130.69" cy="273.78" r="3.84" style="fill:#74b3dc"/><circle cx="131.72" cy="293.58" r="3.84" style="fill:#74b3dc"/><circle cx="132.72" cy="313.39" r="3.84" style="fill:#74b3dc"/><circle cx="133.53" cy="332.19" r="3.84" style="fill:#74b3dc"/><circle cx="132.72" cy="392.17" r="3.84" style="fill:#74b3dc"/><circle cx="131.72" cy="412.16" r="3.84" style="fill:#74b3dc"/><circle cx="130.69" cy="431.15" r="3.84" style="fill:#74b3dc"/><circle cx="128.88" cy="451.15" r="3.84" style="fill:#74b3dc"/><circle cx="126.85" cy="471.14" r="3.84" style="fill:#74b3dc"/><circle cx="125.04" cy="490.13" r="3.84" style="fill:#74b3dc"/><circle cx="121.2" cy="509.36" r="3.84" style="fill:#74b3dc"/><circle cx="118.37" cy="529.58" r="3.84" style="fill:#74b3dc"/><circle cx="114.53" cy="548.81" r="3.84" style="fill:#74b3dc"/><circle cx="110.69" cy="568.04" r="3.84" style="fill:#74b3dc"/><circle cx="105.49" cy="587.26" r="3.84" style="fill:#74b3dc"/><circle cx="101.65" cy="606.49" r="3.84" style="fill:#74b3dc"/><circle cx="95.64" cy="625.72" r="3.84" style="fill:#74b3dc"/><circle cx="89.86" cy="644.94" r="3.84" style="fill:#74b3dc"/><circle cx="84.08" cy="664.17" r="3.84" style="fill:#74b3dc"/><circle cx="77.41" cy="682.08" r="3.84" style="fill:#74b3dc"/><circle cx="69.76" cy="701" r="3.84" style="fill:#74b3dc"/><circle cx="63.08" cy="718.63" r="3.84" style="fill:#74b3dc"/><circle cx="55.41" cy="737.12" r="3.84" style="fill:#74b3dc"/><circle cx="47.73" cy="755.61" r="3.84" style="fill:#74b3dc"/><circle cx="38.49" cy="772.95" r="3.84" style="fill:#74b3dc"/><circle cx="133.53" cy="352.18" r="3.84" style="fill:#74b3dc"/><circle cx="133.53" cy="372.18" r="3.84" style="fill:#74b3dc"/></g></svg>