<?xml version="1.0" encoding="UTF-8"?>
<svg id="Layer_1" xmlns="http://www.w3.org/2000/svg" version="1.1" viewBox="0 0 218.84 114.32">
  <!-- Generator: Adobe Illustrator 29.4.0, SVG Export Plug-In . SVG Version: 2.1.0 Build 152)  -->
  <defs>
    <style>
      .st0 {
        fill: #e1bbc8;
      }
    </style>
  </defs>
  <path class="st0" d="M61.07,108.27c.82-5.16,5.49-8.39,8.24-12.55,3.68-2.9,7.99-18.11,12.69-15.48,1.7,1.11,2.74,3.41,1.86,4.71-3.24,4.8-5.61,10.15-9.28,14.69-2.8,2.43-11.77,18.85-13.51,8.63Z"/>
  <path class="st0" d="M45.24,70.37c3.11-.71,6.66,4.21,3.12,4.64-4.14-.58-26.1,23.84-29.48,19.71-2.39-3.12,3.61-7.15,5.81-9.19,6.89-4.7,13.09-11.78,20.55-15.16Z"/>
  <path class="st0" d="M28.48,60.77c-5.65-.55-31.23-11.99-27.84-18.72,4.62-1.97,11.33,6.82,16.38,7.95,2.47,1.17,20.46,9.2,11.46,10.76Z"/>
  <path class="st0" d="M120.84,90.54c-1.53,4.13-1.69,24.18-5.55,23.77-7.25-3.97-.37-18.64-.89-25.57.75-7.29,6.9-3.68,6.44,1.8Z"/>
  <path class="st0" d="M163.03,80.21c5.77,5.69,9.86,13.17,17.34,17.67,2.34,1.7,4.51,3.77,6.03,6.35,4.1,9.18-19.31-9.58-20.02-11.8-1.48-2.87-8.38-10.31-3.36-12.21Z"/>
  <path class="st0" d="M179.61,36.6c1.98-8.45,11.5-12.45,18.15-16.87,2.4-.82,13.7-12.51,11.52-4.17-6.82,8.4-18.26,11.83-25.08,20.22-.9,1.97-4.84,4.98-4.59.82Z"/>
  <path class="st0" d="M218.84,74.67c-1.53.18-2.43-.54-3.26-1.2-7.73-5.43-16.68-8.78-24.81-13.58-3.07-1.54-2.17-6.7,1.61-4.08,8.86,6.08,22,8.1,26.45,18.86Z"/>
  <path class="st0" d="M73.96,5.28c-.19,2.48-1.55,25.29-5.3,21.27-2.49-6.68,2.55-16.17,2.21-23.67.11-1.07.12-2.55,1.68-2.41,2.16.38,1.19,3.24,1.41,4.8Z"/>
  <path class="st0" d="M152.24,18.16c1.63-6.09,5.79-11.22,8.42-16.94.89-2.23,4.17-1.02,3.21,1.26-.84,6.36-5.45,11-8.01,16.61-.8,2.58-3.94,1.48-3.61-.93Z"/>
  <path class="st0" d="M120.42,6.59c-.38,3.4-2.52,14.77-6.12,15.09-3.39-1.68.37-6.41.54-9.16,1.01-3.7,3.63-17.84,5.59-5.93Z"/>
  <path class="st0" d="M34.46,10.9c.69.15,1.18.67,1.23,1.24.45,5.55,4.53,9.43,6.47,14.28,4.79,15.41-15.68-13.46-7.7-15.52Z"/>
</svg>