<?xml version="1.0" encoding="UTF-8"?>
<svg id="Logo" xmlns="http://www.w3.org/2000/svg" version="1.1" xmlns:i="http://ns.adobe.com/AdobeIllustrator/10.0/" viewBox="0 0 360 123.5">
  <defs>
    <style>
      .st0 {
        fill: #fff;
      }
    </style>
  </defs>
  <path class="st0" d="M54.7,28.1c2.2-4,6.6-11.8,7.5-13.5,3.6-6.1-1.9-14.8-8.9-14.6-1.9,0-3.8.6-5.5,1.7-2.2,1.4-9.8,7.6-16.1,12.7h0C25.4,9.2,17.7,3.1,15.5,1.7c-1.7-1.1-3.6-1.7-5.5-1.7C3-.2-2.5,8.5,1.1,14.6c.9,1.6,5.3,9.5,7.5,13.5-2.2,4-6.6,11.8-7.5,13.5-3.6,6.2,1.9,14.8,8.9,14.6,1.9,0,3.8-.6,5.5-1.7,2.2-1.4,9.8-7.6,16.1-12.7h0c6.3,5.1,14,11.2,16.1,12.7,1.7,1.1,3.6,1.7,5.5,1.7,7,.2,12.5-8.5,8.9-14.6-.9-1.6-5.3-9.5-7.5-13.5h.1ZM27.7,38.7c-6.1,4.9-13.1,10.5-14.9,11.7-.9.6-1.9.9-2.8.9-3.6,0-6.2-4.4-4.6-7.3,1.2-2.2,8.8-15.9,8.8-15.9,0,0-7.6-13.7-8.8-15.9-1.6-2.9,1-7.3,4.6-7.3s1.8.3,2.8.9c1.9,1.2,8.8,6.8,14.9,11.7-2.8,2.2-4.7,3.9-5,4.1-2.1,1.8-3.4,4.1-3.4,6.5s1.3,4.8,3.4,6.5c.3.2,2.2,1.8,5,4.1q.67-.53,0,0ZM31.7,35.5c-2.9-2.3-5.1-4.2-5.8-4.7-1-.8-1.6-1.7-1.6-2.7s.6-1.9,1.6-2.7c.7-.6,2.9-2.4,5.8-4.7,2.9,2.3,5.1,4.2,5.8,4.7,1,.8,1.6,1.7,1.6,2.7s-.6,1.9-1.6,2.7c-.7.6-2.9,2.4-5.8,4.7ZM53.3,51.3c-.9,0-1.8-.3-2.8-.9-1.9-1.2-8.8-6.8-14.9-11.7,2.8-2.2,4.7-3.9,5-4.1,2.1-1.8,3.4-4.1,3.4-6.5s-1.3-4.8-3.4-6.5c-.3-.2-2.2-1.8-5-4.1,5-4,13.4-10.8,14.9-11.7.9-.6,1.9-.9,2.8-.9,3.6,0,6.2,4.4,4.6,7.3-1.2,2.2-8.8,15.9-8.8,15.9,0,0,7.6,13.7,8.8,15.9,1.6,2.9-1,7.3-4.6,7.3Z" />
  <g>
    <path class="st0" d="M200.9,72.8c-1.1,7.2-9.5,10.7-15.9,8-9.4-3.5-9.4-17.7,0-21.1,6.2-2.6,14.6.7,15.8,7.7h-5c-2.6-7.1-13.3-4.6-12.9,2.8-.3,7.7,10.7,10,13,2.5h5v.1Z" />
    <path class="st0" d="M202.5,81.3v-15.7h3.9l.3,2.7c.9-2.4,3.5-3.5,5.9-2.9v4c-3.1-.8-6,1.8-5.8,5v6.9h-4.4.1Z" />
    <path class="st0" d="M228.9,70.1c-3.4-8-16-5.4-15.7,3.5-.3,9.3,13.3,11.3,16.1,2.7h-4.4c-1.7,3.1-7.2,1.9-7.4-1.7h11.8c.3-1.5,0-3.2-.5-4.5h.1ZM217.6,71.9c.6-4,7-4,7.5,0h-7.5Z" />
    <path class="st0" d="M243.7,79.5c-1.8,2.3-5.5,2.8-8.2,1.6-3-1.3-4.6-4.4-4.6-7.6s1.6-6.3,4.6-7.5c2.6-1.2,6.3-.7,8.1,1.6v-9.2h4.4v23h-4.1s-.2-1.9-.2-1.9ZM241.1,77.5c4.9-2.4,1.9-10.1-3.4-8-4.9,2.3-1.9,10.2,3.4,8Z" />
    <path class="st0" d="M250.7,81.3v-15.7h4.4v15.7h-4.4Z" />
    <path class="st0" d="M257,65.7h2.8v-4.3l4.3-.8v5.1h4.7v3.6h-4.6v5.9c-.1,2.5,2.4,2.8,4.3,2.4v3.8c-3,.7-7,0-8.2-3.2-.8-1.7-.4-7.1-.5-9h-2.8v-3.6.1Z" />
    <path class="st0" d="M277,59.2h4.6v13.6c-.1,2.8,2.3,4.8,5,4.7,2.7.1,5.1-1.9,5-4.7v-13.6h4.6v14.1c.2,5.3-4.6,8.7-9.6,8.5-5,.2-9.8-3.2-9.6-8.5v-14.1Z" />
    <path class="st0" d="M298.9,65.7h3.8l.4,1.8c2.7-3.5,9.5-2.7,10.9,1.6.8,1.7.3,10.2.4,12.2h-4.4v-8.6c0-2-1.1-3.4-3.1-3.4s-3.5,1.5-3.5,3.4v8.6h-4.4v-15.7l-.1.1Z" />
    <path class="st0" d="M317.1,81.3v-15.7h4.4v15.7h-4.4Z" />
    <path class="st0" d="M324.2,70.2c2.1-5.4,10-6.5,14-2.6,5.3,5.2,1.4,14.3-6.1,14-6.1.2-10.2-5.9-7.9-11.4ZM333.8,77.4c4.9-2.3,1.9-10-3.4-7.9-4.9,2.4-1.9,10,3.4,7.9Z" />
    <path class="st0" d="M342.7,65.7h3.8l.4,1.8c2.7-3.5,9.5-2.7,10.9,1.6.8,1.7.3,10.2.4,12.2h-4.4v-8.6c0-2-1.1-3.4-3.1-3.4s-3.5,1.5-3.5,3.4v8.6h-4.4v-15.7l-.1.1Z" />
  </g>
  <g>
    <path class="st0" d="M108,30.1c-1.1-1.7-2.8-2.9-5.1-3.8,7.9-4.8,5.3-17.2-3.2-19.8-1.7-.6-3.5-.9-5.6-.9h-19v43.1h21.2c2.1,0,4-.3,5.6-.9,7.2-2.2,10.1-11.5,5.9-17.6l.2-.1ZM97.8,13.7c3.2,2.3,2.3,8.4-1.6,9.6-1.5.8-11.1.3-13.1.5v-11.6h10.1c1.8,0,3.4.5,4.7,1.5h-.1ZM101.4,38.5c-.9,2.3-3.3,3.5-5.8,3.4h-12.5v-11.9h12.5c4.6-.2,7.4,4.4,5.8,8.5Z" />
    <path class="st0" d="M141.3,26.6c-2.9-8.3-13.6-11.1-21.2-7.8-11.8,5-12,24-.1,29.1,8.2,3.6,19.4,0,22-9.1h-7.6c-2,3.9-7.3,4.7-11,3.2-2.8-1.2-4.4-3.8-4.8-6.8h23.6c.5-2.8,0-6.1-.9-8.7v.1ZM118.8,30.4c1.5-8.9,14.9-8.8,16.3,0h-16.3Z" />
    <path class="st0" d="M170.4,18.2h6.5v27.7c0,2.5-.4,4.8-1.1,6.8-2.3,6.3-8.4,9.5-15,9.4-7.3.2-14.2-4.1-15.7-11.4h7.5c1.9,5.5,10.6,6.4,14.4,2.6,1.6-1.5,2.4-3.7,2.4-6.6v-1.9c-3.6,4.5-11,5.5-16.3,3.1-5.8-2.4-9.2-8.4-9.1-14.7,0-6.3,3.3-12.1,9.1-14.4,5.4-2.2,12.9-1.3,16.5,3.4l.8-3.9v-.1ZM163.9,41.9c5.7-2.4,7.2-10.8,2.9-15.2-5.8-5.7-15.6-1.8-15.5,6.5-.3,6.6,6.6,11.5,12.6,8.7Z" />
    <path class="st0" d="M182.3,14.1c-5.3-2.5-2-10.4,3.6-8.2,5.4,2.5,2,10.3-3.6,8.2ZM180.3,48.6v-30.5h7.5v30.5h-7.5Z" />
    <path class="st0" d="M191.5,18.2h6.5l.6,3.7c4.1-5.7,14.3-5.7,19-.9,2.3,2.4,3.3,5.7,3.3,9.1v18.5h-7.4v-16.9c0-4.5-2.5-7.3-6.9-7.3-4.1-.1-7.7,3.1-7.5,7.3l-.1,16.9h-7.5v-30.5.1Z" />
    <path class="st0" d="M224.3,18.2h6.5l.6,3.7c4.1-5.7,14.3-5.7,19-.9,2.3,2.4,3.3,5.7,3.3,9.1v18.5h-7.4v-16.9c0-4.5-2.5-7.3-6.9-7.3-4.1-.1-7.7,3.1-7.5,7.3l-.1,16.9h-7.5v-30.5.1Z" />
    <path class="st0" d="M259.1,14.1c-5.3-2.5-2-10.4,3.6-8.2,5.4,2.5,2,10.3-3.6,8.2ZM257.1,48.6v-30.5h7.5v30.5h-7.5Z" />
    <path class="st0" d="M268.4,18.2h6.5l.6,3.7c4.1-5.7,14.3-5.7,19-.9,2.3,2.4,3.3,5.7,3.3,9.1v18.5h-7.4v-16.9c0-4.5-2.5-7.3-6.9-7.3-4.1-.1-7.7,3.1-7.5,7.3l-.1,16.9h-7.5v-30.5.1Z" />
    <path class="st0" d="M326.2,18.2h6.5v27.7c0,2.5-.4,4.8-1.1,6.8-2.3,6.3-8.4,9.5-15,9.4-7.3.2-14.2-4.1-15.7-11.4h7.5c1.9,5.5,10.6,6.4,14.4,2.6,1.6-1.5,2.4-3.7,2.4-6.6v-1.9c-3.6,4.5-11,5.5-16.3,3.1-5.8-2.4-9.2-8.4-9.1-14.7,0-6.3,3.3-12.1,9.1-14.4,5.4-2.2,12.9-1.3,16.5,3.4l.8-3.9v-.1ZM319.7,41.9c5.7-2.4,7.2-10.8,2.9-15.2-5.8-5.7-15.6-1.8-15.5,6.5-.3,6.6,6.6,11.5,12.6,8.7Z" />
    <path class="st0" d="M341,38.2c.3,4.7,6.4,6.1,10,4.1,1.5-.7,2.2-2.9,1.1-4.2-1.6-1.7-4.4-1.8-6.8-2.3-3.5-.8-7.7-1.4-9.7-4.7-2.2-3.6-.7-9.1,2.9-11.3,7.2-4.7,20.7-2.1,20.8,8h-6.9c-.5-4.1-6-5.4-9.2-3.5-1.2.6-2.1,2.2-1.2,3.5,1.3,1.5,3.5,1.7,5.6,2.2,3.9.8,8.7,1.3,11.2,4.8,2.6,3.7.8,9.6-3,12-7.6,5.3-22,2.4-21.8-8.6h7Z" />
  </g>
  <g>
    <path class="st0" d="M115.9,99.6c1.4,2.7,6.2,12.6,7.5,15.2h1.9v3h-7.1v-2.7c.3,0,1.5-.2,1.8-.2l-1.6-3.3h-8.3l-1.6,3.3,1.9.2v2.7h-7.1v-3h1.9l7.5-15.2h3.3-.1ZM117,108.6c-.9-1.8-1.8-3.6-2.8-5.8l-2.8,5.8h5.6Z" />
    <path class="st0" d="M132.2,114.8h1.9v3h-6.8v-3h1.9v-12h-1.9v-3h4.9v15h0Z" />
    <path class="st0" d="M141.1,114.8h1.9v3h-6.8v-3h1.9v-12h-1.9v-3h4.9v15h0Z" />
    <path class="st0" d="M154.7,104.3v-4.5h3.1v4.5h2.5v3h-2.5v4.8c-.1,2.7,1.2,3,3.3,2.8v3c-7.6,1.1-6.3-5-6.4-10.6h-1.9v-3h1.9,0Z" />
    <path class="st0" d="M167.9,106.7c3.1-4.3,10.8-3.5,10.7,2.5v5.6h1.8v3h-6.8v-2.8l1.9-.2v-5.1c-.3-4.5-6.6-3.2-7.6.8v4.3l1.9.2v2.8h-6.8v-3h1.9v-12h-1.9v-3h4.9v6.9h0Z" />
    <path class="st0" d="M188.4,104c1.9,0,3.6.7,4.7,2l.2-1.7h4.8v3h-1.9v7.5h1.9v3h-4.8l-.2-1.6c-3.8,4.3-11.2,1.4-11.1-5.1,0-4.8,2.9-7.1,6.3-7.1h.1ZM189.3,115.4c5.1.2,5.3-8.8,0-8.5-5.3-.2-5.6,8.7,0,8.5Z" />
    <path class="st0" d="M202.1,104.3v-4.5h3.1v4.5h2.5v3h-2.5v4.8c-.1,2.7,1.2,3,3.3,2.8v3c-7.6,1.1-6.3-5-6.4-10.6h-1.9v-3h1.9,0Z" />
    <path class="st0" d="M212.8,107.9l-1.3-.9c.2-.3,1.1-1.2,1.5-2.3-3.5.1-3.5-5.3,0-5.3,1.7,0,2.7,1.3,2.7,2.9s-.6,3.2-2.8,5.6h-.1Z" />
    <path class="st0" d="M231,104.1v4.6h-2.3v-1c-.6-.5-2.5-1.2-4.5-1.2s-2.9.5-2.9,1.5c0,3.1,10.3-.2,10.3,5.6s-3.2,4.7-6.3,4.7-3.4-.5-4.7-1.5v1h-2.5v-4.8h2.2l.2,1.1c1,1.7,7.8,2.9,7.9-.2,0-3.1-10.3.4-10.3-5.6,0-4.7,7.6-5.1,10.3-3.2l.2-.9h2.2l.2-.1Z" />
    <path class="st0" d="M249,120.5v3h-6.8v-3h1.9v-13.2h-1.9v-3h4.8c0,.6.1,1.1.2,1.7,3.9-4,11.2-1.9,11,5.1.2,6.5-7.3,9.5-11,5.1v4.3h1.9-.1ZM250.9,106.9c-5.2-.2-5.1,8.7,0,8.5,5.6.2,5.3-8.7,0-8.5Z" />
    <path class="st0" d="M260.3,111.2c0-4.5,2.8-7.3,7.1-7.3,9.7-.2,9.6,14.7,0,14.5-4.3,0-7.2-2.8-7.2-7.2h.1ZM267.4,106.9c-5.5-.2-5.3,8.7,0,8.5,5.6.2,5.3-8.7,0-8.5Z" />
    <path class="st0" d="M290,104.1v4.6h-2.3v-1c-.6-.5-2.5-1.2-4.5-1.2s-2.9.5-2.9,1.5c0,3.1,10.3-.2,10.3,5.6s-3.2,4.7-6.3,4.7-3.4-.5-4.7-1.5v1h-2.5v-4.8h2.2l.2,1.1c1,1.7,7.8,2.9,7.9-.2,0-3.1-10.3.4-10.3-5.6,0-4.7,7.6-5.1,10.3-3.2l.2-.9h2.2l.2-.1Z" />
    <path class="st0" d="M306.2,104.1v4.6h-2.3v-1c-.6-.5-2.5-1.2-4.5-1.2s-2.9.5-2.9,1.5c0,3.1,10.3-.2,10.3,5.6s-3.2,4.7-6.3,4.7-3.4-.5-4.7-1.5v1h-2.5v-4.8h2.2l.2,1.1c1,1.7,7.8,2.9,7.9-.2,0-3.1-10.3.4-10.3-5.6,0-4.7,7.6-5.1,10.3-3.2l.2-.9h2.2l.2-.1Z" />
    <path class="st0" d="M314.3,114.8h1.9v3h-6.8v-3h1.9v-7.5h-1.9v-3h4.9v10.5ZM310.6,100.1c0-2.8,4.2-2.8,4.2,0s-4.2,2.7-4.2,0Z" />
    <path class="st0" d="M327.6,118.2c-1.8,0-3.3-.7-4.4-2,0,.5-.1,1.1-.2,1.6h-4.8v-3h1.9v-12h-1.9v-3h4.9v6.1c3.9-4,11.2-1.8,11,5.1,0,4.6-3.2,7.2-6.6,7.2h.1ZM331,111.3c.2-5.3-7.8-6.6-7.9,0,0,5.6,8,5.2,7.9,0Z" />
    <path class="st0" d="M340.8,114.8h1.9v3h-6.8v-3h1.9v-12h-1.9v-3h4.9v15Z" />
    <path class="st0" d="M355.9,113.5l2.3,1.1c-1.1,2.7-3.9,3.8-6.5,3.8-4.3,0-7.2-2.8-7.2-7.2-.4-9.4,13.9-9.8,14.2-.8l-.3,1.6h-10.9c.4,2.1,2,3.6,4.2,3.6s3.3-.4,4.2-2.1h0ZM347.6,109.8h8.2c-.3-4.1-7.5-4.2-8.2,0Z" />
  </g>
  <metadata></metadata>
</svg>