<?xml version="1.0" encoding="UTF-8"?>
<svg id="Logo" xmlns="http://www.w3.org/2000/svg" version="1.1" xmlns:i="http://ns.adobe.com/AdobeIllustrator/10.0/" viewBox="0 0 82.79 82.79">
  <defs>
    <style>
      .st0 {
        fill: #fff;
      }
    </style>
  </defs>
  <path class="st0" d="M47.57,41.42c0-.85-.54-1.69-1.41-2.4-.61-.5-2.59-2.12-5.13-4.18-2.54,2.06-4.52,3.69-5.13,4.18-.87.71-1.42,1.52-1.41,2.4.01.85.54,1.69,1.41,2.4.61.5,2.59,2.12,5.13,4.18,2.54-2.06,4.53-3.69,5.13-4.18.87-.71,1.4-1.54,1.41-2.4Z" />
  <path class="st0" d="M56.48,41.4s6.72-12.12,7.81-14.08c1.45-2.6-.93-6.47-4.1-6.47-.78,0-1.61.23-2.44.78-1.33.82-8.83,6.82-13.24,10.39,2.44,1.99,4.2,3.43,4.43,3.61,1.91,1.56,2.98,3.62,3.03,5.79-.05,2.17-1.13,4.23-3.03,5.79-.23.19-1.99,1.63-4.43,3.61,5.4,4.36,11.58,9.3,13.24,10.39.83.55,1.66.78,2.44.78,3.17,0,5.55-3.87,4.1-6.47-1.1-1.99-7.81-14.12-7.81-14.12Z" />
  <path class="st0" d="M33.11,47.22c-1.91-1.56-2.98-3.62-3.03-5.79.05-2.17,1.13-4.23,3.03-5.79.23-.19,1.99-1.63,4.43-3.61-5.4-4.36-11.58-9.3-13.24-10.39-.83-.55-1.66-.78-2.44-.78-3.17,0-5.55,3.87-4.1,6.47,1.07,1.93,7.81,14.08,7.81,14.08,0,0-6.7,12.13-7.81,14.12-1.45,2.6.93,6.47,4.1,6.47.78,0,1.61-.23,2.44-.78,1.66-1.09,7.84-6.02,13.24-10.39q.34-.28,0,0c-2.44-1.99-4.2-3.43-4.43-3.61Z" />
  <path class="st0" d="M66.76,0H16.03C7.18,0,0,7.18,0,16.03v50.73C0,75.61,7.18,82.79,16.03,82.79h50.73c8.85,0,16.03-7.18,16.03-16.03V16.03C82.79,7.18,75.61,0,66.76,0ZM60.19,66.38c-1.68,0-3.35-.52-4.85-1.5-1.92-1.26-8.74-6.71-14.33-11.23h0c-5.59,4.52-12.41,9.97-14.33,11.23-1.49.98-3.17,1.5-4.85,1.5-6.24.15-11.13-7.52-7.94-12.99.81-1.45,4.71-8.39,6.65-11.97-1.94-3.58-5.84-10.52-6.65-11.97-3.19-5.47,1.7-13.14,7.94-12.99,1.68,0,3.35.52,4.85,1.5,1.92,1.26,8.74,6.71,14.33,11.23h0c5.59-4.52,12.41-9.97,14.33-11.23,1.49-.98,3.17-1.5,4.85-1.5,6.24-.15,11.13,7.52,7.94,12.99-.81,1.45-4.71,8.37-6.65,11.95,1.94,3.58,5.84,10.53,6.65,11.99,3.19,5.47-1.7,13.14-7.94,12.99Z" />
  <metadata></metadata>
</svg>