<?xml version="1.0" encoding="UTF-8"?>
<svg id="Logo" xmlns="http://www.w3.org/2000/svg" version="1.1" xmlns:i="http://ns.adobe.com/AdobeIllustrator/10.0/" viewBox="0 0 364.76 82.79">
  <defs>
    <style>
      .st0 {
        fill: #fff;
      }

      .st1 {
        fill: #adb4ff;
      }

      .st2 {
        fill: #ffa300;
      }
    </style>
  </defs>
  <path class="st2" d="M55.44,28.48c2.22-4.09,6.67-11.98,7.59-13.64C66.68,8.59,61.1-.17,53.98,0c-1.91,0-3.83.59-5.53,1.71-2.19,1.43-9.97,7.66-16.35,12.82h0C25.71,9.37,17.93,3.15,15.74,1.71,14.03.59,12.12,0,10.21,0,3.09-.17-2.5,8.59,1.15,14.83c.92,1.66,5.37,9.57,7.59,13.66-2.22,4.09-6.67,12-7.59,13.66-3.64,6.25,1.94,15,9.06,14.83,1.91,0,3.83-.59,5.53-1.71,2.19-1.43,9.97-7.66,16.35-12.82h0c6.38,5.16,14.16,11.39,16.35,12.82,1.71,1.12,3.62,1.71,5.53,1.71,7.12.17,12.7-8.58,9.06-14.83-.92-1.66-5.37-9.59-7.59-13.68ZM28.11,39.24c-6.16,4.98-13.22,10.62-15.12,11.86-.95.62-1.9.89-2.79.89-3.62,0-6.33-4.42-4.68-7.39,1.26-2.27,8.91-16.12,8.91-16.12,0,0-7.69-13.87-8.91-16.07-1.65-2.97,1.06-7.39,4.68-7.39.89,0,1.84.27,2.79.89,1.9,1.24,8.95,6.88,15.12,11.86-2.79,2.27-4.79,3.91-5.06,4.13-2.18,1.78-3.4,4.13-3.46,6.61.06,2.48,1.28,4.83,3.46,6.61.26.21,2.27,1.86,5.06,4.13q1.05-.85,0,0ZM32.09,36.01c-2.9-2.35-5.16-4.21-5.86-4.78-.99-.81-1.6-1.77-1.61-2.74,0-1,.62-1.92,1.61-2.74.69-.57,2.96-2.42,5.86-4.78,2.9,2.35,5.17,4.21,5.86,4.78.99.81,1.61,1.76,1.61,2.74-.01.98-.62,1.92-1.61,2.74-.69.57-2.96,2.42-5.86,4.78ZM53.98,51.98c-.89,0-1.84-.27-2.79-.89-1.9-1.24-8.95-6.88-15.12-11.86,2.79-2.27,4.79-3.91,5.06-4.13,2.18-1.78,3.4-4.13,3.46-6.61-.06-2.48-1.28-4.83-3.46-6.61-.26-.21-2.27-1.86-5.06-4.13,5.04-4.08,13.6-10.92,15.12-11.86.95-.62,1.9-.89,2.79-.89,3.62,0,6.33,4.42,4.68,7.39-1.24,2.24-8.91,16.08-8.91,16.08,0,0,7.65,13.85,8.91,16.12,1.65,2.97-1.06,7.39-4.68,7.39Z" />
  <g>
    <path class="st1" d="M203.57,73.73c-1.12,7.34-9.6,10.82-16.08,8.15-9.54-3.5-9.55-17.92,0-21.42,6.24-2.6,14.84.66,15.98,7.81h-5.02c-2.61-7.16-13.48-4.69-13.12,2.88-.34,7.78,10.84,10.15,13.15,2.58h5.08Z" />
    <path class="st1" d="M205.18,82.41v-15.9h4l.34,2.78c.87-2.4,3.53-3.54,6-2.98v4.1c-3.18-.82-6.03,1.84-5.83,5.05,0,0,0,6.95,0,6.95h-4.51Z" />
    <path class="st1" d="M231.93,70.97c-3.42-8.06-16.21-5.45-15.93,3.51-.27,9.45,13.43,11.44,16.3,2.78h-4.44c-1.76,3.16-7.31,1.94-7.46-1.73h12c.25-1.5.05-3.22-.47-4.56ZM220.49,72.85c.6-4.07,7.08-4.09,7.65,0h-7.65Z" />
    <path class="st1" d="M246.88,80.51c-1.8,2.32-5.62,2.82-8.32,1.61-3.01-1.3-4.67-4.45-4.63-7.71-.04-3.24,1.63-6.35,4.63-7.63,2.68-1.17,6.4-.7,8.19,1.59v-9.29h4.51v23.32h-4.17l-.2-1.9ZM244.22,78.49c5-2.48,1.97-10.2-3.44-8.08-4.94,2.36-1.88,10.29,3.44,8.08Z" />
    <path class="st1" d="M254.02,82.41v-15.9h4.51v15.9h-4.51Z" />
    <path class="st1" d="M260.35,66.51h2.85v-4.34l4.41-.81v5.15h4.71v3.69h-4.68v5.97c-.12,2.51,2.4,2.86,4.34,2.47v3.9c-3.08.68-7.13.06-8.34-3.24-.81-1.72-.37-7.16-.47-9.1h-2.81v-3.69Z" />
    <path class="st1" d="M280.6,59.94h4.64v13.79c-.12,2.85,2.32,4.87,5.08,4.75,2.76.13,5.17-1.91,5.08-4.75,0,0,0-13.79,0-13.79h4.64v14.24c.22,5.4-4.65,8.78-9.73,8.57-5.07.21-9.92-3.2-9.73-8.58,0,0,0-14.24,0-14.24Z" />
    <path class="st1" d="M302.87,66.51h3.9l.37,1.86c2.71-3.53,9.64-2.78,11.02,1.66.82,1.69.31,10.38.44,12.37h-4.51v-8.71c.02-2.07-1.1-3.46-3.15-3.46-1.92-.06-3.57,1.47-3.53,3.42,0,0-.03,8.74-.03,8.74h-4.51v-15.9Z" />
    <path class="st1" d="M321.26,82.41v-15.9h4.51v15.9h-4.51Z" />
    <path class="st1" d="M328.5,71.16c2.11-5.45,10.13-6.58,14.13-2.63,5.32,5.3,1.45,14.46-6.17,14.22-6.13.23-10.35-6.01-7.97-11.59ZM338.16,78.44c5.01-2.35,1.91-10.1-3.41-7.96-5.01,2.39-1.94,10.08,3.41,7.96Z" />
    <path class="st1" d="M347.16,66.51h3.9l.37,1.86c2.71-3.53,9.64-2.78,11.02,1.66.82,1.69.31,10.38.44,12.37h-4.51v-8.71c.02-2.07-1.1-3.46-3.15-3.46-1.92-.06-3.57,1.47-3.53,3.42,0,0-.03,8.74-.03,8.74h-4.51v-15.9Z" />
  </g>
  <g>
    <path class="st0" d="M109.43,30.53c-1.15-1.7-2.87-2.98-5.15-3.87,8.05-4.91,5.35-17.39-3.21-20.08-1.69-.64-3.56-.95-5.63-.95h-19.28v43.62h21.51c2.11,0,4.01-.31,5.72-.92,7.34-2.24,10.26-11.61,6.02-17.8ZM99.07,13.89c3.23,2.32,2.38,8.55-1.64,9.77-1.55.86-11.29.32-13.29.46v-11.71h10.2c1.84,0,3.42.49,4.74,1.48ZM102.72,39.05c-.95,2.32-3.38,3.52-5.89,3.49,0,0-12.7,0-12.7,0v-12.11h12.7c4.65-.19,7.52,4.43,5.89,8.62Z" />
    <path class="st0" d="M143.21,26.98c-2.96-8.4-13.81-11.27-21.45-7.89-11.97,5.08-12.11,24.32-.13,29.47,8.29,3.63,19.64-.01,22.24-9.18l-7.7.07c-2.03,3.86-7.38,4.73-11.12,3.16-2.81-1.18-4.44-3.87-4.85-6.84h23.92c.5-2.89.08-6.21-.92-8.78ZM120.36,30.77c1.53-9,15.07-8.9,16.46,0h-16.46Z" />
    <path class="st0" d="M172.6,18.4h6.58v28.09c0,2.54-.38,4.82-1.15,6.84-2.29,6.42-8.51,9.67-15.23,9.54-7.35.22-14.42-4.15-15.86-11.58h7.57c1.97,5.56,10.77,6.44,14.64,2.6,1.64-1.56,2.47-3.78,2.47-6.68v-1.97c-3.62,4.58-11.16,5.54-16.55,3.19-5.9-2.48-9.34-8.5-9.24-14.9-.1-6.35,3.36-12.28,9.24-14.64,5.48-2.26,13.1-1.31,16.68,3.45l.86-3.95ZM166.02,42.41c5.82-2.46,7.33-10.97,2.89-15.4-5.83-5.76-15.85-1.8-15.66,6.58-.28,6.65,6.65,11.69,12.76,8.82Z" />
    <path class="st0" d="M184.68,14.24c-5.42-2.54-1.99-10.53,3.62-8.32,5.46,2.54,2.04,10.47-3.62,8.32ZM182.67,49.25v-30.86h7.57v30.86h-7.57Z" />
    <path class="st0" d="M194.06,18.4h6.58l.59,3.75c4.2-5.75,14.45-5.78,19.28-.89,2.36,2.41,3.36,5.76,3.36,9.24,0,0,0,18.75,0,18.75h-7.5v-17.11c.05-4.57-2.48-7.44-6.97-7.43-4.13-.12-7.81,3.11-7.63,7.37,0,0-.13,17.17-.13,17.17h-7.57v-30.86Z" />
    <path class="st0" d="M227.28,18.4h6.58l.59,3.75c4.2-5.75,14.45-5.78,19.28-.89,2.36,2.41,3.36,5.76,3.36,9.24,0,0,0,18.75,0,18.75h-7.5v-17.11c.05-4.57-2.49-7.44-6.97-7.43-4.13-.12-7.81,3.11-7.63,7.37,0,0-.13,17.17-.13,17.17h-7.57v-30.86Z" />
    <path class="st0" d="M262.51,14.24c-5.42-2.54-1.99-10.53,3.62-8.32,5.46,2.54,2.04,10.47-3.62,8.32ZM260.5,49.25v-30.86h7.57v30.86h-7.57Z" />
    <path class="st0" d="M271.88,18.4h6.58l.59,3.75c4.2-5.75,14.45-5.78,19.28-.89,2.36,2.41,3.36,5.76,3.36,9.24,0,0,0,18.75,0,18.75h-7.5v-17.11c.05-4.57-2.49-7.44-6.97-7.43-4.13-.12-7.81,3.11-7.63,7.37,0,0-.13,17.17-.13,17.17h-7.57v-30.86Z" />
    <path class="st0" d="M330.45,18.4h6.58v28.09c0,2.54-.38,4.82-1.15,6.84-2.29,6.42-8.51,9.67-15.23,9.54-7.35.22-14.42-4.15-15.86-11.58h7.57c1.97,5.56,10.77,6.44,14.64,2.6,1.64-1.56,2.47-3.78,2.47-6.68v-1.97c-3.62,4.58-11.16,5.54-16.55,3.19-5.9-2.48-9.34-8.5-9.24-14.9-.1-6.35,3.36-12.28,9.24-14.64,5.48-2.26,13.1-1.31,16.68,3.45l.86-3.95ZM323.87,42.41c5.82-2.46,7.33-10.97,2.89-15.4-5.83-5.76-15.85-1.8-15.66,6.58-.28,6.65,6.65,11.69,12.76,8.82Z" />
    <path class="st0" d="M345.51,38.73c.35,4.78,6.51,6.22,10.13,4.18,1.51-.76,2.21-2.89,1.12-4.24-1.67-1.77-4.41-1.86-6.84-2.37-3.51-.77-7.78-1.44-9.84-4.77-2.23-3.61-.73-9.25,2.93-11.41,7.25-4.8,20.93-2.17,21.12,8.09h-7.04c-.52-4.19-6.07-5.43-9.31-3.55-1.26.63-2.16,2.26-1.25,3.52,1.37,1.54,3.57,1.73,5.69,2.27,3.97.79,8.79,1.28,11.32,4.84,2.59,3.82.81,9.68-3.03,12.14-7.65,5.33-22.27,2.41-22.04-8.68h7.04Z" />
  </g>
  <metadata></metadata>
</svg>